<svg width="245" height="245" viewBox="0 0 245 245" fill="none" xmlns="http://www.w3.org/2000/svg">
<path d="M245 187.376H0V187.499H245V187.376Z" fill="#EBEBEB"/>
<path d="M41.9342 195.26H25.7054V195.383H41.9342V195.26Z" fill="#EBEBEB"/>
<path d="M88.1167 196.593H83.8586V196.715H88.1167V196.593Z" fill="#EBEBEB"/>
<path d="M54.88 190.713H42.4242V190.835H54.88V190.713Z" fill="#EBEBEB"/>
<path d="M220.451 191.536H206.78V191.659H220.451V191.536Z" fill="#EBEBEB"/>
<path d="M202.419 191.536H191.82V191.659H202.419V191.536Z" fill="#EBEBEB"/>
<path d="M161.043 193.604H135.833V193.726H161.043V193.604Z" fill="#EBEBEB"/>
<path d="M116.13 165.522H21.5159C20.7747 165.521 20.0643 165.225 19.5407 164.701C19.017 164.176 18.7229 163.465 18.7229 162.724V29.7234C18.7294 28.9865 19.0263 28.2818 19.5493 27.7625C20.0722 27.2433 20.7789 26.9513 21.5159 26.95H116.13C116.872 26.95 117.584 27.2448 118.108 27.7695C118.633 28.2942 118.928 29.0059 118.928 29.7479V162.724C118.928 163.466 118.633 164.178 118.108 164.703C117.584 165.227 116.872 165.522 116.13 165.522ZM21.5159 27.048C20.8072 27.0493 20.1279 27.3318 19.6273 27.8333C19.1266 28.3349 18.8454 29.0147 18.8454 29.7234V162.724C18.8454 163.433 19.1266 164.113 19.6273 164.614C20.1279 165.116 20.8072 165.398 21.5159 165.4H116.13C116.839 165.398 117.519 165.116 118.02 164.614C118.522 164.113 118.804 163.433 118.805 162.724V29.7234C118.804 29.0142 118.522 28.3345 118.02 27.833C117.519 27.3316 116.839 27.0493 116.13 27.048H21.5159Z" fill="#EBEBEB"/>
<path d="M222.122 165.522H127.503C126.761 165.521 126.05 165.226 125.526 164.701C125.002 164.177 124.706 163.466 124.705 162.724V29.7234C124.713 28.986 125.011 28.2814 125.535 27.7622C126.058 27.2431 126.765 26.9513 127.503 26.95H222.122C222.858 26.9526 223.564 27.2451 224.085 27.7643C224.607 28.2834 224.904 28.9873 224.91 29.7234V162.724C224.91 163.464 224.617 164.175 224.094 164.699C223.571 165.223 222.862 165.519 222.122 165.522ZM127.503 27.048C126.794 27.0493 126.114 27.3316 125.613 27.833C125.111 28.3345 124.829 29.0142 124.828 29.7234V162.724C124.829 163.433 125.111 164.113 125.613 164.614C126.114 165.116 126.794 165.398 127.503 165.4H222.122C222.831 165.398 223.511 165.116 224.012 164.614C224.514 164.113 224.796 163.433 224.797 162.724V29.7234C224.796 29.0142 224.514 28.3345 224.012 27.833C223.511 27.3316 222.831 27.0493 222.122 27.048H127.503Z" fill="#EBEBEB"/>
<path d="M56.5999 121.03H40.8072V187.376H68.0512V132.481L56.5999 121.03Z" fill="#E0E0E0"/>
<path d="M52.2585 132.476H29.3608V187.371H52.2585V132.476Z" fill="#EBEBEB"/>
<path d="M52.2585 132.476H29.3608V133.378H52.2585V132.476Z" fill="#E0E0E0"/>
<path d="M40.8072 121.03L29.3608 132.481H52.2536L40.8072 121.03Z" fill="#EBEBEB"/>
<path d="M37.3478 139.65H33.1877V143.81H37.3478V139.65Z" fill="#E0E0E0"/>
<path d="M46.4863 139.65H42.3262V143.81H46.4863V139.65Z" fill="#E0E0E0"/>
<path d="M37.3478 151.572H33.1877V155.732H37.3478V151.572Z" fill="#E0E0E0"/>
<path d="M46.4863 151.572H42.3262V155.732H46.4863V151.572Z" fill="#E0E0E0"/>
<path d="M37.3478 163.493H33.1877V167.654H37.3478V163.493Z" fill="#E0E0E0"/>
<path d="M46.4863 163.493H42.3262V167.654H46.4863V163.493Z" fill="#E0E0E0"/>
<path d="M37.3478 175.415H33.1877V179.575H37.3478V175.415Z" fill="#E0E0E0"/>
<path d="M46.4863 175.415H42.3262V179.575H46.4863V175.415Z" fill="#E0E0E0"/>
<path d="M63.6902 121.917H59.9515V129.394H63.6902V121.917Z" fill="#E0E0E0"/>
<path d="M145.378 112.293H125.852V187.376H159.529V126.449L145.378 112.293Z" fill="#E0E0E0"/>
<path d="M140.003 126.449H111.695V187.376H140.003V126.449Z" fill="#EBEBEB"/>
<path d="M140.003 126.449H111.695V127.567H140.003V126.449Z" fill="#E0E0E0"/>
<path d="M125.852 112.293L111.695 126.449H140.003L125.852 112.293Z" fill="#EBEBEB"/>
<path d="M157.466 135.573L145.123 135.568V187.376H171.623V149.724L157.466 135.573Z" fill="#E0E0E0"/>
<path d="M145.123 135.568V149.724V187.376H159.279V149.724L145.123 135.568Z" fill="#EBEBEB"/>
<path d="M127.542 138.788H124.161V145.986H127.542V138.788Z" fill="#E0E0E0"/>
<path d="M135.005 138.788H131.624V145.986H135.005V138.788Z" fill="#E0E0E0"/>
<path d="M127.542 152.478H124.161V159.676H127.542V152.478Z" fill="#E0E0E0"/>
<path d="M135.005 152.478H131.624V159.676H135.005V152.478Z" fill="#E0E0E0"/>
<path d="M127.542 166.164H124.161V173.362H127.542V166.164Z" fill="#E0E0E0"/>
<path d="M120.075 138.788H116.694V145.986H120.075V138.788Z" fill="#E0E0E0"/>
<path d="M120.075 152.478H116.694V159.676H120.075V152.478Z" fill="#E0E0E0"/>
<path d="M120.075 166.164H116.694V173.362H120.075V166.164Z" fill="#E0E0E0"/>
<path d="M135.005 166.164H131.624V173.362H135.005V166.164Z" fill="#E0E0E0"/>
<path d="M152.537 152.478H149.156V159.676H152.537V152.478Z" fill="#E0E0E0"/>
<path d="M152.537 166.164H149.156V173.362H152.537V166.164Z" fill="#E0E0E0"/>
<path d="M91.6398 136.235H73.8724V187.376H104.522V149.117L91.6398 136.235Z" fill="#E0E0E0"/>
<path d="M86.7496 149.117H60.9903V187.376H86.7496V149.117Z" fill="#EBEBEB"/>
<path d="M86.7496 149.117H60.9903V150.131H86.7496V149.117Z" fill="#E0E0E0"/>
<path d="M73.8724 136.235L60.9903 149.117H86.7496L73.8724 136.235Z" fill="#EBEBEB"/>
<path d="M69.9769 157.187H65.2974V161.867H69.9769V157.187Z" fill="#E0E0E0"/>
<path d="M80.262 157.187H75.5825V161.867H80.262V157.187Z" fill="#E0E0E0"/>
<path d="M69.9769 170.598H65.2974V175.278H69.9769V170.598Z" fill="#E0E0E0"/>
<path d="M80.262 170.598H75.5825V175.278H80.262V170.598Z" fill="#E0E0E0"/>
<path d="M76.6997 130.575H71.0402V141.894H76.6997V130.575Z" fill="#EBEBEB"/>
<path d="M202.076 146.731H183.471V187.376H215.561V156.967L202.076 146.731Z" fill="#E0E0E0"/>
<path d="M196.96 156.967H169.991V187.371H196.96V156.967Z" fill="#EBEBEB"/>
<path d="M196.96 156.967H169.991V157.775H196.96V156.967Z" fill="#E0E0E0"/>
<path d="M183.471 146.731L169.991 156.967H196.956L183.471 146.731Z" fill="#EBEBEB"/>
<path d="M176.611 161.916H174.156V167.193H176.611V161.916Z" fill="#E0E0E0"/>
<path d="M182.006 161.916H179.551V167.193H182.006V161.916Z" fill="#E0E0E0"/>
<path d="M176.611 174.205H174.156V179.482H176.611V174.205Z" fill="#E0E0E0"/>
<path d="M182.006 174.205H179.551V179.482H182.006V174.205Z" fill="#E0E0E0"/>
<path d="M187.396 161.916H184.941V167.193H187.396V161.916Z" fill="#E0E0E0"/>
<path d="M192.791 161.916H190.336V167.193H192.791V161.916Z" fill="#E0E0E0"/>
<path d="M187.396 174.205H184.941V179.482H187.396V174.205Z" fill="#E0E0E0"/>
<path d="M192.791 174.205H190.336V179.482H192.791V174.205Z" fill="#E0E0E0"/>
<path d="M205.124 142.232H199.2V151.229H205.124V142.232Z" fill="#E0E0E0"/>
<path d="M98.6342 57.0223C100.605 44.8789 92.3591 33.4368 80.2157 31.4656C68.0722 29.4945 56.6301 37.7407 54.659 49.8841C52.6878 62.0276 60.9341 73.4697 73.0775 75.4408C85.2209 77.412 96.663 69.1657 98.6342 57.0223Z" fill="#FAFAFA"/>
<path d="M166.923 73.5637C170.255 68.453 175.743 64.8172 180.805 64.8172C183.975 64.8172 186.391 66.248 187.758 68.5804C189.442 67.2815 191.489 66.5384 193.614 66.4538C197.044 66.4538 199.214 68.9038 199.273 72.3877C200.936 71.6162 202.73 71.1673 204.56 71.0647C208.029 70.9079 210.528 72.324 211.572 74.6221C212.258 74.2368 213.022 74.0107 213.807 73.9606C215.801 73.8724 216.869 75.2983 216.193 77.1456C216.149 77.2632 216.1 77.3759 216.056 77.4886H160.23C160.357 75.6756 164.444 73.6568 166.923 73.5637Z" fill="#FAFAFA"/>
<path d="M161.773 45.2368C163.322 42.8701 165.87 41.1796 168.217 41.1796C168.862 41.1519 169.502 41.2995 170.07 41.6067C170.638 41.9138 171.112 42.3691 171.441 42.924C172.225 42.3246 173.175 41.9823 174.161 41.944C175.758 41.944 176.758 43.0857 176.787 44.6978C177.558 44.3409 178.389 44.1331 179.237 44.0853C180.844 44.0118 182.006 44.6684 182.491 45.7317C182.809 45.555 183.162 45.4512 183.525 45.4279C183.712 45.3934 183.906 45.4119 184.084 45.4813C184.262 45.5507 184.417 45.6682 184.532 45.8208C184.647 45.9734 184.718 46.155 184.735 46.3452C184.753 46.5355 184.717 46.7268 184.632 46.8979C184.632 46.9518 184.593 47.0057 184.568 47.0596H158.662C158.731 46.2168 160.627 45.2809 161.773 45.2368Z" fill="#FAFAFA"/>
<path d="M84.1771 53.9343C87.9158 48.2013 94.0751 44.1343 99.7493 44.1343C103.307 44.1343 106.016 45.7415 107.545 48.3581C109.608 46.8881 111.921 45.9718 114.121 45.9718C117.987 45.9718 120.403 48.7305 120.467 52.6309C122.334 51.7715 124.348 51.2727 126.4 51.1609C130.286 50.9845 133.094 52.5721 134.265 55.1544C135.034 54.7225 135.889 54.468 136.769 54.4096C139.008 54.3116 140.199 55.9139 139.449 57.9866C139.4 58.114 139.346 58.2414 139.292 58.3688H76.6409C76.8124 56.301 81.3939 54.0372 84.1771 53.9343Z" fill="#F0F0F0"/>
<path d="M37.24 81.1832C37.3814 81.1656 37.5238 81.1574 37.6663 81.1587C39.2196 79.5711 41.0081 78.5568 42.5663 78.5568C43.0552 78.5328 43.5401 78.6558 43.9584 78.91C44.3767 79.1641 44.7094 79.5378 44.9134 79.9827C47.7701 76.9055 51.156 74.9063 54.0274 74.9063C56.3451 74.9063 57.9033 76.2048 58.5599 78.3363C60.0887 77.1309 61.7106 76.4057 63.1414 76.4057C65.6649 76.4057 66.8801 78.6401 66.4195 81.7957C67.6738 81.1171 69.0554 80.7066 70.4767 80.5903C73.0296 80.4482 74.6515 81.732 75.0778 83.8243C75.5946 83.485 76.1869 83.278 76.8026 83.2216C78.1991 83.1481 78.7871 84.2996 78.204 85.848H30.2281C31.5756 83.496 34.6381 81.4478 37.24 81.1832Z" fill="#F5F5F5"/>
<path d="M122.5 209.504C174.97 209.504 217.506 207.021 217.506 203.958C217.506 200.894 174.97 198.411 122.5 198.411C70.0296 198.411 27.4939 200.894 27.4939 203.958C27.4939 207.021 70.0296 209.504 122.5 209.504Z" fill="#F5F5F5"/>
<path d="M39.8321 203.958H54.8947L52.6799 159.358H42.0469L39.8321 203.958Z" fill="#4070FF"/>
<path opacity="0.1" d="M39.8321 203.958H54.8947L52.6799 159.358H42.0469L39.8321 203.958Z" fill="black"/>
<path d="M46.3148 182.741L49.1127 179.943L31.8696 163.528L29.8949 165.498L46.3148 182.741Z" fill="#4070FF"/>
<path opacity="0.1" d="M46.3148 182.741L49.1127 179.943L31.8696 163.528L29.8949 165.498L46.3148 182.741Z" fill="black"/>
<path d="M63.1218 163.523C71.0429 163.523 77.4641 157.692 77.4641 150.499C77.4641 143.306 71.0429 137.474 63.1218 137.474C55.2008 137.474 48.7795 143.306 48.7795 150.499C48.7795 157.692 55.2008 163.523 63.1218 163.523Z" fill="#4070FF"/>
<path d="M50.5876 146.706C56.709 146.706 61.6714 142.2 61.6714 136.641C61.6714 131.083 56.709 126.577 50.5876 126.577C44.4662 126.577 39.5038 131.083 39.5038 136.641C39.5038 142.2 44.4662 146.706 50.5876 146.706Z" fill="#4070FF"/>
<path d="M45.5063 158.584C51.6277 158.584 56.5901 154.078 56.5901 148.519C56.5901 142.96 51.6277 138.454 45.5063 138.454C39.3849 138.454 34.4225 142.96 34.4225 148.519C34.4225 154.078 39.3849 158.584 45.5063 158.584Z" fill="#4070FF"/>
<path d="M36.2796 149.205C42.401 149.205 47.3634 144.699 47.3634 139.14C47.3634 133.582 42.401 129.076 36.2796 129.076C30.1582 129.076 25.1958 133.582 25.1958 139.14C25.1958 144.699 30.1582 149.205 36.2796 149.205Z" fill="#4070FF"/>
<path d="M31.6001 163.067C37.7215 163.067 42.6839 158.561 42.6839 153.003C42.6839 147.444 37.7215 142.938 31.6001 142.938C25.4787 142.938 20.5163 147.444 20.5163 153.003C20.5163 158.561 25.4787 163.067 31.6001 163.067Z" fill="#4070FF"/>
<path d="M35.8729 170.628C41.9943 170.628 46.9567 166.122 46.9567 160.563C46.9567 155.005 41.9943 150.499 35.8729 150.499C29.7515 150.499 24.7891 155.005 24.7891 160.563C24.7891 166.122 29.7515 170.628 35.8729 170.628Z" fill="#4070FF"/>
<path d="M47.3634 168.732C55.7932 168.732 62.6269 162.527 62.6269 154.874C62.6269 147.221 55.7932 141.017 47.3634 141.017C38.9336 141.017 32.0999 147.221 32.0999 154.874C32.0999 162.527 38.9336 168.732 47.3634 168.732Z" fill="#4070FF"/>
<path d="M55.321 173.734C63.7508 173.734 70.5845 167.53 70.5845 159.877C70.5845 152.224 63.7508 146.02 55.321 146.02C46.8912 146.02 40.0575 152.224 40.0575 159.877C40.0575 167.53 46.8912 173.734 55.321 173.734Z" fill="#4070FF"/>
<path d="M22.9173 151.263C27.1092 151.263 30.5074 148.176 30.5074 144.369C30.5074 140.561 27.1092 137.474 22.9173 137.474C18.7254 137.474 15.3272 140.561 15.3272 144.369C15.3272 148.176 18.7254 151.263 22.9173 151.263Z" fill="#4070FF"/>
<path d="M27.3518 146.706C31.5437 146.706 34.9419 143.619 34.9419 139.812C34.9419 136.004 31.5437 132.917 27.3518 132.917C23.1599 132.917 19.7617 136.004 19.7617 139.812C19.7617 143.619 23.1599 146.706 27.3518 146.706Z" fill="#4070FF"/>
<path d="M64.4301 141.777C68.622 141.777 72.0202 138.69 72.0202 134.882C72.0202 131.075 68.622 127.988 64.4301 127.988C60.2382 127.988 56.84 131.075 56.84 134.882C56.84 138.69 60.2382 141.777 64.4301 141.777Z" fill="#4070FF"/>
<g opacity="0.3">
<path opacity="0.3" d="M63.1218 163.523C71.0429 163.523 77.4641 157.692 77.4641 150.499C77.4641 143.306 71.0429 137.474 63.1218 137.474C55.2008 137.474 48.7795 143.306 48.7795 150.499C48.7795 157.692 55.2008 163.523 63.1218 163.523Z" fill="white"/>
<path opacity="0.3" d="M50.5876 146.706C56.709 146.706 61.6714 142.2 61.6714 136.641C61.6714 131.083 56.709 126.577 50.5876 126.577C44.4662 126.577 39.5038 131.083 39.5038 136.641C39.5038 142.2 44.4662 146.706 50.5876 146.706Z" fill="white"/>
<path opacity="0.3" d="M45.5063 158.584C51.6277 158.584 56.5901 154.078 56.5901 148.519C56.5901 142.96 51.6277 138.454 45.5063 138.454C39.3849 138.454 34.4225 142.96 34.4225 148.519C34.4225 154.078 39.3849 158.584 45.5063 158.584Z" fill="white"/>
<path opacity="0.3" d="M36.2796 149.205C42.401 149.205 47.3634 144.699 47.3634 139.14C47.3634 133.582 42.401 129.076 36.2796 129.076C30.1582 129.076 25.1958 133.582 25.1958 139.14C25.1958 144.699 30.1582 149.205 36.2796 149.205Z" fill="white"/>
<path opacity="0.3" d="M31.6001 163.067C37.7215 163.067 42.6839 158.561 42.6839 153.003C42.6839 147.444 37.7215 142.938 31.6001 142.938C25.4787 142.938 20.5163 147.444 20.5163 153.003C20.5163 158.561 25.4787 163.067 31.6001 163.067Z" fill="white"/>
<path opacity="0.3" d="M35.8729 170.628C41.9943 170.628 46.9567 166.122 46.9567 160.563C46.9567 155.005 41.9943 150.499 35.8729 150.499C29.7515 150.499 24.7891 155.005 24.7891 160.563C24.7891 166.122 29.7515 170.628 35.8729 170.628Z" fill="white"/>
<path opacity="0.3" d="M47.3634 168.732C55.7932 168.732 62.6269 162.527 62.6269 154.874C62.6269 147.221 55.7932 141.017 47.3634 141.017C38.9336 141.017 32.0999 147.221 32.0999 154.874C32.0999 162.527 38.9336 168.732 47.3634 168.732Z" fill="white"/>
<path opacity="0.3" d="M55.321 173.734C63.7508 173.734 70.5845 167.53 70.5845 159.877C70.5845 152.224 63.7508 146.02 55.321 146.02C46.8912 146.02 40.0575 152.224 40.0575 159.877C40.0575 167.53 46.8912 173.734 55.321 173.734Z" fill="white"/>
<path opacity="0.3" d="M22.9173 151.263C27.1092 151.263 30.5074 148.176 30.5074 144.369C30.5074 140.561 27.1092 137.474 22.9173 137.474C18.7254 137.474 15.3272 140.561 15.3272 144.369C15.3272 148.176 18.7254 151.263 22.9173 151.263Z" fill="white"/>
<path opacity="0.3" d="M27.3518 146.706C31.5437 146.706 34.9419 143.619 34.9419 139.812C34.9419 136.004 31.5437 132.917 27.3518 132.917C23.1599 132.917 19.7617 136.004 19.7617 139.812C19.7617 143.619 23.1599 146.706 27.3518 146.706Z" fill="white"/>
<path opacity="0.3" d="M64.4301 141.777C68.622 141.777 72.0202 138.69 72.0202 134.882C72.0202 131.075 68.622 127.988 64.4301 127.988C60.2382 127.988 56.84 131.075 56.84 134.882C56.84 138.69 60.2382 141.777 64.4301 141.777Z" fill="white"/>
</g>
<path d="M137.587 198.867C137.587 200.636 137.169 202.38 136.367 203.958H111.784C110.985 202.379 110.568 200.635 110.569 198.867C110.569 197.801 110.719 196.74 111.014 195.716L111.166 195.226C111.762 193.509 112.737 191.948 114.018 190.659C114.219 190.463 114.425 190.267 114.64 190.081C115.955 188.91 117.487 188.01 119.148 187.43C120.283 187.021 121.465 186.759 122.667 186.651C123.135 186.603 123.607 186.58 124.078 186.582C126.438 186.574 128.764 187.142 130.855 188.238C134.882 190.375 137.587 194.334 137.587 198.867Z" fill="#4070FF"/>
<path d="M112.274 195.294C118.038 195.294 122.711 191.049 122.711 185.813C122.711 180.576 118.038 176.331 112.274 176.331C106.51 176.331 101.837 180.576 101.837 185.813C101.837 191.049 106.51 195.294 112.274 195.294Z" fill="#4070FF"/>
<path d="M117.923 196.98C117.911 198.314 117.604 199.63 117.026 200.832C116.448 202.035 115.611 203.095 114.577 203.938H100.396C98.8367 202.657 97.7375 200.902 97.265 198.94C97.1598 198.478 97.0942 198.007 97.069 197.534C97.069 197.367 97.069 197.191 97.069 197.044C97.0766 195.436 97.5221 193.86 98.3577 192.487C99.3238 190.907 100.712 189.629 102.366 188.797C104.482 187.725 106.881 187.341 109.226 187.699C111.227 187.985 113.109 188.823 114.66 190.12C115.137 190.526 115.574 190.977 115.963 191.468C116.596 192.253 117.093 193.139 117.433 194.089C117.507 194.29 117.571 194.491 117.625 194.697C117.827 195.441 117.928 196.209 117.923 196.98Z" fill="#4070FF"/>
<path d="M98.7987 197.651C104.563 197.651 109.236 193.406 109.236 188.17C109.236 182.933 104.563 178.688 98.7987 178.688C93.0345 178.688 88.3617 182.933 88.3617 188.17C88.3617 193.406 93.0345 197.651 98.7987 197.651Z" fill="#4070FF"/>
<path d="M104.86 201.219C104.86 202.15 104.709 203.075 104.414 203.958H84.4221C84.1286 203.074 83.9797 202.149 83.9811 201.219C83.981 200.576 84.0516 199.935 84.1918 199.308C84.6278 197.457 85.6195 195.785 87.0338 194.515C87.8185 193.802 88.7074 193.212 89.67 192.766C90.7912 192.243 91.992 191.912 93.2225 191.786C93.6047 191.752 93.9967 191.727 94.3936 191.727C95.1441 191.727 95.8927 191.802 96.628 191.953C97.2093 192.067 97.7797 192.231 98.3332 192.443C100.473 193.23 102.294 194.699 103.517 196.622C104.231 197.776 104.667 199.079 104.791 200.43C104.791 200.572 104.791 200.719 104.821 200.866C104.85 201.013 104.86 201.101 104.86 201.219Z" fill="#4070FF"/>
<path d="M107.668 203.958H89.18C90.5737 201.618 92.8379 199.927 95.4765 199.254C96.0678 199.096 96.6708 198.986 97.2797 198.925C99.8612 198.658 102.456 199.286 104.63 200.704C104.708 200.758 104.782 200.807 104.855 200.866C106.007 201.679 106.967 202.734 107.668 203.958Z" fill="#4070FF"/>
<path d="M123.607 202.987C123.607 203.316 123.607 203.639 123.568 203.967H94.9032C94.8787 203.649 94.864 203.326 94.864 202.987C94.8634 201.029 95.3447 199.101 96.2654 197.372C96.5146 196.889 96.7979 196.424 97.1131 195.98C97.8707 194.9 98.7857 193.939 99.8277 193.129C100.955 192.241 102.206 191.525 103.542 191.002C105.299 190.314 107.167 189.953 109.054 189.939H109.241C110.862 189.938 112.473 190.187 114.018 190.679C115.746 191.233 117.358 192.098 118.776 193.232C119.494 193.817 120.151 194.473 120.736 195.192C122.572 197.376 123.588 200.134 123.607 202.987Z" fill="#4070FF"/>
<path d="M130.507 203.958H102.964C103.343 202.797 103.894 201.7 104.6 200.704C104.659 200.616 104.728 200.518 104.796 200.43C106.389 198.309 108.542 196.676 111.014 195.716C111.419 195.559 111.836 195.417 112.264 195.289C113.483 194.929 114.742 194.718 116.012 194.662H116.733C117.027 194.662 117.321 194.662 117.605 194.687C118.666 194.74 119.719 194.905 120.746 195.177C125.44 196.392 129.115 199.724 130.507 203.958Z" fill="#4070FF"/>
<path d="M86.2155 199.582C90.1638 199.582 93.3646 196.675 93.3646 193.089C93.3646 189.504 90.1638 186.597 86.2155 186.597C82.2672 186.597 79.0664 189.504 79.0664 193.089C79.0664 196.675 82.2672 199.582 86.2155 199.582Z" fill="#4070FF"/>
<path d="M90.3903 195.294C94.3386 195.294 97.5394 192.388 97.5394 188.802C97.5394 185.216 94.3386 182.309 90.3903 182.309C86.442 182.309 83.2412 185.216 83.2412 188.802C83.2412 192.388 86.442 195.294 90.3903 195.294Z" fill="#4070FF"/>
<path d="M125.313 190.649C129.261 190.649 132.462 187.742 132.462 184.157C132.462 180.571 129.261 177.664 125.313 177.664C121.364 177.664 118.164 180.571 118.164 184.157C118.164 187.742 121.364 190.649 125.313 190.649Z" fill="#4070FF"/>
<g opacity="0.3">
<path opacity="0.3" d="M137.587 198.867C137.587 200.636 137.169 202.38 136.367 203.958H111.784C110.985 202.379 110.568 200.635 110.568 198.867C110.569 197.801 110.719 196.74 111.014 195.716L111.166 195.226C111.762 193.509 112.737 191.948 114.018 190.659C114.219 190.463 114.425 190.267 114.64 190.081C115.955 188.91 117.487 188.01 119.148 187.43C120.283 187.021 121.465 186.759 122.667 186.651C123.135 186.603 123.607 186.58 124.078 186.582C126.438 186.574 128.764 187.142 130.854 188.238C134.882 190.375 137.587 194.334 137.587 198.867Z" fill="white"/>
<path opacity="0.3" d="M112.274 195.294C118.038 195.294 122.711 191.049 122.711 185.813C122.711 180.576 118.038 176.331 112.274 176.331C106.509 176.331 101.837 180.576 101.837 185.813C101.837 191.049 106.509 195.294 112.274 195.294Z" fill="white"/>
<path opacity="0.3" d="M117.923 196.98C117.911 198.314 117.604 199.63 117.026 200.832C116.448 202.035 115.611 203.095 114.577 203.938H100.396C98.8367 202.657 97.7375 200.902 97.265 198.94C97.1598 198.478 97.0942 198.007 97.069 197.534C97.069 197.367 97.069 197.191 97.069 197.044C97.0766 195.436 97.5221 193.86 98.3577 192.487C99.3238 190.907 100.712 189.629 102.366 188.797C104.482 187.725 106.881 187.341 109.226 187.699C111.227 187.985 113.109 188.823 114.66 190.12C115.137 190.526 115.574 190.977 115.963 191.468C116.596 192.253 117.093 193.139 117.433 194.089C117.507 194.29 117.571 194.491 117.624 194.697C117.827 195.441 117.927 196.209 117.923 196.98Z" fill="white"/>
<path opacity="0.3" d="M98.7987 197.651C104.563 197.651 109.236 193.406 109.236 188.17C109.236 182.933 104.563 178.688 98.7987 178.688C93.0345 178.688 88.3617 182.933 88.3617 188.17C88.3617 193.406 93.0345 197.651 98.7987 197.651Z" fill="white"/>
<path opacity="0.3" d="M104.86 201.219C104.86 202.15 104.709 203.075 104.414 203.958H84.4221C84.1286 203.074 83.9796 202.149 83.9811 201.219C83.9809 200.576 84.0516 199.935 84.1918 199.308C84.6277 197.457 85.6195 195.785 87.0338 194.515C87.8184 193.802 88.7074 193.212 89.67 192.766C90.7912 192.243 91.9919 191.912 93.2225 191.786C93.6047 191.752 93.9967 191.727 94.3936 191.727C95.1441 191.727 95.8927 191.802 96.628 191.953C97.2093 192.067 97.7797 192.231 98.3332 192.443C100.473 193.23 102.294 194.699 103.517 196.622C104.231 197.776 104.667 199.079 104.791 200.43C104.791 200.572 104.791 200.719 104.821 200.866C104.85 201.013 104.86 201.101 104.86 201.219Z" fill="white"/>
<path opacity="0.3" d="M107.668 203.958H89.18C90.5737 201.618 92.8379 199.927 95.4765 199.254C96.0678 199.096 96.6708 198.986 97.2797 198.925C99.8612 198.658 102.456 199.286 104.63 200.704C104.708 200.758 104.782 200.807 104.855 200.866C106.007 201.679 106.967 202.734 107.668 203.958Z" fill="white"/>
<path opacity="0.3" d="M123.607 202.987C123.607 203.316 123.607 203.639 123.568 203.967H94.9032C94.8787 203.649 94.864 203.326 94.864 202.987C94.8634 201.029 95.3447 199.101 96.2654 197.372C96.5146 196.889 96.7978 196.424 97.1131 195.98C97.8706 194.9 98.7856 193.939 99.8277 193.129C100.955 192.241 102.206 191.525 103.542 191.002C105.299 190.314 107.167 189.953 109.054 189.939H109.241C110.862 189.938 112.473 190.187 114.018 190.679C115.746 191.233 117.358 192.098 118.776 193.232C119.494 193.817 120.151 194.473 120.736 195.192C122.572 197.376 123.588 200.134 123.607 202.987Z" fill="white"/>
<path opacity="0.3" d="M130.507 203.958H102.964C103.343 202.797 103.894 201.7 104.6 200.704C104.659 200.616 104.728 200.518 104.796 200.43C106.389 198.309 108.542 196.676 111.014 195.716C111.419 195.559 111.836 195.417 112.264 195.289C113.483 194.929 114.742 194.718 116.012 194.662H116.733C117.027 194.662 117.321 194.662 117.605 194.687C118.666 194.74 119.719 194.905 120.746 195.177C125.44 196.392 129.115 199.724 130.507 203.958Z" fill="white"/>
<path opacity="0.3" d="M86.2155 199.582C90.1638 199.582 93.3646 196.675 93.3646 193.089C93.3646 189.504 90.1638 186.597 86.2155 186.597C82.2672 186.597 79.0664 189.504 79.0664 193.089C79.0664 196.675 82.2672 199.582 86.2155 199.582Z" fill="white"/>
<path opacity="0.3" d="M90.3903 195.294C94.3386 195.294 97.5394 192.388 97.5394 188.802C97.5394 185.216 94.3386 182.309 90.3903 182.309C86.442 182.309 83.2412 185.216 83.2412 188.802C83.2412 192.388 86.442 195.294 90.3903 195.294Z" fill="white"/>
<path opacity="0.3" d="M125.313 190.649C129.261 190.649 132.462 187.742 132.462 184.157C132.462 180.571 129.261 177.664 125.313 177.664C121.364 177.664 118.163 180.571 118.163 184.157C118.163 187.742 121.364 190.649 125.313 190.649Z" fill="white"/>
</g>
<path d="M169.481 203.958H189.973L186.959 143.301H172.495L169.481 203.958Z" fill="#4070FF"/>
<path opacity="0.1" d="M169.481 203.958H189.973L186.959 143.301H172.495L169.481 203.958Z" fill="black"/>
<path d="M178.301 175.102L182.109 171.299L158.662 148.97L155.972 151.655L178.301 175.102Z" fill="#4070FF"/>
<path opacity="0.1" d="M178.301 175.102L182.109 171.299L158.662 148.97L155.972 151.655L178.301 175.102Z" fill="black"/>
<path d="M201.16 148.97C211.933 148.97 220.667 141.039 220.667 131.256C220.667 121.473 211.933 113.543 201.16 113.543C190.386 113.543 181.653 121.473 181.653 131.256C181.653 141.039 190.386 148.97 201.16 148.97Z" fill="#4070FF"/>
<path d="M184.113 126.097C192.437 126.097 199.185 119.967 199.185 112.406C199.185 104.845 192.437 98.7154 184.113 98.7154C175.788 98.7154 169.04 104.845 169.04 112.406C169.04 119.967 175.788 126.097 184.113 126.097Z" fill="#4070FF"/>
<path d="M177.204 142.252C185.528 142.252 192.276 136.122 192.276 128.561C192.276 121 185.528 114.871 177.204 114.871C168.879 114.871 162.131 121 162.131 128.561C162.131 136.122 168.879 142.252 177.204 142.252Z" fill="#4070FF"/>
<path d="M164.655 129.502C172.979 129.502 179.727 123.373 179.727 115.812C179.727 108.25 172.979 102.121 164.655 102.121C156.33 102.121 149.582 108.25 149.582 115.812C149.582 123.373 156.33 129.502 164.655 129.502Z" fill="#4070FF"/>
<path d="M158.29 148.348C166.614 148.348 173.362 142.218 173.362 134.657C173.362 127.096 166.614 120.966 158.29 120.966C149.965 120.966 143.217 127.096 143.217 134.657C143.217 142.218 149.965 148.348 158.29 148.348Z" fill="#4070FF"/>
<path d="M164.101 158.638C172.425 158.638 179.173 152.508 179.173 144.947C179.173 137.386 172.425 131.256 164.101 131.256C155.777 131.256 149.029 137.386 149.029 144.947C149.029 152.508 155.777 158.638 164.101 158.638Z" fill="#4070FF"/>
<path d="M179.727 156.06C191.191 156.06 200.484 147.621 200.484 137.21C200.484 126.799 191.191 118.36 179.727 118.36C168.264 118.36 158.971 126.799 158.971 137.21C158.971 147.621 168.264 156.06 179.727 156.06Z" fill="#4070FF"/>
<path d="M190.551 162.861C202.015 162.861 211.308 154.422 211.308 144.011C211.308 133.6 202.015 125.161 190.551 125.161C179.088 125.161 169.795 133.6 169.795 144.011C169.795 154.422 179.088 162.861 190.551 162.861Z" fill="#4070FF"/>
<path d="M146.485 132.29C152.187 132.29 156.81 128.093 156.81 122.917C156.81 117.74 152.187 113.543 146.485 113.543C140.784 113.543 136.161 117.74 136.161 122.917C136.161 128.093 140.784 132.29 146.485 132.29Z" fill="#4070FF"/>
<path d="M152.513 126.097C158.214 126.097 162.837 121.9 162.837 116.723C162.837 111.546 158.214 107.349 152.513 107.349C146.811 107.349 142.188 111.546 142.188 116.723C142.188 121.9 146.811 126.097 152.513 126.097Z" fill="#4070FF"/>
<path d="M202.938 119.393C208.64 119.393 213.263 115.197 213.263 110.02C213.263 104.843 208.64 100.646 202.938 100.646C197.236 100.646 192.614 104.843 192.614 110.02C192.614 115.197 197.236 119.393 202.938 119.393Z" fill="#4070FF"/>
<g opacity="0.3">
<path opacity="0.3" d="M201.16 148.97C211.933 148.97 220.667 141.039 220.667 131.256C220.667 121.473 211.933 113.543 201.16 113.543C190.386 113.543 181.653 121.473 181.653 131.256C181.653 141.039 190.386 148.97 201.16 148.97Z" fill="white"/>
<path opacity="0.3" d="M184.113 126.097C192.437 126.097 199.185 119.967 199.185 112.406C199.185 104.845 192.437 98.7154 184.113 98.7154C175.788 98.7154 169.04 104.845 169.04 112.406C169.04 119.967 175.788 126.097 184.113 126.097Z" fill="white"/>
<path opacity="0.3" d="M177.204 142.252C185.528 142.252 192.276 136.122 192.276 128.561C192.276 121 185.528 114.871 177.204 114.871C168.879 114.871 162.131 121 162.131 128.561C162.131 136.122 168.879 142.252 177.204 142.252Z" fill="white"/>
<path opacity="0.3" d="M164.655 129.502C172.979 129.502 179.727 123.373 179.727 115.812C179.727 108.25 172.979 102.121 164.655 102.121C156.33 102.121 149.582 108.25 149.582 115.812C149.582 123.373 156.33 129.502 164.655 129.502Z" fill="white"/>
<path opacity="0.3" d="M158.29 148.348C166.614 148.348 173.362 142.218 173.362 134.657C173.362 127.096 166.614 120.966 158.29 120.966C149.965 120.966 143.217 127.096 143.217 134.657C143.217 142.218 149.965 148.348 158.29 148.348Z" fill="white"/>
<path opacity="0.3" d="M164.101 158.638C172.425 158.638 179.173 152.508 179.173 144.947C179.173 137.386 172.425 131.256 164.101 131.256C155.777 131.256 149.029 137.386 149.029 144.947C149.029 152.508 155.777 158.638 164.101 158.638Z" fill="white"/>
<path opacity="0.3" d="M179.727 156.06C191.191 156.06 200.484 147.621 200.484 137.21C200.484 126.799 191.191 118.36 179.727 118.36C168.264 118.36 158.971 126.799 158.971 137.21C158.971 147.621 168.264 156.06 179.727 156.06Z" fill="white"/>
<path opacity="0.3" d="M190.551 162.861C202.015 162.861 211.308 154.422 211.308 144.011C211.308 133.6 202.015 125.161 190.551 125.161C179.088 125.161 169.795 133.6 169.795 144.011C169.795 154.422 179.088 162.861 190.551 162.861Z" fill="white"/>
<path opacity="0.3" d="M146.485 132.29C152.187 132.29 156.81 128.093 156.81 122.917C156.81 117.74 152.187 113.543 146.485 113.543C140.784 113.543 136.161 117.74 136.161 122.917C136.161 128.093 140.784 132.29 146.485 132.29Z" fill="white"/>
<path opacity="0.3" d="M152.513 126.097C158.214 126.097 162.837 121.9 162.837 116.723C162.837 111.546 158.214 107.349 152.513 107.349C146.811 107.349 142.188 111.546 142.188 116.723C142.188 121.9 146.811 126.097 152.513 126.097Z" fill="white"/>
<path opacity="0.3" d="M202.938 119.393C208.64 119.393 213.263 115.197 213.263 110.02C213.263 104.843 208.64 100.646 202.938 100.646C197.236 100.646 192.614 104.843 192.614 110.02C192.614 115.197 197.236 119.393 202.938 119.393Z" fill="white"/>
</g>
<path d="M68.1394 65.7923H59.6869V92.5806H68.1394V65.7923Z" fill="#263238"/>
<path d="M82.8345 61.4264L43.9383 100.323H121.726L82.8345 61.4264Z" fill="#263238"/>
<path d="M82.8345 64.729L47.236 100.323H118.428L82.8345 64.729Z" fill="#4070FF"/>
<path opacity="0.1" d="M67.2868 94.2221V96.2948H98.3822V94.2221H67.2868Z" fill="black"/>
<path opacity="0.1" d="M83.1236 75.7001V73.6274H77.4641V75.7001H80.2914V77.7679H85.9509V75.7001H83.1236Z" fill="black"/>
<path d="M114.199 98.1323H51.4647V203.958H114.199V98.1323Z" fill="#4070FF"/>
<path d="M115.42 202.625H50.2446V203.958H115.42V202.625Z" fill="#4070FF"/>
<path d="M50.6219 121.255V151.194H49.8232V152.777H51.4647V151.194V121.255H50.6219Z" fill="#4070FF"/>
<path d="M115.042 121.255V151.194H115.841V152.777H114.199V151.194V121.255H115.042Z" fill="#4070FF"/>
<path d="M49.7742 101.783H115.89L115.111 112.279H50.5533L49.7742 101.783Z" fill="#4070FF"/>
<path opacity="0.1" d="M114.199 100.323H51.4647V101.783H114.199V100.323Z" fill="black"/>
<path opacity="0.1" d="M114.199 112.19H51.4647V113.651H114.199V112.19Z" fill="black"/>
<path opacity="0.4" d="M82.8345 80.8745C79.2932 80.8745 75.897 82.2813 73.3929 84.7854C70.8888 87.2894 69.482 90.6857 69.482 94.227H96.1821C96.1821 90.6865 94.776 87.291 92.273 84.7871C89.77 82.2831 86.375 80.8758 82.8345 80.8745Z" fill="white"/>
<path opacity="0.3" d="M84.7259 84.1085C82.0432 84.1098 79.4707 85.1764 77.5742 87.0739C75.6777 88.9713 74.6123 91.5443 74.6123 94.227H94.8395C94.8395 91.5443 93.7741 88.9713 91.8776 87.0739C89.9811 85.1764 87.4086 84.1098 84.7259 84.1085Z" fill="#4070FF"/>
<path opacity="0.1" d="M53.5423 103.836H52.7877V110.226H53.5423V103.836Z" fill="black"/>
<path opacity="0.1" d="M57.2516 103.836H56.497V110.226H57.2516V103.836Z" fill="black"/>
<path opacity="0.1" d="M60.9609 103.836H60.2063V110.226H60.9609V103.836Z" fill="black"/>
<path opacity="0.1" d="M64.6702 103.836H63.9156V110.226H64.6702V103.836Z" fill="black"/>
<path opacity="0.1" d="M68.3746 103.836H67.62V110.226H68.3746V103.836Z" fill="black"/>
<path opacity="0.1" d="M72.0839 103.836H71.3293V110.226H72.0839V103.836Z" fill="black"/>
<path opacity="0.1" d="M75.7932 103.836H75.0386V110.226H75.7932V103.836Z" fill="black"/>
<path opacity="0.1" d="M79.5025 103.836H78.7479V110.226H79.5025V103.836Z" fill="black"/>
<path opacity="0.1" d="M83.2069 103.836H82.4523V110.226H83.2069V103.836Z" fill="black"/>
<path opacity="0.1" d="M86.9162 103.836H86.1616V110.226H86.9162V103.836Z" fill="black"/>
<path opacity="0.1" d="M90.6255 103.836H89.8709V110.226H90.6255V103.836Z" fill="black"/>
<path opacity="0.1" d="M94.3348 103.836H93.5802V110.226H94.3348V103.836Z" fill="black"/>
<path opacity="0.1" d="M98.0441 103.836H97.2895V110.226H98.0441V103.836Z" fill="black"/>
<path opacity="0.1" d="M101.749 103.836H100.994V110.226H101.749V103.836Z" fill="black"/>
<path opacity="0.1" d="M105.458 103.836H104.703V110.226H105.458V103.836Z" fill="black"/>
<path opacity="0.1" d="M109.167 103.836H108.413V110.226H109.167V103.836Z" fill="black"/>
<path opacity="0.1" d="M112.876 103.836H112.122V110.226H112.876V103.836Z" fill="black"/>
<path opacity="0.1" d="M54.2724 154.845H53.5374V156.565H54.2724V154.845Z" fill="black"/>
<path opacity="0.1" d="M57.8886 154.845H57.1536V156.565H57.8886V154.845Z" fill="black"/>
<path opacity="0.1" d="M61.5048 154.845H60.7698V156.565H61.5048V154.845Z" fill="black"/>
<path opacity="0.1" d="M65.121 154.845H64.386V156.565H65.121V154.845Z" fill="black"/>
<path opacity="0.1" d="M68.7372 154.845H68.0022V156.565H68.7372V154.845Z" fill="black"/>
<path opacity="0.1" d="M72.3534 154.845H71.6184V156.565H72.3534V154.845Z" fill="black"/>
<path opacity="0.1" d="M75.9696 154.845H75.2346V156.565H75.9696V154.845Z" fill="black"/>
<path opacity="0.1" d="M79.5858 154.845H78.8508V156.565H79.5858V154.845Z" fill="black"/>
<path opacity="0.1" d="M83.1971 154.845H82.4621V156.565H83.1971V154.845Z" fill="black"/>
<path opacity="0.1" d="M86.8133 154.845H86.0783V156.565H86.8133V154.845Z" fill="black"/>
<path opacity="0.1" d="M90.4295 154.845H89.6945V156.565H90.4295V154.845Z" fill="black"/>
<path opacity="0.1" d="M94.0457 154.845H93.3107V156.565H94.0457V154.845Z" fill="black"/>
<path opacity="0.1" d="M97.6619 154.845H96.9269V156.565H97.6619V154.845Z" fill="black"/>
<path opacity="0.1" d="M101.278 154.845H100.543V156.565H101.278V154.845Z" fill="black"/>
<path opacity="0.1" d="M104.894 154.845H104.159V156.565H104.894V154.845Z" fill="black"/>
<path opacity="0.1" d="M108.506 154.845H107.771V156.565H108.506V154.845Z" fill="black"/>
<path opacity="0.1" d="M112.122 154.845H111.387V156.565H112.122V154.845Z" fill="black"/>
<path opacity="0.4" d="M72.1084 151.189V121.251H57.6289V151.189H72.1084Z" fill="white"/>
<path opacity="0.1" d="M57.5211 151.194V152.777H72.1035V151.194H57.5211Z" fill="black"/>
<path opacity="0.4" d="M72.1084 137.136V135.309H57.6289V137.136H72.1084Z" fill="white"/>
<path opacity="0.4" d="M71.0108 122.348H58.7216V150.097H71.0108V122.348Z" fill="white"/>
<path opacity="0.3" d="M70.0896 126.974H60.5836V150.097H70.0896V126.974Z" fill="#4070FF"/>
<path opacity="0.4" d="M101.513 151.194V121.255H87.0338V151.194H101.513Z" fill="white"/>
<path opacity="0.1" d="M80.3698 151.194V152.777H108.177V151.194H80.3698Z" fill="black"/>
<path opacity="0.4" d="M101.513 137.141V135.314H87.0338V137.141H101.513Z" fill="white"/>
<path opacity="0.4" d="M100.416 122.348H88.1265V150.097H100.416V122.348Z" fill="white"/>
<path opacity="0.3" d="M99.4945 126.974H89.9885V150.097H99.4945V126.974Z" fill="#4070FF"/>
<path opacity="0.4" d="M108.177 151.194V121.255H103.454V151.194H108.177Z" fill="white"/>
<path opacity="0.4" d="M108.177 137.136V135.309H103.454V137.136H108.177Z" fill="white"/>
<path opacity="0.4" d="M107.08 122.348H104.546V150.097H107.08V122.348Z" fill="white"/>
<path opacity="0.4" d="M85.0885 151.194V121.255H80.3649V151.194H85.0885Z" fill="white"/>
<path opacity="0.4" d="M85.0885 137.136V135.309H80.3649V137.136H85.0885Z" fill="white"/>
<path opacity="0.4" d="M83.9958 122.348H81.4625V150.097H83.9958V122.348Z" fill="white"/>
<path opacity="0.4" d="M101.513 191.502V161.563H87.0338V191.502H101.513Z" fill="white"/>
<path opacity="0.1" d="M80.3698 191.502V193.084H108.177V191.502H80.3698Z" fill="black"/>
<path opacity="0.4" d="M101.513 177.449V175.621H87.0338V177.449H101.513Z" fill="white"/>
<path opacity="0.4" d="M100.416 162.66H88.1265V190.409H100.416V162.66Z" fill="white"/>
<path opacity="0.3" d="M99.4945 167.286H89.9885V190.409H99.4945V167.286Z" fill="#4070FF"/>
<path opacity="0.4" d="M108.172 191.507V161.568H103.449V191.507H108.172Z" fill="white"/>
<path opacity="0.4" d="M108.172 177.453V175.626H103.449V177.453H108.172Z" fill="white"/>
<path opacity="0.4" d="M107.08 162.66H104.546V190.409H107.08V162.66Z" fill="white"/>
<path opacity="0.4" d="M85.0885 191.507V161.568H80.3649V191.507H85.0885Z" fill="white"/>
<path opacity="0.4" d="M85.0885 177.449V175.621H80.3649V177.449H85.0885Z" fill="white"/>
<path opacity="0.4" d="M83.9958 162.66H81.4625V190.409H83.9958V162.66Z" fill="white"/>
<path opacity="0.1" d="M77.2779 201.292V198.626H55.5954V201.292H54.2136V203.958H78.6597V201.292H77.2779Z" fill="black"/>
<path opacity="0.4" d="M66.4391 161.568C68.9707 161.568 71.3985 162.573 73.1886 164.363C74.9787 166.153 75.9843 168.581 75.9843 171.113V198.626H56.8743V171.113C56.8743 169.858 57.1219 168.615 57.6028 167.456C58.0837 166.296 58.7885 165.243 59.677 164.356C60.5654 163.47 61.62 162.767 62.7803 162.289C63.9407 161.81 65.184 161.565 66.4391 161.568Z" fill="white"/>
<path opacity="0.5" d="M74.0929 172.005H58.7755V198.626H74.0929V172.005Z" fill="#4070FF"/>
<path opacity="0.5" d="M66.4391 163.425C65.673 163.424 64.9142 163.575 64.2062 163.867C63.4982 164.16 62.8548 164.589 62.3128 165.131C61.7708 165.672 61.3409 166.315 61.0475 167.023C60.7542 167.731 60.6032 168.49 60.6032 169.256H72.2701C72.2701 168.49 72.1193 167.732 71.8263 167.024C71.5332 166.317 71.1037 165.674 70.5623 165.133C70.0208 164.591 69.378 164.162 68.6705 163.869C67.9631 163.576 67.2048 163.425 66.4391 163.425Z" fill="#4070FF"/>
<path d="M73.2354 185.313C73.2354 185.507 73.1779 185.696 73.0703 185.858C72.9626 186.019 72.8095 186.144 72.6305 186.218C72.4514 186.293 72.2543 186.312 72.0642 186.274C71.8741 186.236 71.6995 186.143 71.5625 186.006C71.4254 185.869 71.3321 185.694 71.2943 185.504C71.2564 185.314 71.2758 185.117 71.35 184.938C71.4242 184.759 71.5498 184.606 71.711 184.498C71.8721 184.391 72.0616 184.333 72.2554 184.333C72.5153 184.333 72.7646 184.436 72.9484 184.62C73.1322 184.804 73.2354 185.053 73.2354 185.313Z" fill="#4070FF"/>
<path opacity="0.1" d="M64.288 117.722V119.795H69.9475V117.722H64.288Z" fill="black"/>
<path opacity="0.1" d="M90.8509 114.846V116.919H96.5104V114.846H90.8509Z" fill="black"/>
<path opacity="0.1" d="M104.87 197.754V195.686H99.2103V197.754H102.038V199.827H107.697V197.754H104.87Z" fill="black"/>
<path d="M188.302 77.322H126.518V203.958H188.302V77.322Z" fill="#4070FF"/>
<path d="M135.289 62.0144C135.231 62.0138 135.173 62.0247 135.119 62.0466C135.065 62.0684 135.015 62.1008 134.974 62.1418C134.933 62.1828 134.9 62.2317 134.877 62.2855C134.855 62.3393 134.843 62.3971 134.843 62.4554V75.2836H135.73V62.4554C135.73 62.3384 135.684 62.2263 135.601 62.1436C135.518 62.0609 135.406 62.0144 135.289 62.0144Z" fill="#263238"/>
<path d="M179.242 71.1529C179.125 71.1529 179.013 71.1994 178.93 71.2821C178.847 71.3648 178.801 71.4769 178.801 71.5939V75.2836H179.688V71.5939C179.688 71.5356 179.676 71.4778 179.654 71.424C179.631 71.3702 179.598 71.3213 179.557 71.2803C179.516 71.2393 179.466 71.2069 179.412 71.1851C179.358 71.1632 179.3 71.1523 179.242 71.1529Z" fill="#263238"/>
<path d="M142.664 65.3611H141.777V75.2836H142.664V65.3611Z" fill="#263238"/>
<path d="M149.112 62.9013C150.41 66.4685 149.494 70.0798 147.064 70.9618C144.633 71.8438 141.61 69.6731 140.312 66.101C139.013 62.5289 139.934 58.9274 142.365 58.0454C144.795 57.1634 147.818 59.3341 149.112 62.9013Z" fill="#263238"/>
<path d="M188.302 142.629L210.646 157.618V203.958H188.302V142.629Z" fill="#4070FF"/>
<path opacity="0.1" d="M188.302 142.629L210.646 157.618V203.958H188.302V142.629Z" fill="black"/>
<path opacity="0.1" d="M205.339 190.718V188.469H199.2V190.718H202.272V192.967H208.407V190.718H205.339Z" fill="black"/>
<path d="M212.743 159.902L188.302 143.408V140.899L212.743 157.398V159.902Z" fill="#263238"/>
<path opacity="0.4" d="M206.78 181.638V161.881H191.624V181.638H206.78Z" fill="white"/>
<path opacity="0.4" d="M206.78 172.362V171.157H191.624V172.362H206.78Z" fill="white"/>
<path opacity="0.4" d="M206.123 162.607H192.276V180.918H206.123V162.607Z" fill="white"/>
<path opacity="0.3" d="M205.57 165.659H193.388V180.918H205.57V165.659Z" fill="#4070FF"/>
<path d="M188.302 77.322H126.518L125.675 75.9794H189.145L188.302 77.322Z" fill="#4070FF"/>
<path opacity="0.2" d="M188.302 77.322H126.518L125.675 75.9794H189.145L188.302 77.322Z" fill="black"/>
<path d="M189.507 75.9794H125.313L124.44 74.5829H190.38L189.507 75.9794Z" fill="#263238"/>
<path opacity="0.2" d="M133.75 80.6442H128.488V93.3156H133.75V80.6442Z" fill="black"/>
<path opacity="0.4" d="M132.971 82.5209H129.267V91.4487H132.971V82.5209Z" fill="#4070FF"/>
<path opacity="0.2" d="M186.332 80.6442H181.07V93.3156H186.332V80.6442Z" fill="black"/>
<path opacity="0.4" d="M185.548 82.5209H181.844V91.4487H185.548V82.5209Z" fill="#4070FF"/>
<path opacity="0.2" d="M178.801 80.6442H170.461V93.3156H178.801V80.6442Z" fill="black"/>
<path opacity="0.4" d="M177.571 82.5209H171.696V91.4487H177.571V82.5209Z" fill="#4070FF"/>
<path opacity="0.2" d="M144.359 80.6442H136.019V93.3156H144.359V80.6442Z" fill="black"/>
<path opacity="0.4" d="M143.129 82.5209H137.254V91.4487H143.129V82.5209Z" fill="#4070FF"/>
<path opacity="0.2" d="M167.957 80.6442H146.868V93.3156H167.957V80.6442Z" fill="black"/>
<path opacity="0.4" d="M164.836 82.5209H149.984V91.4487H164.836V82.5209Z" fill="#4070FF"/>
<path opacity="0.4" d="M154.722 139.954V104.12H139.013V139.954H154.722Z" fill="white"/>
<path opacity="0.1" d="M131.785 139.949V140.899H161.95V139.949H131.785Z" fill="black"/>
<path opacity="0.4" d="M154.722 123.132V120.947H139.013V123.132H154.722Z" fill="white"/>
<path opacity="0.4" d="M153.532 105.428H140.199V138.641H153.532V105.428Z" fill="white"/>
<path opacity="0.3" d="M152.527 110.965H142.218V138.641H152.527V110.965Z" fill="#4070FF"/>
<path opacity="0.4" d="M161.945 139.949V104.115H156.825V139.949H161.945Z" fill="white"/>
<path opacity="0.4" d="M161.945 123.127V120.942H156.825V123.127H161.945Z" fill="white"/>
<path opacity="0.4" d="M160.759 105.428H158.015V138.641H160.759V105.428Z" fill="white"/>
<path opacity="0.4" d="M136.906 139.954V104.12H131.786V139.954H136.906Z" fill="white"/>
<path opacity="0.4" d="M136.906 123.127V120.942H131.786V123.127H136.906Z" fill="white"/>
<path opacity="0.4" d="M135.715 105.428H132.971V138.641H135.715V105.428Z" fill="white"/>
<path opacity="0.4" d="M154.722 184.568V148.735H139.013V184.568H154.722Z" fill="white"/>
<path opacity="0.1" d="M131.781 184.568V185.519H161.945V184.568H131.781Z" fill="black"/>
<path opacity="0.4" d="M154.722 167.747V165.561H139.013V167.747H154.722Z" fill="white"/>
<path opacity="0.4" d="M153.532 150.048H140.199V183.26H153.532V150.048Z" fill="white"/>
<path opacity="0.3" d="M152.527 155.585H142.218V183.26H152.527V155.585Z" fill="#4070FF"/>
<path opacity="0.4" d="M161.95 184.568V148.735H156.829V184.568H161.95Z" fill="white"/>
<path opacity="0.4" d="M161.95 167.747V165.561H156.829V167.747H161.95Z" fill="white"/>
<path opacity="0.4" d="M160.759 150.048H158.015V183.26H160.759V150.048Z" fill="white"/>
<path opacity="0.4" d="M136.906 184.573V148.74H131.786V184.573H136.906Z" fill="white"/>
<path opacity="0.4" d="M136.906 167.747V165.561H131.786V167.747H136.906Z" fill="white"/>
<path opacity="0.4" d="M135.715 150.048H132.971V183.26H135.715V150.048Z" fill="white"/>
<path opacity="0.4" d="M183.662 139.954V104.12H167.952V139.954H183.662Z" fill="white"/>
<path opacity="0.1" d="M167.957 139.954V140.904H183.667V139.954H167.957Z" fill="black"/>
<path opacity="0.4" d="M183.662 123.127V120.942H167.952V123.127H183.662Z" fill="white"/>
<path opacity="0.4" d="M182.476 105.428H169.143V138.641H182.476V105.428Z" fill="white"/>
<path opacity="0.3" d="M181.472 110.965H171.162V138.641H181.472V110.965Z" fill="#4070FF"/>
<path opacity="0.1" d="M140.983 98.7203V96.4712H134.843V98.7203H137.915V100.965H144.05V98.7203H140.983Z" fill="black"/>
<path opacity="0.1" d="M170.677 146.49V144.241H164.537V146.49H167.609V148.739H173.744V146.49H170.677Z" fill="black"/>
<path opacity="0.1" d="M157.692 95.3442V97.5933H163.832V95.3442H157.692Z" fill="black"/>
<path opacity="0.1" d="M133.839 190.277V192.526H139.978V190.277H133.839Z" fill="black"/>
<path opacity="0.1" d="M148.583 196.715V198.964H154.722V196.715H148.583Z" fill="black"/>
<path opacity="0.1" d="M190.982 154.899V157.148H197.122V154.899H190.982Z" fill="black"/>
<path opacity="0.1" d="M185.602 199.66V195.363H184.848V191.066H166.066V195.363H165.311V199.66H164.419V203.958H186.494V199.66H185.602Z" fill="black"/>
<path opacity="0.1" d="M184.848 191.066V153.718H166.061V191.066H184.848Z" fill="#263238"/>
<path opacity="0.3" d="M183.667 154.904H167.257V191.061H183.667V154.904Z" fill="#263238"/>
<g opacity="0.6">
<path opacity="0.6" d="M175.008 158.76H170.001V163.768H175.008V158.76Z" fill="#4070FF"/>
<path opacity="0.6" d="M180.918 158.76H175.91V163.768H180.918V158.76Z" fill="#4070FF"/>
<path opacity="0.6" d="M175.008 164.694H170.001V169.702H175.008V164.694Z" fill="#4070FF"/>
<path opacity="0.6" d="M180.918 164.694H175.91V169.702H180.918V164.694Z" fill="#4070FF"/>
</g>
<path d="M181.28 175.606C181.86 175.606 182.329 175.137 182.329 174.558C182.329 173.978 181.86 173.509 181.28 173.509C180.701 173.509 180.232 173.978 180.232 174.558C180.232 175.137 180.701 175.606 181.28 175.606Z" fill="#4070FF"/>
</svg>
