<svg width="272" height="204" viewBox="0 0 272 204" fill="none" xmlns="http://www.w3.org/2000/svg">
<g clip-path="url(#clip0)">
<path d="M271.218 178.526H0.0433655V178.635H271.218V178.526Z" fill="#EBEBEB"/>
<path d="M244.046 187.258H235.965V187.366H244.046V187.258Z" fill="#EBEBEB"/>
<path d="M179.669 188.777H174.951V188.885H179.669V188.777Z" fill="#EBEBEB"/>
<path d="M233.687 182.268H215.139V182.377H233.687V182.268Z" fill="#EBEBEB"/>
<path d="M59.4848 185.034H36.0554V185.143H59.4848V185.034Z" fill="#EBEBEB"/>
<path d="M72.7724 185.034H64.3118V185.143H72.7724V185.034Z" fill="#EBEBEB"/>
<path d="M138.234 183.245H87.4158V183.353H138.234V183.245Z" fill="#EBEBEB"/>
<path d="M128.58 154.337H23.8525C22.1712 154.337 20.7611 152.927 20.7611 151.246V4.05233C20.7611 2.37105 22.1712 0.960938 23.8525 0.960938H128.58C130.261 0.960938 131.672 2.37105 131.672 4.05233V151.246C131.672 152.981 130.316 154.337 128.58 154.337ZM23.8525 1.06941C22.2255 1.06941 20.8696 2.37105 20.8696 4.05233V151.246C20.8696 152.873 22.1712 154.229 23.8525 154.229H128.58C130.207 154.229 131.563 152.927 131.563 151.246V4.05233C131.563 2.42528 130.261 1.06941 128.58 1.06941H23.8525Z" fill="#EBEBEB"/>
<path d="M245.89 154.337H141.163C139.481 154.337 138.071 152.927 138.071 151.246V4.05233C138.071 2.37105 139.481 0.960938 141.163 0.960938H245.89C247.572 0.960938 248.982 2.37105 248.982 4.05233V151.246C248.982 152.981 247.626 154.337 245.89 154.337ZM141.163 1.06941C139.536 1.06941 138.18 2.37105 138.18 4.05233V151.246C138.18 152.873 139.481 154.229 141.163 154.229H245.89C247.517 154.229 248.873 152.927 248.873 151.246V4.05233C248.873 2.42528 247.572 1.06941 245.89 1.06941H141.163Z" fill="#EBEBEB"/>
<path d="M120.174 174.617H124.458V145.276H120.174V174.617Z" fill="#F0F0F0"/>
<path d="M33.4984 178.575H121.63V174.616H33.4984V178.575Z" fill="#F0F0F0"/>
<path d="M120.174 145.226H30.6861V174.567H120.174V145.226Z" fill="#F5F5F5"/>
<path d="M114.425 150.378H36.4893V167.137H114.425V150.378Z" fill="#F0F0F0"/>
<path d="M56.4477 152.602H94.3579C95.063 152.602 95.6596 152.005 95.6596 151.3V151.083C95.6596 150.378 95.063 149.781 94.3579 149.781H56.4477C55.7427 149.781 55.1461 150.378 55.1461 151.083V151.3C55.2003 152.005 55.7427 152.602 56.4477 152.602Z" fill="#F5F5F5"/>
<path d="M28.7175 145.259H120.158V142.656H28.7175V145.259Z" fill="#F0F0F0"/>
<path d="M126.519 142.623H120.174V145.226H126.519V142.623Z" fill="#E6E6E6"/>
<path d="M116.903 103.928L231.556 103.928V15.9594L116.903 15.9594L116.903 103.928Z" fill="#E6E6E6"/>
<path d="M106.181 12.5669H238.081C238.623 12.5669 239.057 13.0008 239.057 13.5431C239.057 14.0855 238.623 14.5194 238.081 14.5194H106.181C105.639 14.5194 105.205 14.0855 105.205 13.5431C105.151 13.0008 105.639 12.5669 106.181 12.5669Z" fill="#E6E6E6"/>
<path d="M112.673 103.928L229.603 103.928V15.9594L112.673 15.9594L112.673 103.928Z" fill="#F0F0F0"/>
<path d="M116.92 103.953H231.572V106.719H113.991L116.92 103.953Z" fill="#E6E6E6"/>
<path d="M105.585 103.953H222.515L219.586 106.719H102.656L105.585 103.953Z" fill="#F0F0F0"/>
<path d="M223.661 97.9561V21.9187L118.608 21.9187L118.608 97.9561L223.661 97.9561Z" fill="#FAFAFA"/>
<path d="M188.564 97.9871L153.637 21.9497H137.149L172.077 97.9871H188.564Z" fill="white"/>
<path d="M168.551 97.9871L133.624 21.9497H127.224L162.152 97.9871H168.551Z" fill="white"/>
<path d="M119.349 97.9741L119.349 21.9368H118.589L118.589 97.9741H119.349Z" fill="#E6E6E6"/>
<g opacity="0.4">
<path opacity="0.4" d="M223.577 83.3638H233.828V10.7974H223.577V83.3638Z" fill="#F0F0F0"/>
<path opacity="0.4" d="M219.573 83.3638H227.545V10.7974H219.573V83.3638Z" fill="#E6E6E6"/>
<path opacity="0.4" d="M213.29 83.3638H223.54V10.7974H213.29V83.3638Z" fill="#F0F0F0"/>
<path opacity="0.4" d="M209.339 83.3638H217.312V10.7974H209.339V83.3638Z" fill="#E6E6E6"/>
<path opacity="0.4" d="M203.057 83.3638H213.307V10.7974H203.057V83.3638Z" fill="#F0F0F0"/>
</g>
<g opacity="0.4">
<path opacity="0.4" d="M122.423 83.3638H128.334V10.7974H122.423L122.423 83.3638Z" fill="#F0F0F0"/>
<path opacity="0.4" d="M120.1 83.3638H124.71L124.71 10.7974H120.1L120.1 83.3638Z" fill="#E6E6E6"/>
<path opacity="0.4" d="M116.53 83.3638H122.442L122.442 10.7974H116.53L116.53 83.3638Z" fill="#F0F0F0"/>
<path opacity="0.4" d="M114.208 83.3638H118.818L118.818 10.7974H114.208L114.208 83.3638Z" fill="#E6E6E6"/>
<path opacity="0.4" d="M110.584 83.3638H116.495L116.495 10.7974H110.584L110.584 83.3638Z" fill="#F0F0F0"/>
</g>
<path d="M85.3007 10.8311H38.1705V131.233H85.3007V10.8311Z" fill="#F5F5F5"/>
<path d="M85.2932 131.205H86.5948L86.5948 10.8035H85.2932L85.2932 131.205Z" fill="#E0E0E0"/>
<path d="M80.9302 126.844L80.9302 15.1741L42.5319 15.1741L42.5319 126.844H80.9302Z" fill="white"/>
<path d="M56.0681 126.84L68.8133 15.1704H76.135L63.444 126.84H56.0681Z" fill="#FAFAFA"/>
<path d="M49.7226 126.84L62.4136 15.1704H66.1015L53.3563 126.84H49.7226Z" fill="#FAFAFA"/>
<path d="M135.631 203.04C193.71 203.04 240.792 200.296 240.792 196.912C240.792 193.527 193.71 190.783 135.631 190.783C77.5516 190.783 30.4692 193.527 30.4692 196.912C30.4692 200.296 77.5516 203.04 135.631 203.04Z" fill="#F5F5F5"/>
<path d="M215.898 196.912H152.552C148.756 196.912 145.881 193.82 146.152 190.078L154.993 56.0636C155.264 52.2671 158.518 49.23 162.314 49.23H225.661C229.457 49.23 232.332 52.3214 232.06 56.0636L223.22 190.078C223.003 193.82 219.695 196.912 215.898 196.912Z" fill="#263238"/>
<path d="M229.24 85.242H221.593C220.671 85.242 219.966 84.4827 220.075 83.5608L220.834 71.9545C220.888 71.0325 221.702 70.2732 222.624 70.2732H230.271C231.193 70.2732 231.898 71.0325 231.789 71.9545L231.03 83.5608C230.976 84.4827 230.162 85.242 229.24 85.242Z" fill="#263238"/>
<path d="M178.91 47.2776H176.09V47.8199H178.91V47.2776Z" fill="#407BFF"/>
<path d="M172.619 47.2776H162.423V47.8199H172.619V47.2776Z" fill="#407BFF"/>
<path d="M214.976 196.912H151.63C147.834 196.912 144.959 193.82 145.23 190.078L154.071 56.0636C154.342 52.2671 157.596 49.23 161.392 49.23H224.739C228.535 49.23 231.41 52.3214 231.138 56.0636L222.298 190.078C222.027 193.82 218.719 196.912 214.976 196.912Z" fill="#407BFF"/>
<path d="M217.851 181.292H150.817C148.647 181.292 147.02 179.557 147.183 177.387L154.884 60.7279C155.047 58.5585 156.891 56.823 159.06 56.823H226.095C228.264 56.823 229.891 58.5585 229.728 60.7279L222.027 177.387C221.864 179.557 219.966 181.292 217.851 181.292Z" fill="white"/>
<path d="M205.323 56.823H192.035L159.765 181.292H173.107L205.323 56.823Z" fill="#FAFAFA"/>
<path d="M217.037 56.823H210.421L178.151 181.292H184.822L217.037 56.823Z" fill="#FAFAFA"/>
<path d="M208.197 142.731L193.716 88.0079C192.903 84.9708 189.811 83.181 186.774 83.9403L152.552 92.9975L147.996 164.533L204.184 149.673C207.221 148.86 209.011 145.768 208.197 142.731Z" fill="#F0F0F0"/>
<path opacity="0.2" d="M186.752 190.555C188.496 188.868 188.626 186.174 187.043 184.538C185.461 182.902 182.764 182.943 181.02 184.63C179.277 186.317 179.146 189.011 180.729 190.647C182.312 192.283 185.008 192.242 186.752 190.555Z" fill="white"/>
<path opacity="0.2" d="M194.53 52.8095C194.476 53.7857 193.608 54.545 192.686 54.545C191.71 54.545 191.005 53.7857 191.059 52.8095C191.113 51.8333 191.981 51.074 192.903 51.074C193.879 51.074 194.584 51.8333 194.53 52.8095Z" fill="white"/>
<path opacity="0.2" d="M193.771 52.8097C193.716 53.3521 193.282 53.786 192.74 53.786C192.198 53.786 191.818 53.3521 191.818 52.8097C191.872 52.2674 192.306 51.8335 192.849 51.8335C193.391 51.8335 193.771 52.2674 193.771 52.8097Z" fill="white"/>
<path d="M91.8631 46.0303C93.8698 41.0407 93.1648 35.0206 87.4159 33.6647C81.6669 32.3088 76.7316 36.7019 77.0027 42.1254C77.2739 47.5488 80.7992 52.0503 74.5622 56.0095C68.2709 59.9144 68.976 71.7919 81.0704 69.514C93.1647 67.2361 86.6023 60.9991 86.6023 60.9991C86.6023 60.9991 83.6194 63.4397 82.6974 60.9449C81.45 57.745 89.531 51.8334 91.8631 46.0303Z" fill="#263238"/>
<path d="M70.6031 62.3551L70.3319 62.3009C71.1454 58.6671 72.3928 57.7451 73.7487 56.7689C75.0503 55.8469 76.352 54.8707 77.3824 51.2912C77.8705 49.6099 77.5451 47.7659 77.2739 45.9761C76.8943 43.6983 76.5147 41.3119 77.6536 39.1968L77.8705 39.3052C76.7316 41.3119 77.1112 43.644 77.4909 45.8677C77.8163 47.7117 78.0875 49.5557 77.5994 51.2912C76.5689 54.9249 75.1588 55.9554 73.8571 56.9316C72.6097 57.9078 71.3623 58.8298 70.6031 62.3551Z" fill="#263238"/>
<path d="M107.266 73.3645C107.32 73.5272 107.374 73.8526 107.429 74.0696L107.591 74.8288C107.7 75.317 107.862 75.8593 108.025 76.3474C108.351 77.3779 108.676 78.4083 109.001 79.4388C109.706 81.4997 110.52 83.5064 111.442 85.4589L112.147 86.869C112.255 87.1402 112.418 87.3571 112.635 87.5741C113.069 88.0079 113.828 88.3333 114.75 88.496C116.54 88.8757 118.818 88.7672 120.879 88.4418L121.638 90.7197C121.042 90.9909 120.499 91.2078 119.903 91.3705C119.306 91.5332 118.764 91.7501 118.113 91.8586C116.92 92.1298 115.672 92.2925 114.316 92.184C112.961 92.1298 111.496 91.8044 110.086 90.8824C109.381 90.3943 108.784 89.7434 108.351 89.0384L108.242 88.9299L108.188 88.8215L108.079 88.6045L107.862 88.2249L107.429 87.4656C106.29 85.4047 105.313 83.2353 104.446 81.0659C104.012 79.9812 103.632 78.8422 103.307 77.7033C103.144 77.1067 102.981 76.5644 102.819 75.9678C102.656 75.3712 102.547 74.8288 102.439 74.1238L107.266 73.3645Z" fill="#FFC3BD"/>
<path d="M103.09 65.7718C108.567 68.2123 108.513 76.4018 108.513 76.4018L102.764 79.8729C102.764 79.8729 98.4255 73.4731 98.751 70.5445C99.0764 67.5073 99.9984 64.4159 103.09 65.7718Z" fill="#407BFF"/>
<path opacity="0.2" d="M103.958 72.7682C102.439 71.2496 101.137 72.9851 99.9441 74.9376C101.137 77.4866 102.764 79.873 102.764 79.873L105.151 78.4629C105.585 76.6731 105.422 74.2868 103.958 72.7682Z" fill="black"/>
<path d="M120.336 88.7129L124.187 86.8147L124.241 91.8585C124.241 91.8585 121.367 92.3467 119.469 90.34L120.336 88.7129Z" fill="#FFC3BD"/>
<path d="M128.309 87.6825L127.658 91.4247L124.241 91.8585L124.187 86.8147L128.309 87.6825Z" fill="#FFC3BD"/>
<path d="M85.0838 192.899L89.8564 193.333L92.0801 182.269L87.3074 181.835L85.0838 192.899Z" fill="#FFC3BD"/>
<path d="M53.8445 179.936L57.7494 182.757L64.2033 173.591L60.2984 170.771L53.8445 179.936Z" fill="#FFC3BD"/>
<path d="M59.1595 180.967L55.9596 176.574C55.8511 176.411 55.6342 176.357 55.4715 176.465L51.675 178.472C51.2954 178.689 51.1869 179.231 51.4581 179.611C52.597 181.129 53.2479 181.78 54.6037 183.733C55.4715 184.926 57.207 187.638 58.4002 189.265C59.5933 190.837 61.2746 189.807 60.895 188.993C59.3222 185.468 59.2679 183.407 59.3764 181.726C59.3764 181.509 59.3222 181.184 59.1595 180.967Z" fill="#263238"/>
<path d="M90.5073 191.922H84.8126C84.5957 191.922 84.433 192.085 84.3787 192.248L83.1313 196.749C83.0228 197.237 83.3483 197.671 83.8364 197.671C85.8431 197.671 86.8193 197.671 89.3141 197.671C90.8869 197.671 94.8461 197.671 97.0155 197.671C99.1306 197.671 99.5645 195.556 98.6967 195.393C94.8461 194.525 92.5682 193.332 91.375 192.248C91.0496 192.031 90.7784 191.922 90.5073 191.922Z" fill="#263238"/>
<path opacity="0.2" d="M92.08 182.269L90.9411 188.018H86.06L87.3074 181.835L92.08 182.269Z" fill="black"/>
<path opacity="0.2" d="M60.2984 170.771L64.2033 173.591L60.8407 178.309L56.9901 175.489L60.2984 170.771Z" fill="black"/>
<path d="M105.368 70.1105C105.042 73.7443 103.795 80.9575 100.27 95.0044L80.7992 93.3231C81.7212 86.0014 82.1551 81.2829 80.3653 67.3988C80.0941 65.4463 81.5585 63.7108 83.5109 63.6023C84.921 63.5481 86.6023 63.4939 88.2836 63.5481C91.5919 63.6566 94.2495 63.8193 97.1239 64.3074C98.8594 64.6328 100.649 65.0667 102.168 65.4463C104.174 65.9887 105.53 67.9411 105.368 70.1105Z" fill="#407BFF"/>
<path opacity="0.2" d="M80.7992 71.4664C81.0704 73.6358 81.2331 75.5883 81.3415 77.3238C83.1313 77.1611 84.4329 75.2086 84.5956 71.0868C83.8906 69.0258 82.3178 69.7851 80.7992 71.4664Z" fill="black"/>
<path d="M100.215 95.0045C100.215 95.0045 106.832 124.183 102.385 144.738C99.456 158.514 92.8936 186.336 92.8936 186.336L84.5956 186.119C84.5956 186.119 88.5548 156.887 90.2361 145.443C93.0563 125.81 85.9515 93.7571 85.9515 93.7571L100.215 95.0045Z" fill="#263238"/>
<path opacity="0.2" d="M92.6224 100.862L88.4463 107.424C89.531 114.204 90.5615 122.719 90.8327 130.908C96.69 120.441 93.924 106.394 92.6224 100.862Z" fill="black"/>
<path d="M94.0867 186.77L83.8363 186.499L84.4329 183.353L94.9003 183.841L94.0867 186.77Z" fill="#407BFF"/>
<path d="M95.985 94.6789C95.985 94.6789 92.1343 125.647 83.7279 142.514C76.9485 156.181 62.7932 177.821 62.7932 177.821L57.6409 173.645C57.6409 173.645 66.4812 149.673 71.525 140.616C83.8906 118.38 73.8029 101.458 80.7992 93.2688L95.985 94.6789Z" fill="#263238"/>
<path d="M203.424 129.823L111.225 168.547C108.351 169.74 104.988 168.384 103.795 165.51L81.8839 113.336C80.6907 110.461 82.0466 107.099 84.9211 105.906L177.12 67.1819C179.995 65.9887 183.357 67.3446 184.551 70.2191L206.462 122.393C207.655 125.268 206.299 128.576 203.424 129.823Z" fill="#407BFF"/>
<path opacity="0.1" d="M203.424 129.823L111.225 168.547C108.351 169.74 104.988 168.384 103.795 165.51L81.8839 113.336C80.6907 110.461 82.0466 107.099 84.9211 105.906L177.12 67.1819C179.995 65.9887 183.357 67.3446 184.551 70.2191L206.462 122.393C207.655 125.268 206.299 128.576 203.424 129.823Z" fill="black"/>
<path opacity="0.2" d="M116.269 117.675L98.2086 125.267C96.7985 125.864 95.2257 125.213 94.6291 123.803L90.8327 114.746C90.2361 113.336 90.8869 111.763 92.297 111.166L110.357 103.573C111.767 102.977 113.34 103.628 113.937 105.038L117.733 114.095C118.276 115.451 117.625 117.078 116.269 117.675Z" fill="white"/>
<path opacity="0.4" d="M125.109 144.412L107.429 151.843C106.886 152.06 106.29 151.788 106.073 151.3L104.717 148.1C104.5 147.558 104.771 146.961 105.259 146.745L122.94 139.314C123.482 139.097 124.079 139.369 124.296 139.857L125.652 143.057C125.923 143.599 125.652 144.196 125.109 144.412Z" fill="white"/>
<path opacity="0.4" d="M148.159 134.759L130.478 142.189C129.936 142.406 129.339 142.135 129.123 141.646L127.767 138.447C127.55 137.904 127.821 137.308 128.309 137.091L145.99 129.661C146.532 129.444 147.129 129.715 147.345 130.203L148.701 133.403C148.918 133.945 148.647 134.542 148.159 134.759Z" fill="white"/>
<path opacity="0.4" d="M171.155 125.105L153.474 132.535C152.932 132.752 152.335 132.481 152.118 131.993L150.762 128.793C150.545 128.25 150.817 127.654 151.305 127.437L168.985 120.007C169.528 119.79 170.124 120.061 170.341 120.549L171.697 123.749C171.914 124.291 171.643 124.888 171.155 125.105Z" fill="white"/>
<path opacity="0.4" d="M194.15 115.451L176.47 122.881C175.927 123.098 175.331 122.827 175.114 122.339L173.758 119.139C173.541 118.597 173.812 118 174.3 117.783L191.981 110.353C192.523 110.136 193.12 110.407 193.337 110.896L194.693 114.095C194.91 114.584 194.693 115.234 194.15 115.451Z" fill="white"/>
<g opacity="0.6">
<path opacity="0.6" d="M176.003 92.417C180.114 91.4473 182.66 87.3289 181.69 83.2182C180.72 79.1076 176.602 76.5614 172.491 77.5311C168.381 78.5008 165.835 82.6192 166.804 86.7298C167.774 90.8404 171.892 93.3867 176.003 92.417Z" fill="#263238"/>
<path opacity="0.6" d="M171.1 93.4777C173.634 90.0986 172.949 85.3053 169.569 82.7717C166.19 80.2381 161.397 80.9235 158.863 84.3027C156.33 87.6818 157.015 92.475 160.394 95.0087C163.774 97.5423 168.567 96.8568 171.1 93.4777Z" fill="white"/>
</g>
<path d="M63.3355 178.418L56.6646 173.374L58.2917 170.446L65.3422 175.923L63.3355 178.418Z" fill="#407BFF"/>
<path d="M80.528 92.1301L79.4976 93.8114C79.4434 93.9199 79.5518 94.0826 79.7688 94.1368L100.215 95.9266C100.378 95.9266 100.541 95.8724 100.541 95.7639L100.866 94.0284C100.866 93.9199 100.758 93.8114 100.541 93.7572L80.7992 92.0759C80.745 92.0217 80.5823 92.0217 80.528 92.1301Z" fill="#407BFF"/>
<path opacity="0.5" d="M80.528 92.1301L79.4976 93.8114C79.4434 93.9199 79.5518 94.0826 79.7688 94.1368L100.215 95.9266C100.378 95.9266 100.541 95.8724 100.541 95.7639L100.866 94.0284C100.866 93.9199 100.758 93.8114 100.541 93.7572L80.7992 92.0759C80.745 92.0217 80.5823 92.0217 80.528 92.1301Z" fill="black"/>
<path d="M83.0228 94.5705L82.4805 94.5163C82.372 94.5163 82.3178 94.4621 82.3178 94.3536L82.7517 92.13C82.7517 92.0757 82.8601 92.0215 82.9686 92.0215L83.5109 92.0757C83.6194 92.0757 83.6737 92.13 83.6737 92.2384L83.2398 94.4621C83.2398 94.5163 83.1313 94.5705 83.0228 94.5705Z" fill="#407BFF"/>
<path d="M98.751 95.9265L98.2086 95.8723C98.1001 95.8723 98.0459 95.818 98.0459 95.7095L98.4798 93.4859C98.4798 93.4317 98.5882 93.3774 98.6967 93.3774L99.2391 93.4317C99.3475 93.4317 99.4018 93.4859 99.4018 93.5944L98.9679 95.818C98.9679 95.8722 98.8594 95.9265 98.751 95.9265Z" fill="#407BFF"/>
<path d="M90.8869 95.2212L90.3445 95.1669C90.2361 95.1669 90.1818 95.1127 90.1818 95.0042L90.6157 92.7806C90.6157 92.7264 90.7242 92.6721 90.8326 92.6721L91.375 92.7263C91.4835 92.7263 91.5377 92.7806 91.5377 92.8891L91.1038 95.1127C91.1038 95.2212 90.9953 95.2754 90.8869 95.2212Z" fill="#407BFF"/>
<path d="M60.3526 183.407C60.2984 183.407 60.2442 183.407 60.1899 183.407C59.5933 183.299 59.1052 182.268 58.834 181.672C58.834 181.617 58.834 181.617 58.834 181.563C58.834 181.509 58.8883 181.509 58.9425 181.563C59.1052 181.617 60.7323 182.268 60.8407 182.865C60.8407 182.973 60.8407 183.082 60.7323 183.244C60.6238 183.299 60.5153 183.353 60.3526 183.407ZM59.1052 181.78C59.4849 182.594 59.8645 183.082 60.2442 183.19C60.4069 183.244 60.5153 183.19 60.678 183.027C60.7323 182.973 60.7323 182.865 60.7323 182.865C60.6238 182.485 59.6476 182.051 59.1052 181.78Z" fill="#407BFF"/>
<path d="M60.4069 181.889C59.8645 181.943 59.2137 181.889 58.8883 181.726C58.834 181.726 58.834 181.672 58.834 181.672C58.834 181.618 58.834 181.618 58.8883 181.563C58.9425 181.509 60.0272 180.696 60.7323 180.858C60.895 180.913 61.0577 181.021 61.1119 181.13C61.2204 181.347 61.1661 181.509 61.0577 181.618C60.9492 181.78 60.7323 181.835 60.4069 181.889ZM59.1595 181.618C59.7018 181.78 60.7323 181.78 60.9492 181.509C61.0034 181.455 61.0034 181.401 60.9492 181.238C60.895 181.13 60.7865 181.075 60.678 181.021C60.1899 180.913 59.4849 181.401 59.1595 181.618Z" fill="#407BFF"/>
<path d="M93.002 192.844C92.4597 192.844 91.8631 192.736 91.4292 192.627C91.375 192.627 91.375 192.573 91.375 192.519C91.375 192.465 91.375 192.465 91.4292 192.41C91.6462 192.302 93.7613 191.326 94.2495 191.705C94.3037 191.76 94.4122 191.814 94.3579 191.977C94.3579 192.193 94.2495 192.356 94.0867 192.519C93.8698 192.79 93.4359 192.844 93.002 192.844ZM91.8089 192.519C92.4055 192.627 93.5444 192.79 94.0325 192.41C94.141 192.302 94.2495 192.193 94.2495 192.031C94.2495 191.977 94.2495 191.922 94.1952 191.922C93.8698 191.705 92.6224 192.139 91.8089 192.519Z" fill="#407BFF"/>
<path d="M91.4835 192.627H91.4292C91.4292 192.627 91.375 192.573 91.375 192.519C91.375 192.41 91.8631 190.404 93.002 190.512C93.2732 190.566 93.3817 190.675 93.3817 190.783C93.4359 191.326 92.1343 192.41 91.4835 192.627ZM92.8936 190.729C92.1885 190.729 91.7546 191.922 91.5919 192.41C92.2428 192.031 93.219 191.217 93.1648 190.892C93.1648 190.892 93.1648 190.783 92.9478 190.783C92.9478 190.729 92.9478 190.729 92.8936 190.729Z" fill="#407BFF"/>
<path d="M82.9144 71.5208L82.6432 71.9546L82.3178 72.4428C82.1008 72.7682 81.8839 73.0936 81.6669 73.419C81.2331 74.0698 80.9077 74.7749 80.528 75.4257C79.7687 76.7816 79.1179 78.1917 78.5756 79.656C77.979 81.1204 77.5451 82.5847 77.1654 84.1033L76.8943 85.188C76.8943 85.1337 76.84 85.2964 76.9485 85.4591C77.057 85.893 77.3824 86.4896 77.762 87.0862C78.5213 88.2794 79.606 89.4725 80.6907 90.6115C81.7754 91.7504 82.9686 92.8893 84.1618 93.974C85.3549 95.0587 86.6023 96.1434 87.8497 97.1739C89.0971 98.2586 90.3988 99.289 91.6462 100.32L90.2903 102.326C87.3616 100.591 84.5956 98.7467 81.8839 96.6858C80.528 95.6553 79.2264 94.5706 77.9247 93.4317C76.6231 92.2927 75.3757 91.0453 74.2368 89.5268C73.6944 88.7675 73.0978 87.9539 72.7182 86.7608C72.5555 86.1642 72.3928 85.4591 72.5012 84.5914V84.4287V84.3202L72.5555 84.1575L72.6097 83.8321L72.7182 83.1813C73.0436 81.4458 73.4775 79.7102 74.0741 78.029C74.6706 76.3477 75.3757 74.7206 76.1892 73.1478C76.5689 72.3343 77.057 71.575 77.4909 70.8157C77.7078 70.4361 77.979 70.0564 78.2501 69.6768L78.6298 69.1344C78.7925 68.9175 78.901 68.7548 79.0637 68.5378L82.9144 71.5208Z" fill="#FFC3BD"/>
<path d="M82.4262 63.8737C78.684 64.85 75.1045 73.853 75.1045 73.853L79.9314 78.246C79.9314 78.246 87.5243 71.3582 87.2532 68.2125C87.0362 65.6635 85.4092 63.1144 82.4262 63.8737Z" fill="#407BFF"/>
<path opacity="0.2" d="M88.1751 63.3853C88.1751 63.3853 87.4158 63.548 86.1142 63.548C85.9515 66.2055 87.687 68.8087 91.9173 72.2798C92.9478 69.1342 95.1714 68.4291 95.1714 68.4291L88.1751 63.3853Z" fill="black"/>
<path opacity="0.2" d="M97.0154 64.199C97.0154 64.199 97.5035 64.2532 98.6967 64.5244C99.456 65.7176 100.486 69.4598 98.2086 72.1173C97.2866 68.8632 95.1714 68.4293 95.1714 68.4293L97.0154 64.199Z" fill="black"/>
<path d="M88.1751 63.3853C88.1751 63.3853 87.0904 63.3853 85.7888 63.3853C85.0295 64.5784 87.687 67.941 91.9173 71.412C92.9478 68.2664 95.1714 68.4291 95.1714 68.4291L88.1751 63.3853Z" fill="white"/>
<path d="M97.0154 64.199C97.0154 64.199 97.5035 64.2532 98.6967 64.5244C99.456 65.7176 101.191 69.0259 98.8594 71.6292C97.9374 68.3751 95.1172 68.4293 95.1172 68.4293L97.0154 64.199Z" fill="white"/>
<path d="M89.9107 53.623C90.2361 56.4975 90.3445 61.8125 88.1751 63.4938C88.1751 63.4938 89.3141 66.7479 95.1172 68.4292C98.6425 66.4225 97.0154 64.2531 97.0154 64.2531C93.924 63.2226 94.1952 60.8905 94.9545 58.7211L89.9107 53.623Z" fill="#FFC3BD"/>
<path opacity="0.2" d="M91.9716 55.6841L94.9545 58.7212C94.7918 59.2094 94.6291 59.7517 94.5206 60.2941C93.3274 60.0229 91.5919 58.7755 91.5919 57.4738C91.5919 56.823 91.8631 56.0095 91.9716 55.6841Z" fill="black"/>
<path d="M96.5273 42.071C97.5035 41.0406 99.3475 42.3422 100.053 44.9455C101.083 48.7419 98.3171 49.0131 96.8527 47.1149C95.3884 45.2167 95.7138 42.9388 96.5273 42.071Z" fill="#263238"/>
<path d="M99.456 48.6876C99.456 48.6876 100.866 49.1215 102.114 50.0435C101.68 48.9588 101.246 48.2538 99.456 48.6876Z" fill="#263238"/>
<path d="M99.9984 48.9048C99.9984 48.9048 101.137 48.6337 102.33 48.7964C101.571 48.1998 101.029 47.8744 99.9984 48.9048Z" fill="#263238"/>
<path d="M87.3616 49.1217C88.5548 53.7317 88.9887 55.7384 91.8089 57.6908C96.0934 60.6195 101.517 58.1247 101.68 53.2436C101.842 48.8505 99.8357 42.0169 94.9003 41.0407C90.0734 40.0103 86.1685 44.4575 87.3616 49.1217Z" fill="#FFC3BD"/>
<path d="M89.5853 42.9931L88.2294 44.5659C87.4159 45.5422 85.9515 45.6506 84.9753 44.7829C83.9991 43.9694 83.8906 42.505 84.7584 41.5288L86.1142 39.956C86.9277 38.9797 88.3921 38.8713 89.3683 39.739C90.2903 40.5526 90.453 42.0169 89.5853 42.9931Z" fill="white"/>
<path d="M90.8326 44.7285L89.2056 45.542C87.7955 46.2471 86.1142 45.6505 85.4634 44.2404C84.7583 42.8303 85.3549 41.149 86.765 40.4982L88.3921 39.6846C89.8022 38.9796 91.4835 39.5762 92.1343 40.9863C92.7851 42.3422 92.2428 44.0234 90.8326 44.7285Z" fill="#407BFF"/>
<path d="M88.7717 52.5387C88.7717 52.5387 92.1343 51.7794 90.67 46.8983C90.453 46.0848 91.0496 45.2712 91.8631 45.2712C95.6053 45.1628 99.1306 44.4035 98.6425 42.1799C97.9917 39.4139 88.6633 37.2987 86.9278 42.8307C83.6194 43.6442 83.511 50.1524 88.7717 52.5387Z" fill="#263238"/>
<path d="M88.7717 51.6165C88.7717 51.6165 90.1818 52.0503 91.4292 52.9723C90.9411 51.8334 90.5615 51.1284 88.7717 51.6165Z" fill="#263238"/>
<path d="M89.3141 51.7794C89.3141 51.7794 90.453 51.5082 91.6462 51.6709C90.8869 51.0743 90.3446 50.7489 89.3141 51.7794Z" fill="#263238"/>
<path d="M86.6023 52.7555C87.0362 53.6233 87.8497 54.2198 88.6632 54.4368C89.8564 54.8164 90.453 53.7317 90.1276 52.647C89.8564 51.6166 88.9344 50.2607 87.7412 50.3692C86.5481 50.4776 86.06 51.725 86.6023 52.7555Z" fill="#FFC3BD"/>
<path d="M95.2257 48.9591C95.2799 49.3387 95.5511 49.6099 95.8222 49.5557C96.0934 49.5014 96.2019 49.176 96.1476 48.7964C96.0934 48.4167 95.8222 48.1455 95.5511 48.1998C95.2799 48.1998 95.1172 48.5794 95.2257 48.9591Z" fill="#263238"/>
<path d="M99.5103 48.0912C99.5645 48.4708 99.8357 48.742 100.107 48.6877C100.378 48.6335 100.486 48.3081 100.432 47.9284C100.378 47.5488 100.107 47.2776 99.8357 47.3319C99.5645 47.3861 99.456 47.7115 99.5103 48.0912Z" fill="#263238"/>
<path d="M99.7272 47.3321L100.595 46.8982C100.595 46.8982 100.27 47.7117 99.7272 47.3321Z" fill="#263238"/>
<path d="M98.0459 49.0674C98.0459 49.0674 99.0221 50.586 99.8899 51.2368C99.456 51.7791 98.5882 51.7791 98.5882 51.7791L98.0459 49.0674Z" fill="#ED847E"/>
<path d="M96.7985 53.5689C95.4426 53.5689 94.6833 52.7553 94.6291 52.7553C94.5749 52.7011 94.5749 52.6469 94.6291 52.6469C94.6833 52.5926 94.7376 52.5926 94.7376 52.6469C94.7376 52.6469 95.768 53.6773 97.4493 53.3519C97.5035 53.3519 97.5578 53.3519 97.5578 53.4062C97.5578 53.4604 97.5578 53.5146 97.5035 53.5146C97.2324 53.5146 97.0154 53.5689 96.7985 53.5689Z" fill="#263238"/>
<path d="M92.6224 47.4404C92.5682 47.4404 92.5682 47.4404 92.5139 47.3861C92.4055 47.3319 92.4055 47.2234 92.4597 47.115C93.1105 46.0303 94.141 46.0303 94.1952 46.0303C94.3037 46.0303 94.4122 46.0845 94.4122 46.193C94.4122 46.3014 94.3579 46.4099 94.2494 46.4099C94.1952 46.4099 93.3817 46.4642 92.8393 47.3319C92.7309 47.4404 92.6766 47.4404 92.6224 47.4404Z" fill="#263238"/>
<path d="M100.703 45.922C100.649 45.922 100.649 45.922 100.595 45.922C99.673 45.4339 98.9137 45.8135 98.9137 45.8135C98.8052 45.8677 98.6967 45.8135 98.6425 45.7593C98.5883 45.6508 98.6425 45.5423 98.6967 45.4881C98.751 45.4881 99.673 45 100.758 45.5966C100.866 45.6508 100.866 45.7593 100.812 45.8677C100.866 45.922 100.758 45.922 100.703 45.922Z" fill="#263238"/>
<path d="M89.8564 99.4517L94.1952 99.7771L92.2428 104.387C92.2428 104.387 88.609 103.248 88.4463 100.591L89.8564 99.4517Z" fill="#FFC3BD"/>
<path d="M95.8765 102.381L93.7613 105.526L92.2428 104.387L94.1952 99.7773L95.8765 102.381Z" fill="#FFC3BD"/>
<path d="M95.3884 48.1997L96.2562 47.7659C96.2562 47.7659 95.9307 48.5794 95.3884 48.1997Z" fill="#263238"/>
</g>
<defs>
<clipPath id="clip0">
<rect width="271.175" height="202.079" fill="white" transform="translate(0.043396 0.960693)"/>
</clipPath>
</defs>
</svg>
