<svg width="302" height="235" viewBox="0 0 302 235" fill="none" xmlns="http://www.w3.org/2000/svg">
<path d="M301.666 207.446H0.484192V207.567H301.666V207.446Z" fill="#EBEBEB"/>
<path d="M218.54 212.205H198.602V212.325H218.54V212.205Z" fill="#EBEBEB"/>
<path d="M266.066 212.265H241.309V212.385H266.066V212.265Z" fill="#EBEBEB"/>
<path d="M226.973 216.24H215.407V216.361H226.973V216.24Z" fill="#EBEBEB"/>
<path d="M136.438 215.096H105.295V215.217H136.438V215.096Z" fill="#EBEBEB"/>
<path d="M99.9344 215.096H79.2131V215.217H99.9344V215.096Z" fill="#EBEBEB"/>
<path d="M66.8044 212.506H38.6138V212.626H66.8044V212.506Z" fill="#EBEBEB"/>
<path d="M143.244 180.58H26.9279C25.0606 180.58 23.4945 179.014 23.4945 177.147V13.6053C23.4945 11.738 25.0606 10.1719 26.9279 10.1719H143.244C145.112 10.1719 146.678 11.738 146.678 13.6053V177.087C146.678 179.014 145.172 180.58 143.244 180.58ZM26.9279 10.3526C25.1209 10.3526 23.6149 11.7983 23.6149 13.6656V177.147C23.6149 178.954 25.0606 180.46 26.9279 180.46H143.244C145.051 180.46 146.557 179.014 146.557 177.147V13.6053C146.557 11.7983 145.112 10.2923 143.244 10.2923H26.9279V10.3526Z" fill="#EBEBEB"/>
<path d="M273.536 180.58H157.219C155.352 180.58 153.786 179.014 153.786 177.147V13.6053C153.786 11.738 155.352 10.1719 157.219 10.1719H273.536C275.403 10.1719 276.969 11.738 276.969 13.6053V177.087C276.969 179.014 275.463 180.58 273.536 180.58ZM157.219 10.3526C155.412 10.3526 153.906 11.7983 153.906 13.6656V177.147C153.906 178.954 155.352 180.46 157.219 180.46H273.536C275.343 180.46 276.849 179.014 276.849 177.147V13.6053C276.849 11.7983 275.403 10.2923 273.536 10.2923H157.219V10.3526Z" fill="#EBEBEB"/>
<path d="M105.356 0.0529785H21.4464V163.715H105.356V0.0529785Z" fill="#F5F5F5"/>
<path d="M61.9252 163.715H40.0594V65.9511L61.9252 58.783V163.715Z" fill="#EBEBEB"/>
<path d="M80.1768 163.714H58.311V89.3827L80.1768 82.2146V163.714Z" fill="#E6E6E6"/>
<path d="M77.5867 87.2745H72.3461V69.565L77.5867 67.8181V87.2745Z" fill="#E6E6E6"/>
<path d="M192.879 0.0524902H108.97V163.715H192.879V0.0524902Z" fill="#F5F5F5"/>
<path d="M133.606 105.586H108.97V163.715H133.606V105.586Z" fill="#E6E6E6"/>
<path d="M280.704 0.0524902H196.794V163.715H280.704V0.0524902Z" fill="#F5F5F5"/>
<path d="M262.452 163.715H244.622V46.0729L262.452 38.9048V163.715Z" fill="#EBEBEB"/>
<path d="M280.704 163.714H258.838V89.3827L280.704 82.2146V163.714Z" fill="#E6E6E6"/>
<path d="M202.276 163.715H246.068V105.888L202.276 100.346V163.715Z" fill="#E6E6E6"/>
<path d="M278.113 87.2745H275.523V69.565L278.113 67.8181V87.2745Z" fill="#E6E6E6"/>
<path d="M269.56 91.5515H266.97V73.8421L269.56 72.0952V91.5515Z" fill="#E6E6E6"/>
<path d="M44.5169 115.164H34.5779C30.9637 115.164 28.0724 118.055 28.0724 121.67V163.775H44.5169V115.164Z" fill="#EBEBEB"/>
<path d="M105.356 116.851H83.4898V163.714H105.356V116.851Z" fill="#EBEBEB"/>
<path d="M155.472 124.139L133.546 116.851V163.714H155.472V124.139Z" fill="#EBEBEB"/>
<path d="M163.725 124.139L141.859 116.851V163.714H163.725V124.139Z" fill="#E6E6E6"/>
<path d="M163.725 116.67L185.59 109.441V163.714H163.725V116.67Z" fill="#F0F0F0"/>
<path opacity="0.5" d="M67.2863 163.715H44.6977L91.2001 0.0527344H113.729L67.2863 163.715Z" fill="white"/>
<path opacity="0.5" d="M134.811 163.715H112.283L158.785 0.0524902H181.314L134.811 163.715Z" fill="white"/>
<path opacity="0.5" d="M163.062 163.715H140.534L186.976 0.0524902H209.565L163.062 163.715Z" fill="white"/>
<path opacity="0.5" d="M217.335 163.715H206.071L252.513 0.0524902H263.837L217.335 163.715Z" fill="white"/>
<path d="M67.226 177.629C73.7315 142.752 90.8989 126.368 105.476 118.055C91.5013 131.247 81.9839 177.027 67.226 177.629Z" fill="#FAFAFA"/>
<path d="M53.0102 174.918C48.1913 148.595 36.626 138.355 26.8074 133.958C36.2645 142.21 43.1917 176.545 53.0102 174.918Z" fill="#FAFAFA"/>
<path d="M61.3831 181.906C59.5158 144.078 45.1193 127.452 32.1685 119.501C43.9748 132.874 47.2878 182.388 61.3831 181.906Z" fill="#FAFAFA"/>
<path d="M61.3831 178.653C64.3949 140.644 80.478 122.874 94.7541 113.839C81.6828 128.175 76.6831 177.991 61.3831 178.653Z" fill="#FAFAFA"/>
<path d="M63.7926 184.557C68.6115 145.523 57.9497 121.971 47.1674 107.815C55.9016 126.91 50.4201 178.473 63.7926 184.557Z" fill="#FAFAFA"/>
<path d="M78.7914 172.69C90.9592 149.921 106.259 144.499 117.945 143.957C105.536 148.294 88.9111 177.75 78.7914 172.69Z" fill="#FAFAFA"/>
<path d="M76.2615 173.533C83.9115 147.752 98.4284 136.789 110.355 131.729C98.5489 140.584 87.7666 174.256 76.2615 173.533Z" fill="#FAFAFA"/>
<path d="M62.8288 184.677C75.9603 144.258 69.9969 119.32 61.9855 104.141C66.8646 124.38 50.4803 177.81 62.8288 184.677Z" fill="#FAFAFA"/>
<path d="M40.5414 170.16V195.58C40.5414 202.085 52.2874 207.386 66.6237 207.386C80.9599 207.386 92.706 202.085 92.706 195.58V170.16H40.5414Z" fill="#F5F5F5"/>
<path d="M241.43 186.966C239.984 162.992 229.683 151.728 220.407 146.005C228.84 155.101 231.37 186.544 241.43 186.966Z" fill="#E0E0E0"/>
<path d="M251.429 185.098C256.971 167.027 265.825 159.92 272.933 156.908C265.765 162.63 258.055 186.243 251.429 185.098Z" fill="#E0E0E0"/>
<path d="M245.104 189.917C249.622 163.895 260.946 152.511 270.524 147.029C261.308 156.185 254.682 190.219 245.104 189.917Z" fill="#E0E0E0"/>
<path d="M245.345 187.628C246.55 161.486 237.093 149.258 228.117 143.053C235.888 152.932 234.924 187.207 245.345 187.628Z" fill="#E0E0E0"/>
<path d="M243.237 191.725C243.297 164.859 252.633 148.716 261.247 138.958C253.658 152.089 252.874 187.508 243.237 191.725Z" fill="#E0E0E0"/>
<path d="M234.02 183.592C227.635 167.931 217.636 164.196 209.685 163.835C217.757 166.787 226.611 187.086 234.02 183.592Z" fill="#E0E0E0"/>
<path d="M235.647 184.195C232.635 166.485 223.6 158.956 215.889 155.462C223.238 161.486 227.696 184.677 235.647 184.195Z" fill="#E0E0E0"/>
<path d="M243.899 191.845C238.418 164.016 244.622 146.908 251.429 136.488C246.309 150.342 252.935 187.086 243.899 191.845Z" fill="#E0E0E0"/>
<path d="M259.079 181.845V199.314C259.079 203.771 251.007 207.446 241.189 207.446C231.37 207.446 223.298 203.771 223.298 199.314V181.845H259.079Z" fill="#F5F5F5"/>
<path d="M151.075 234.612C215.581 234.612 267.873 231.565 267.873 227.806C267.873 224.047 215.581 220.999 151.075 220.999C86.5691 220.999 34.2767 224.047 34.2767 227.806C34.2767 231.565 86.5691 234.612 151.075 234.612Z" fill="#F5F5F5"/>
<path d="M161.315 54.687V62.6382C161.315 63.7827 160.351 64.7465 159.207 64.7465H139.871C138.727 64.7465 137.763 63.7827 137.763 62.6382V33.9657C137.763 32.8212 138.727 31.8574 139.871 31.8574H159.207C160.351 31.8574 161.315 32.8212 161.315 33.9657V46.4346" fill="white"/>
<path d="M159.207 65.0476H139.871C138.546 65.0476 137.462 63.9633 137.462 62.6381V33.9656C137.462 32.6404 138.546 31.5562 139.871 31.5562H159.207C160.532 31.5562 161.616 32.6404 161.616 33.9656V46.4345H160.954V33.9656C160.954 33.0018 160.171 32.1585 159.147 32.1585H139.811C138.847 32.1585 138.004 32.9416 138.004 33.9656V62.6381C138.004 63.6019 138.787 64.4452 139.811 64.4452H159.147C160.11 64.4452 160.954 63.6621 160.954 62.6381V54.6869H161.616V62.6381C161.616 63.9633 160.532 65.0476 159.207 65.0476Z" fill="#407BFF"/>
<path d="M148.063 60.7708C148.485 60.5298 148.846 60.2889 149.268 60.1082C149.449 59.9877 149.69 59.9275 149.87 59.8672C150.111 59.807 150.352 59.6865 150.593 59.6865C150.533 59.6263 150.412 59.566 150.352 59.566C150.292 59.5058 150.292 59.6865 150.292 59.6865C150.292 59.7467 150.232 59.807 150.232 59.9275C150.171 60.1082 150.111 60.2286 150.051 60.4093C149.991 60.6503 150.171 60.8912 150.473 60.8912C151.135 60.8912 151.677 60.4696 152.22 60.1684C152.159 60.1684 152.099 60.1684 151.979 60.1684C152.039 60.1684 152.099 60.2286 152.159 60.2889C152.28 60.3491 152.34 60.3491 152.46 60.3491C152.701 60.3491 152.942 60.2889 153.183 60.3491C153.545 60.4093 153.545 59.807 153.183 59.807C152.942 59.807 152.701 59.8672 152.46 59.807C152.22 59.7467 152.159 59.566 151.918 59.6865C151.677 59.807 151.436 59.9274 151.196 60.0479C151.075 60.1082 150.955 60.1082 150.834 60.1684C150.774 60.1684 150.714 60.2286 150.593 60.2286C150.533 60.2286 150.412 60.2286 150.473 60.3491C150.473 60.4093 150.533 60.4696 150.533 60.5298C150.533 60.1684 150.955 59.807 150.834 59.3853C150.714 58.9637 150.232 59.1444 149.931 59.2046C149.147 59.4456 148.364 59.807 147.642 60.2286C147.461 60.4696 147.762 60.9515 148.063 60.7708Z" fill="#E0E0E0"/>
<path d="M159.026 36.134H139.992V36.7966H159.026V36.134Z" fill="#E0E0E0"/>
<path d="M156.918 40.6516H139.992V41.3142H156.918V40.6516Z" fill="#E0E0E0"/>
<path d="M159.026 45.1694H139.992V45.832H159.026V45.1694Z" fill="#E0E0E0"/>
<path d="M145.232 49.6267H139.992V50.2893H145.232V49.6267Z" fill="#E0E0E0"/>
<path d="M154.388 49.6267H147.401V50.2893H154.388V49.6267Z" fill="#E0E0E0"/>
<path d="M159.026 54.1448H139.992V54.8074H159.026V54.1448Z" fill="#E0E0E0"/>
<path d="M142.582 62.1561C140.955 62.1561 139.63 60.8309 139.63 59.2045C139.63 57.5781 140.955 56.2529 142.582 56.2529C144.208 56.2529 145.533 57.5781 145.533 59.2045C145.533 60.8309 144.208 62.1561 142.582 62.1561ZM142.582 56.9155C141.317 56.9155 140.293 57.9395 140.293 59.2045C140.293 60.4695 141.317 61.4935 142.582 61.4935C143.847 61.4935 144.871 60.4695 144.871 59.2045C144.871 57.9395 143.847 56.9155 142.582 56.9155Z" fill="#407BFF"/>
<path d="M144.329 59.2046C144.329 60.1684 143.546 60.9515 142.582 60.9515C141.618 60.9515 140.835 60.1684 140.835 59.2046C140.835 58.2408 141.618 57.4578 142.582 57.4578C143.546 57.4578 144.329 58.2408 144.329 59.2046Z" fill="#407BFF"/>
<path d="M154.147 58.6623C154.268 57.7587 154.569 57.0359 154.99 56.3733C155.412 55.7107 155.954 55.1686 156.436 54.506C157.4 53.3013 158.424 52.0965 159.448 50.8918C161.496 48.5426 163.544 46.1934 165.833 43.9646C165.953 43.8441 166.134 43.8441 166.255 43.9646C166.375 44.0851 166.375 44.2056 166.315 44.326C164.688 47.0367 162.881 49.5666 161.014 52.0965C160.11 53.3615 159.147 54.6265 158.183 55.8312C157.701 56.4335 157.279 57.0961 156.737 57.6383C156.195 58.1804 155.532 58.6623 154.689 59.0237C154.508 59.0839 154.268 58.9635 154.207 58.7828C154.147 58.7828 154.147 58.7225 154.147 58.6623Z" fill="#407BFF"/>
<path d="M155.689 80.0159L151.739 83.46L152.174 83.9594L156.124 80.5153L155.689 80.0159Z" fill="#407BFF"/>
<path d="M150.989 74.7024L149.316 82.1672L149.963 82.3121L151.636 74.8473L150.989 74.7024Z" fill="#407BFF"/>
<path d="M145.118 80.35L144.634 80.803L146.817 83.1332L147.3 82.6802L145.118 80.35Z" fill="#407BFF"/>
<path d="M191.494 222.987H186.374L185.711 211.121H190.831L191.494 222.987Z" fill="#7F3E3B"/>
<path d="M217.335 222.987H212.215L210.167 211.121H215.287L217.335 222.987Z" fill="#7F3E3B"/>
<path d="M211.854 222.445H217.636C217.817 222.445 217.998 222.566 218.058 222.806L218.841 227.384C218.901 227.866 218.54 228.288 218.058 228.288C216.07 228.228 215.106 228.107 212.576 228.107C211.01 228.107 206.794 228.288 204.685 228.288C202.577 228.288 202.336 226.18 203.24 225.999C207.215 225.156 209.745 223.951 211.07 222.806C211.251 222.505 211.552 222.445 211.854 222.445Z" fill="#263238"/>
<path d="M186.193 222.445H191.795C191.976 222.445 192.156 222.566 192.216 222.806L193 227.384C193.06 227.866 192.698 228.288 192.216 228.288C190.229 228.228 187.277 228.107 184.747 228.107C181.796 228.107 181.013 228.288 177.579 228.288C175.471 228.288 174.989 226.18 175.892 225.999C179.928 225.095 181.374 225.035 184.988 222.867C185.35 222.566 185.771 222.445 186.193 222.445Z" fill="#263238"/>
<path d="M186.072 63.4811L179.085 61.4331C179.085 61.4331 171.977 78.3595 169.568 79.504C166.255 81.0099 157.52 85.6481 153.786 87.8166C153.545 88.6599 153.545 90.9489 153.906 91.6115C159.99 91.1296 172.459 86.9733 174.868 84.6843C180.29 79.4438 186.072 63.4811 186.072 63.4811Z" fill="#7F3E3B"/>
<path d="M188.181 60.2887C190.168 64.7462 176.495 84.1423 176.495 84.1423L169.869 77.2754C169.869 77.2754 175.712 62.5777 178.904 56.9155C182.157 51.0726 186.012 55.4096 188.181 60.2887Z" fill="#407BFF"/>
<path opacity="0.4" d="M188.181 60.2887C190.168 64.7462 176.495 84.1423 176.495 84.1423L169.869 77.2754C169.869 77.2754 175.712 62.5777 178.904 56.9155C182.157 51.0726 186.012 55.4096 188.181 60.2887Z" fill="white"/>
<path d="M169.387 76.673C168.965 76.914 168.062 78.5404 167.881 79.3234C167.7 80.1065 172.338 86.3711 174.146 86.1301C175.953 85.8892 178.001 84.1423 178.422 83.1786C178.784 82.2148 170.29 76.1309 169.387 76.673Z" fill="#407BFF"/>
<path d="M154.508 87.3951L150.232 86.6121L150.473 92.6357C150.473 92.6357 151.979 93.2381 155.171 91.2503L154.508 87.3951Z" fill="#7F3E3B"/>
<path d="M145.232 88.6601L145.955 92.3345L150.533 92.6959L150.292 86.6121L145.232 88.6601Z" fill="#7F3E3B"/>
<path opacity="0.2" d="M185.711 211.181L186.012 217.265H191.192L190.831 211.181H185.711Z" fill="black"/>
<path opacity="0.2" d="M215.287 211.181H210.167L211.191 217.265H216.311L215.287 211.181Z" fill="black"/>
<path d="M181.675 54.2051C181.675 54.2051 174.868 71.7941 179.205 100.647C187.458 100.647 202.577 100.647 206.613 100.647C206.974 96.4308 205.408 73.7819 210.408 53.9642C210.408 53.9642 205.77 53.0004 201.312 52.8197C197.818 52.639 192.759 52.5185 189.687 52.8197C185.53 53.1811 181.675 54.2051 181.675 54.2051Z" fill="#407BFF"/>
<path opacity="0.2" d="M181.675 54.2051C181.675 54.2051 174.868 71.7941 179.205 100.647C187.458 100.647 202.577 100.647 206.613 100.647C206.974 96.4308 205.408 73.7819 210.408 53.9642C210.408 53.9642 205.77 53.0004 201.312 52.8197C197.818 52.639 192.759 52.5185 189.687 52.8197C185.53 53.1811 181.675 54.2051 181.675 54.2051Z" fill="black"/>
<path opacity="0.2" d="M204.204 58.8434C203.601 62.0961 204.264 69.9268 206.914 78.9021C207.276 71.9749 208.059 63.9032 209.926 55.8918V55.8315C208.119 55.7111 204.746 55.7713 204.204 58.8434Z" fill="black"/>
<path d="M200.228 41.9167C199.324 45.6514 198.722 50.2896 201.252 52.8195C201.252 52.8195 199.565 56.6144 192.578 56.6144C186.193 56.6144 189.566 52.8195 189.566 52.8195C193.783 51.7955 193.843 46.6754 193.24 43.7238L200.228 41.9167Z" fill="#7F3E3B"/>
<path d="M192.638 56.6145C196.734 57.8795 197.578 59.2047 197.578 59.2047C197.578 59.2047 202.698 57.1567 202.517 52.6389C202.517 52.6389 201.613 51.9161 200.529 51.4944C200.469 51.4342 200.047 54.8074 192.638 56.6145Z" fill="#407BFF"/>
<path d="M192.638 56.6144C190.349 56.8554 188.422 58.7829 188.422 58.7829C188.422 58.7829 186.976 57.277 188.361 52.8195C188.361 52.8195 189.747 52.3376 190.891 52.0967C190.831 52.0967 189.927 55.6506 192.638 56.6144Z" fill="#407BFF"/>
<path opacity="0.2" d="M193.301 43.724C193.662 45.4106 193.783 47.9406 193 49.8681C193.602 49.7476 194.265 49.5669 194.867 49.2658C197.276 48.1815 198.541 46.4346 199.866 43.7843C199.987 43.1217 200.107 42.4591 200.288 41.8567L193.301 43.724Z" fill="black"/>
<path d="M192.457 29.9294C190.831 30.4716 187.157 33.6038 190.65 35.17C194.084 36.7964 195.289 28.9656 192.457 29.9294Z" fill="#263238"/>
<path d="M203.541 37.3389C201.975 42.2783 201.252 45.1696 198.12 47.2176C193.421 50.2295 187.94 46.6755 188.06 41.435C188.181 36.7365 190.771 29.5082 196.072 28.5444C201.312 27.5806 205.107 32.3995 203.541 37.3389Z" fill="#7F3E3B"/>
<path d="M195.831 31.9175C193.12 32.3994 190.831 32.2187 190.048 29.99C189.205 27.7612 192.939 25.3518 195.529 26.436C197.457 24.4482 202.577 25.9541 203.3 27.8817C206.312 27.701 209.143 31.1345 207.095 32.9416C208.661 33.8451 209.745 36.616 207.697 38.5435C208.601 41.1337 205.408 43.7841 202.878 42.6998C200.409 41.977 199.083 42.5794 198.722 40.953C198.421 39.4471 199.264 37.8207 201.312 37.5195C200.228 36.2546 199.987 34.2668 200.71 33.4234C198.24 34.5679 196.132 33.1223 195.831 31.9175Z" fill="#263238"/>
<path d="M192.578 42.5189C194.204 42.6394 195.228 41.7358 195.228 41.6756C195.289 41.6154 195.289 41.5551 195.228 41.4949C195.168 41.4346 195.108 41.4346 195.048 41.4949C195.048 41.4949 193.903 42.5791 192.096 42.2177C192.036 42.2177 191.976 42.2177 191.976 42.3382C191.976 42.3984 191.976 42.4587 192.096 42.4587C192.277 42.5189 192.397 42.5189 192.578 42.5189Z" fill="#263238"/>
<path d="M203.782 44.0854C202.698 44.9287 201.312 45.2299 200.168 45.1094C198.481 44.9287 198.361 43.2421 199.445 42.0374C200.409 40.8929 202.396 39.6279 203.842 40.4712C205.227 41.2543 205.047 43.1216 203.782 44.0854Z" fill="#7F3E3B"/>
<path d="M197.216 100.647C197.216 100.647 196.493 107.093 195.65 115.827C194.626 125.706 193.361 138.596 192.578 148.355C192.578 148.415 192.578 148.475 192.578 148.475C192.397 150.342 192.277 152.089 192.156 153.655C191.012 169.618 193.06 216.06 193.06 216.06H184.386C184.386 216.06 176.374 168.654 176.555 152.39C176.736 136.789 179.205 100.587 179.205 100.587H197.216V100.647Z" fill="#407BFF"/>
<path d="M193.722 212.687C193.783 212.687 193.542 216.241 193.542 216.241H183.542L183.301 212.325L193.722 212.687Z" fill="#263238"/>
<path opacity="0.2" d="M195.59 115.827C194.566 125.706 193.301 138.596 192.518 148.354C192.518 148.415 192.518 148.475 192.518 148.475C190.59 139.199 189.988 127.633 190.771 108.659L195.59 115.827Z" fill="black"/>
<path d="M188.903 100.647C188.903 100.647 192.879 137.692 195.409 152.33C198.12 168.413 208.902 216.12 208.902 216.12H218.299C218.299 216.12 211.974 169.738 210.709 153.836C209.384 136.548 206.613 100.707 206.613 100.707H188.903V100.647Z" fill="#407BFF"/>
<path d="M218.419 212.928C218.48 212.928 218.72 216.301 218.72 216.301H208.42L207.697 212.566L218.419 212.928Z" fill="#263238"/>
<path d="M194.987 37.0978C194.867 37.5195 194.566 37.7604 194.325 37.7002C194.084 37.64 193.963 37.2785 194.024 36.8569C194.144 36.4352 194.445 36.1943 194.686 36.2545C194.987 36.3148 195.108 36.6762 194.987 37.0978Z" fill="#263238"/>
<path d="M190.47 36.134C190.349 36.5556 190.048 36.7966 189.807 36.7363C189.566 36.6761 189.446 36.3147 189.506 35.893C189.626 35.4714 189.927 35.2304 190.168 35.2907C190.47 35.3509 190.59 35.7123 190.47 36.134Z" fill="#263238"/>
<path d="M192.578 36.616C192.578 36.616 191.072 38.7845 189.747 39.688C190.289 40.5313 191.554 40.4711 191.554 40.4711L192.578 36.616Z" fill="#630F0F"/>
<path d="M197.457 35.8932C197.397 35.8932 197.337 35.833 197.276 35.7728C196.855 34.809 196.011 34.6283 196.011 34.6283C195.891 34.6283 195.77 34.5078 195.831 34.3271C195.831 34.2066 196.011 34.0862 196.132 34.1464C196.192 34.1464 197.276 34.3271 197.758 35.5318C197.818 35.6523 197.758 35.7728 197.638 35.833C197.578 35.8932 197.517 35.9535 197.457 35.8932Z" fill="#263238"/>
<path d="M189.626 34.0258C189.566 34.0258 189.566 34.0258 189.506 33.9656C189.385 33.9053 189.385 33.7246 189.506 33.6041C190.47 32.5801 191.554 32.7608 191.614 32.7608C191.735 32.7608 191.855 32.8813 191.795 33.062C191.795 33.1825 191.614 33.303 191.494 33.2427C191.433 33.2427 190.59 33.1223 189.867 33.9053C189.807 34.0258 189.687 34.086 189.626 34.0258Z" fill="#263238"/>
<path d="M213.42 60.9514L206.974 64.8668C206.974 64.8668 214.203 80.5282 214.143 83.1786C214.022 88.118 216.13 98.7798 215.588 104.382C216.371 104.683 218.6 104.743 219.323 104.322C220.588 99.2617 222.395 85.8893 221.853 82.5763C220.708 75.2877 213.42 60.9514 213.42 60.9514Z" fill="#7F3E3B"/>
<path d="M210.348 53.9641C215.167 54.6869 222.033 79.1429 222.033 79.1429L213.118 82.5161C213.118 82.5161 205.348 69.2641 203.42 63.3007C201.433 57.0361 205.228 53.181 210.348 53.9641Z" fill="#407BFF"/>
<path opacity="0.4" d="M210.348 53.9641C215.167 54.6869 222.033 79.1429 222.033 79.1429L213.118 82.5161C213.118 82.5161 205.348 69.2641 203.42 63.3007C201.433 57.0361 205.228 53.181 210.348 53.9641Z" fill="white"/>
<path d="M210.107 223.288C209.745 223.288 209.384 223.228 209.143 223.047C208.962 222.867 208.902 222.686 208.902 222.385C208.902 222.204 209.022 222.083 209.143 222.023C209.745 221.722 211.311 222.746 211.492 222.867C211.552 222.867 211.552 222.927 211.552 222.987C211.552 223.047 211.492 223.047 211.432 223.107C211.131 223.228 210.589 223.288 210.107 223.288ZM209.384 222.264C209.324 222.264 209.263 222.264 209.203 222.324C209.143 222.324 209.143 222.385 209.143 222.445C209.143 222.626 209.143 222.806 209.263 222.867C209.504 223.107 210.227 223.107 211.07 222.987C210.528 222.626 209.805 222.264 209.384 222.264Z" fill="#407BFF"/>
<path d="M211.432 223.108C211.432 223.108 211.372 223.108 211.432 223.108C210.83 222.806 209.866 221.662 210.046 221.12C210.046 220.999 210.167 220.819 210.468 220.819C210.649 220.819 210.83 220.819 210.95 220.999C211.492 221.481 211.552 222.987 211.552 223.047C211.552 223.108 211.552 223.108 211.492 223.168C211.492 223.108 211.432 223.108 211.432 223.108ZM210.528 221.06C210.468 221.06 210.468 221.06 210.528 221.06C210.287 221.06 210.287 221.18 210.287 221.18C210.227 221.541 210.83 222.385 211.311 222.746C211.251 222.325 211.131 221.481 210.769 221.12C210.709 221.12 210.589 221.06 210.528 221.06Z" fill="#407BFF"/>
<path d="M184.024 223.288C183.542 223.288 183.061 223.228 182.82 222.987C182.639 222.866 182.579 222.626 182.639 222.385C182.639 222.264 182.759 222.144 182.88 222.083C183.542 221.722 185.53 222.806 185.771 222.927C185.831 222.927 185.831 222.987 185.831 223.047C185.831 223.107 185.771 223.168 185.711 223.168C185.229 223.228 184.627 223.288 184.024 223.288ZM183.181 222.264C183.061 222.264 183 222.264 182.94 222.324C182.88 222.324 182.88 222.385 182.88 222.445C182.88 222.626 182.88 222.746 183 222.806C183.301 223.107 184.145 223.107 185.289 222.927C184.566 222.626 183.663 222.264 183.181 222.264Z" fill="#407BFF"/>
<path d="M185.651 223.108C185.59 223.108 185.59 223.108 185.651 223.108C184.988 222.806 183.844 221.722 183.964 221.12C183.964 220.999 184.085 220.819 184.446 220.758C184.687 220.698 184.928 220.819 185.109 220.939C185.711 221.481 185.831 222.867 185.831 222.927C185.831 222.987 185.831 222.987 185.771 223.047C185.711 223.108 185.651 223.108 185.651 223.108ZM184.506 221.06H184.446C184.205 221.06 184.205 221.18 184.205 221.18C184.145 221.542 184.928 222.385 185.53 222.806C185.47 222.385 185.35 221.602 184.928 221.24C184.747 221.12 184.627 221.06 184.506 221.06Z" fill="#407BFF"/>
<path d="M234.261 134.259L203.481 138.295C202.155 138.476 200.891 137.512 200.71 136.187L198.059 116.068C197.879 114.743 198.842 113.478 200.168 113.297L230.948 109.261C232.274 109.08 233.539 110.044 233.719 111.369L236.37 131.488C236.55 132.813 235.587 134.078 234.261 134.259Z" fill="#263238"/>
<path opacity="0.3" d="M234.261 134.259L203.481 138.295C202.155 138.476 200.891 137.512 200.71 136.187L198.059 116.068C197.879 114.743 198.842 113.478 200.168 113.297L230.948 109.261C232.274 109.08 233.539 110.044 233.719 111.369L236.37 131.488C236.55 132.813 235.587 134.078 234.261 134.259Z" fill="black"/>
<path d="M214.142 115.947C213.6 115.947 213.118 115.766 212.697 115.465C212.215 115.104 211.853 114.562 211.793 113.899L211.251 109.743C211.07 108.478 211.974 107.273 213.299 107.092L220.287 106.189C220.889 106.129 221.491 106.249 222.033 106.671C222.515 107.032 222.877 107.574 222.937 108.237L223.479 112.393C223.66 113.658 222.756 114.863 221.431 115.044L214.444 115.947C214.323 115.947 214.263 115.947 214.142 115.947ZM220.528 107.514C220.467 107.514 220.467 107.514 220.407 107.514L213.42 108.418C212.878 108.478 212.516 108.96 212.576 109.502L213.118 113.658C213.179 113.899 213.299 114.14 213.48 114.321C213.661 114.501 213.962 114.562 214.203 114.501L221.19 113.598C221.732 113.538 222.094 113.056 222.033 112.514L221.491 108.357C221.431 108.116 221.311 107.875 221.13 107.695C220.949 107.574 220.768 107.514 220.528 107.514Z" fill="#263238"/>
<path d="M237.153 133.898L206.372 137.934C205.047 138.114 203.782 137.151 203.601 135.825L200.951 115.706C200.77 114.381 201.734 113.116 203.059 112.936L233.84 108.9C235.165 108.719 236.43 109.683 236.611 111.008L239.261 131.127C239.502 132.452 238.538 133.717 237.153 133.898Z" fill="#263238"/>
<path d="M215.829 103.478L213.841 107.333L219.624 107.574C219.624 107.574 221.13 104.924 218.901 102.394L215.829 103.478Z" fill="#7F3E3B"/>
<path d="M216.07 110.285L219.504 109.803L219.624 107.574L213.841 107.333L213.902 108.598C214.022 109.622 214.986 110.405 216.07 110.285Z" fill="#7F3E3B"/>
<path d="M211.793 81.0703C211.733 81.5522 212.335 83.299 212.817 83.9616C213.299 84.6242 221.07 85.2266 222.033 83.7207C223.057 82.2148 223.057 79.4439 222.576 78.5403C222.154 77.6368 211.974 80.1065 211.793 81.0703Z" fill="#407BFF"/>
<path d="M98.308 62.2766C97.3442 63.5415 96.26 64.927 95.2962 66.3124C94.3324 67.6978 93.3686 69.0833 92.4651 70.4687C90.658 73.2396 88.9714 76.1309 87.7666 79.0223C87.6462 79.3837 87.4654 79.7451 87.345 80.1065C87.2847 80.2872 87.2245 80.4679 87.1643 80.6486L87.104 80.8896L87.0438 81.0101V81.0703C86.9836 81.251 86.9233 81.8534 86.9836 82.4557C87.104 83.7809 87.5257 85.3471 88.0678 86.9132C89.0918 90.0455 90.4773 93.238 91.8627 96.3703L88.7907 98.2979C86.5017 95.4066 84.5139 92.455 82.8272 89.0817C81.9839 87.3951 81.2611 85.6483 80.7792 83.4798C80.5383 82.3955 80.3576 81.1908 80.6587 79.6849L80.719 79.3837L80.7792 79.203L80.8394 78.8416C80.8997 78.6006 80.9599 78.3597 81.0202 78.1187C81.1406 77.6368 81.3213 77.1549 81.4418 76.673C82.7068 72.9384 84.4536 69.6856 86.321 66.5533C87.2847 64.9872 88.2485 63.4813 89.3328 61.9754C90.417 60.4695 91.441 59.084 92.6458 57.5781L98.308 62.2766Z" fill="#263238"/>
<path d="M90.9592 95.2861L94.1517 96.9727L90.4773 101.25C90.4773 101.25 88.1883 99.6834 88.1281 97.3342L90.9592 95.2861Z" fill="#FFC3BD"/>
<path d="M98.4285 99.5628L94.5131 102.695L90.4773 101.189L94.1517 96.9727L98.4285 99.5628Z" fill="#FFC3BD"/>
<path d="M145.774 86.1304L149.509 88.0579L149.208 89.3831L146.196 92.395C146.196 92.395 144.027 90.7083 144.088 88.3591L145.774 86.1304Z" fill="#FFC3BD"/>
<path d="M146.316 86.6121L149.75 86.0098L151.918 86.9133L150.473 87.1543L149.509 88.0578L146.316 86.6121Z" fill="#FFC3BD"/>
<path d="M153.244 92.8166L149.509 93.5997C149.147 93.6599 148.726 93.6599 148.364 93.4792L146.136 92.3949L149.147 89.3831L151.135 88.7808L153.605 91.6119C154.027 92.0335 153.786 92.7564 153.244 92.8166Z" fill="#FFC3BD"/>
<path d="M112.042 37.8811C112.102 38.3028 112.403 38.5438 112.644 38.5438C112.885 38.4835 113.066 38.1221 112.945 37.7004C112.885 37.2788 112.584 37.0378 112.343 37.0378C112.102 37.0981 111.921 37.4595 112.042 37.8811Z" fill="#263238"/>
<path d="M112.343 38.5435C112.343 38.5435 113.729 40.712 114.993 41.6155C114.391 42.3986 113.126 42.3986 113.126 42.3986L112.343 38.5435Z" fill="#FF5652"/>
<path d="M110.114 35.9535C110.054 35.9535 109.994 35.9535 109.934 35.8933C109.813 35.7728 109.813 35.6523 109.934 35.5319C110.837 34.5681 111.921 34.7488 111.982 34.7488C112.102 34.7488 112.223 34.8693 112.162 35.05C112.162 35.1704 112.042 35.2909 111.861 35.2307C111.801 35.2307 110.958 35.1102 110.235 35.8933C110.235 35.8933 110.175 35.9535 110.114 35.9535Z" fill="#263238"/>
<path d="M101.079 44.989C101.802 48.543 102.223 53.4823 99.6934 55.8316C99.6934 55.8316 100.657 59.4457 107.283 59.4457C114.572 59.4457 110.777 56.2532 110.777 56.2532C107.765 55.2894 107.765 51.856 108.488 49.1453L101.079 44.989Z" fill="#FFC3BD"/>
<path d="M98.6694 58.3012C98.0671 57.3374 98.2478 54.4461 98.9706 53.9642C100.115 53.1811 104.874 53.3016 111.199 55.1689C110.355 57.9398 111.741 59.5059 111.741 59.5059L98.6694 58.3012Z" fill="#407BFF"/>
<path opacity="0.2" d="M93.3686 63.4211C91.1399 65.6499 90.4773 70.2278 90.7182 73.2999C91.2604 72.3361 91.8627 71.4326 92.4651 70.4688C93.3686 69.0834 94.3324 67.6979 95.2962 66.3125C95.5974 65.9511 95.8383 65.5294 96.1395 65.168C96.1997 64.9271 96.26 64.6861 96.3202 64.4452L93.3686 63.4211Z" fill="black"/>
<path d="M77.3457 222.204C77.8276 222.325 78.3095 222.325 78.5505 222.144C78.6709 222.084 78.7312 221.903 78.6709 221.602C78.6107 221.421 78.5505 221.361 78.3698 221.24C77.7072 220.939 76.2013 221.542 76.141 221.542C76.0808 221.542 76.0808 221.602 76.0808 221.662C76.0808 221.722 76.0808 221.722 76.141 221.782C76.382 221.903 76.8639 222.084 77.3457 222.204ZM78.1891 221.421C78.2493 221.421 78.3095 221.421 78.3095 221.481C78.43 221.542 78.43 221.602 78.4902 221.662C78.5505 221.843 78.4902 221.963 78.43 221.963C78.189 222.204 77.2253 221.963 76.5024 221.722C76.9843 221.542 77.7072 221.361 78.1891 221.421Z" fill="#407BFF"/>
<path d="M76.2012 221.843C76.8036 221.662 78.0083 220.819 78.0083 220.276C78.0083 220.156 77.9481 219.975 77.7072 219.915C77.5264 219.855 77.3457 219.855 77.2253 219.975C76.5627 220.337 76.141 221.662 76.141 221.722C76.0808 221.722 76.0808 221.782 76.2012 221.843C76.141 221.782 76.141 221.843 76.2012 221.843ZM77.5867 220.096C77.7674 220.156 77.7674 220.216 77.7674 220.276C77.7674 220.578 76.9843 221.24 76.4422 221.541C76.5627 221.18 76.9241 220.397 77.3457 220.156C77.406 220.096 77.4662 220.096 77.5867 220.096Z" fill="#407BFF"/>
<path d="M113.247 223.047C113.849 223.047 114.451 222.987 114.692 222.686C114.753 222.566 114.813 222.445 114.692 222.204C114.632 222.084 114.512 221.963 114.331 221.963C113.548 221.722 111.801 222.686 111.741 222.746C111.68 222.746 111.68 222.806 111.68 222.867C111.68 222.927 111.741 222.927 111.801 222.987C112.042 222.987 112.644 223.047 113.247 223.047ZM114.03 222.084C114.09 222.084 114.21 222.084 114.271 222.084C114.391 222.084 114.451 222.144 114.512 222.264C114.572 222.385 114.572 222.505 114.512 222.505C114.271 222.806 113.066 222.806 112.162 222.686C112.584 222.505 113.427 222.084 114.03 222.084Z" fill="#407BFF"/>
<path d="M111.801 222.927C111.801 222.927 111.801 222.867 111.801 222.927C112.464 222.626 113.608 221.602 113.488 221.06C113.488 220.939 113.367 220.759 113.066 220.759C112.825 220.759 112.644 220.819 112.403 220.939C111.801 221.421 111.68 222.746 111.62 222.807C111.62 222.867 111.62 222.867 111.68 222.927C111.741 222.867 111.741 222.927 111.801 222.927ZM112.945 220.939H113.006C113.186 220.939 113.247 221.06 113.247 221.06C113.307 221.361 112.524 222.204 111.921 222.566C111.982 222.204 112.162 221.421 112.584 221.06C112.704 220.999 112.825 220.939 112.945 220.939Z" fill="#407BFF"/>
<path d="M106.44 222.806H111.319L111.801 211.542H106.922L106.44 222.806Z" fill="#FFC3BD"/>
<path d="M70.8402 220.698L75.5386 221.722L79.8154 210.94L75.117 209.916L70.8402 220.698Z" fill="#FFC3BD"/>
<path d="M75.9603 221.06L70.5993 219.915C70.4186 219.855 70.2379 219.975 70.1174 220.156L68.2501 224.192C68.0694 224.614 68.3103 225.095 68.7922 225.216C70.6595 225.577 71.5631 225.698 73.9123 226.18C75.358 226.481 78.6107 227.264 80.5985 227.746C82.5261 228.167 83.2489 226.24 82.5261 225.878C79.0324 224.312 77.5867 222.867 76.6229 221.602C76.5024 221.301 76.2615 221.12 75.9603 221.06Z" fill="#263238"/>
<path d="M111.259 222.204H105.958C105.777 222.204 105.597 222.325 105.536 222.566L104.573 226.903C104.452 227.324 104.814 227.746 105.295 227.746C107.223 227.686 109.994 227.625 112.403 227.625C115.234 227.625 116.198 227.806 119.511 227.806C121.499 227.806 122.041 225.818 121.198 225.577C117.403 224.734 115.716 224.674 112.464 222.626C112.042 222.385 111.68 222.204 111.259 222.204Z" fill="#263238"/>
<path opacity="0.2" d="M111.801 211.542L111.5 217.325H106.681L106.922 211.542H111.801Z" fill="black"/>
<path opacity="0.2" d="M75.117 209.976L79.8155 210.94L77.5867 216.482L72.8883 215.518L75.117 209.976Z" fill="black"/>
<path d="M109.934 99.2017C109.934 99.2017 104.392 136.307 101.38 150.222C98.067 165.462 80.2973 215.819 80.2973 215.819L71.6233 213.952C71.6233 213.952 84.032 172.871 86.8631 151.607C88.9714 135.223 93.1879 99.2017 93.1879 99.2017H109.934Z" fill="#263238"/>
<path opacity="0.1" d="M109.934 99.2017C109.934 99.2017 104.392 136.307 101.38 150.222C98.067 165.462 80.2973 215.819 80.2973 215.819L71.6233 213.952C71.6233 213.952 84.032 172.871 86.8631 151.607C88.9714 135.223 93.1879 99.2017 93.1879 99.2017H109.934Z" fill="white"/>
<path d="M82.3454 212.988C82.4056 212.988 80.719 216.12 80.719 216.12L70.9607 214.012L71.804 211.06L82.3454 212.988Z" fill="#263238"/>
<path opacity="0.3" d="M106.44 112.454C100.055 113.719 100.717 137.452 101.501 149.68C103.368 141.066 106.018 124.38 107.886 112.574C107.464 112.393 106.982 112.333 106.44 112.454Z" fill="black"/>
<path d="M119.15 99.2014C119.15 99.2014 119.812 135.524 119.27 150.342C118.728 165.763 113.367 216.18 113.367 216.18H105.115C105.115 216.18 104.814 166.606 104.452 151.486C104.03 134.982 102.043 99.1411 102.043 99.1411H119.15V99.2014Z" fill="#263238"/>
<path opacity="0.1" d="M119.15 99.2014C119.15 99.2014 119.812 135.524 119.27 150.342C118.728 165.763 113.367 216.18 113.367 216.18H105.115C105.115 216.18 104.814 166.606 104.452 151.486C104.03 134.982 102.043 99.1411 102.043 99.1411H119.15V99.2014Z" fill="white"/>
<path d="M114.933 212.928C114.993 212.928 114.451 216.361 114.451 216.361H104.452L104.211 213.289L114.933 212.928Z" fill="#263238"/>
<path d="M119.812 61.855C120.776 67.0956 122.643 81.7933 119.752 103.117L91.6218 102.695C91.4411 98.9606 94.3926 78.7212 91.682 60.7708C91.3808 58.6023 92.8867 56.6145 94.995 56.3735C96.4407 56.1928 98.0671 56.0121 99.6934 55.9519C103.006 55.7712 107.825 55.7109 110.717 55.9519C111.921 56.0724 113.126 56.2531 114.21 56.4338C117.042 56.8554 119.27 59.0239 119.812 61.855Z" fill="#263238"/>
<path opacity="0.2" d="M120.535 67.0354L115.777 68.2401C115.415 72.6374 118.306 77.6972 121.258 81.4921C121.318 75.5287 120.957 70.6496 120.535 67.0354Z" fill="black"/>
<path d="M118.608 59.4458C119.391 60.8915 120.294 62.4576 121.138 63.9033C122.041 65.4092 122.945 66.8549 123.848 68.3005C125.716 71.1919 127.703 73.9628 129.872 76.312C130.173 76.6132 130.414 76.8541 130.715 77.1553L130.896 77.336L131.077 77.4565C131.197 77.5769 131.318 77.6372 131.438 77.7577C131.98 78.1793 132.643 78.6612 133.366 79.0828C134.751 79.9262 136.317 80.8297 137.823 81.6128C140.895 83.2994 144.088 84.9258 147.28 86.5522L146.015 89.9856C142.461 89.1423 138.968 88.0581 135.534 86.7931C133.787 86.1305 132.101 85.4679 130.354 84.6246C129.51 84.2029 128.607 83.721 127.703 83.1187C127.462 82.938 127.221 82.8175 126.981 82.6368L126.619 82.3356L126.318 82.0947C125.896 81.7935 125.535 81.4321 125.173 81.0707C123.728 79.7455 122.403 78.2998 121.198 76.7939C119.993 75.3482 118.849 73.8423 117.825 72.2761C116.74 70.71 115.777 69.2041 114.813 67.5777C113.849 65.9513 112.945 64.3852 112.102 62.6986L118.608 59.4458Z" fill="#263238"/>
<path d="M98.3682 39.7481C99.6934 44.6272 100.175 47.5788 103.247 49.6268C107.825 52.6989 113.488 49.1449 113.668 43.9646C113.849 39.2662 111.68 32.0378 106.38 31.074C101.139 30.1103 97.043 34.8689 98.3682 39.7481Z" fill="#FFC3BD"/>
<path d="M108.548 39.8085C109.693 38.0616 110.175 35.4715 109.331 34.2065C110.114 34.5077 115.596 34.9294 113.427 30.9538C111.259 27.0384 106.922 25.9541 103.127 27.0384C104.03 27.2793 104.994 27.5805 104.994 27.5805C104.994 27.5805 99.8139 27.2191 97.3442 29.2671C98.1273 29.3274 98.7899 29.2671 98.7899 29.2671C98.7899 29.2671 93.2481 31.8573 95.6576 33.8451C91.8024 36.7967 94.3926 40.8928 100.778 46.9766C101.862 48.0006 105.054 47.6392 105.717 47.0369C105.356 44.3865 107.886 40.7723 108.548 39.8085Z" fill="#263238"/>
<path d="M109.211 36.4954C110.355 37.3387 111.801 39.8084 112.403 41.0131C113.066 42.2178 113.729 42.0973 114.09 42.5792C114.391 43.0611 115.777 51.3135 114.331 52.6387C112.885 53.9639 108.488 51.8556 107.946 50.3497C107.404 48.8438 108.428 45.1092 108.729 44.2659C109.03 43.4225 108.97 41.3143 108.488 39.8686C107.946 38.4229 109.211 36.4954 109.211 36.4954Z" fill="#263238"/>
<path d="M106.621 40.0493C106.982 41.3142 107.825 42.4587 108.849 42.9406C110.175 43.543 110.355 41.9768 110.114 40.5312C109.873 39.206 109.512 38.1217 108.428 37.5796C107.102 36.917 106.199 38.6036 106.621 40.0493Z" fill="#FFC3BD"/>
</svg>
