<svg width="300" height="223" viewBox="0 0 300 223" fill="none" xmlns="http://www.w3.org/2000/svg">
<path d="M299.07 195.813H0.111359V195.932H299.07V195.813Z" fill="#EBEBEB"/>
<path d="M47.048 201.553H31.5021V201.672H47.048V201.553Z" fill="#EBEBEB"/>
<path d="M119.934 199.939H87.5868V200.058H119.934V199.939Z" fill="#EBEBEB"/>
<path d="M63.3711 207.114H47.6458V207.233H63.3711V207.114Z" fill="#EBEBEB"/>
<path d="M269.115 206.097H257.635V206.217H269.115V206.097Z" fill="#EBEBEB"/>
<path d="M252.313 206.097H234.196V206.217H252.313V206.097Z" fill="#EBEBEB"/>
<path d="M187.14 203.586H154.494V203.706H187.14V203.586Z" fill="#EBEBEB"/>
<path d="M141.818 169.146H26.36C24.5064 169.146 22.9518 167.591 22.9518 165.738V3.46258C22.9518 1.60903 24.5064 0.0544434 26.36 0.0544434H141.818C143.671 0.0544434 145.226 1.60903 145.226 3.46258V165.738C145.226 167.651 143.731 169.146 141.818 169.146ZM26.36 0.174027C24.5662 0.174027 23.0714 1.60903 23.0714 3.46258V165.738C23.0714 167.531 24.5064 169.026 26.36 169.026H141.818C143.612 169.026 145.106 167.591 145.106 165.738V3.46258C145.106 1.66882 143.671 0.174027 141.818 0.174027H26.36Z" fill="#EBEBEB"/>
<path d="M271.148 169.146H155.69C153.836 169.146 152.282 167.591 152.282 165.738V3.46258C152.282 1.60903 153.836 0.0544434 155.69 0.0544434H271.148C273.001 0.0544434 274.556 1.60903 274.556 3.46258V165.738C274.556 167.651 273.061 169.146 271.148 169.146ZM155.69 0.174027C153.896 0.174027 152.401 1.60903 152.401 3.46258V165.738C152.401 167.531 153.836 169.026 155.69 169.026H271.148C272.941 169.026 274.436 167.591 274.436 165.738V3.46258C274.436 1.66882 273.001 0.174027 271.148 0.174027H155.69Z" fill="#EBEBEB"/>
<path d="M263.973 133.031H247.53V195.872H263.973V133.031Z" fill="#E6E6E6"/>
<path d="M260.804 195.813H263.973V186.964H257.575L260.804 195.813Z" fill="#F0F0F0"/>
<path d="M170.099 133.031H153.657V195.873H170.099V133.031Z" fill="#E6E6E6"/>
<path d="M263.973 133.031H167.409V190.372H263.973V133.031Z" fill="#F0F0F0"/>
<path d="M170.621 135.948V179.297H199.261V135.948H170.621Z" fill="#E6E6E6"/>
<path d="M187.738 138.413H182.058C179.606 138.413 177.275 137.396 175.541 135.602H194.196C192.581 137.396 190.19 138.413 187.738 138.413Z" fill="#F0F0F0"/>
<path d="M201.376 135.911V179.26H230.016V135.911H201.376Z" fill="#E6E6E6"/>
<path d="M218.77 138.413H213.09C210.638 138.413 208.306 137.396 206.572 135.602H225.227C223.613 137.396 221.221 138.413 218.77 138.413Z" fill="#F0F0F0"/>
<path d="M232.132 135.933V179.282H260.772V135.933H232.132Z" fill="#E6E6E6"/>
<path d="M249.563 138.413H243.883C241.431 138.413 239.099 137.396 237.365 135.602H256.02C254.346 137.396 252.014 138.413 249.563 138.413Z" fill="#F0F0F0"/>
<path d="M170.518 195.813H167.409V186.964H173.807L170.518 195.813Z" fill="#F0F0F0"/>
<path d="M131.534 11.4148H40.9492V96.2593H131.534V11.4148Z" fill="#E6E6E6"/>
<path d="M134.763 11.4148H42.444V96.2593H134.763V11.4148Z" fill="#F0F0F0"/>
<path d="M131.534 96.2593H40.9492V102.298H131.534V96.2593Z" fill="#E6E6E6"/>
<path d="M140.204 96.2593H47.8851V102.298H140.204V96.2593Z" fill="#F0F0F0"/>
<path d="M130.21 91.7669V16.0107L46.9801 16.0107L46.9801 91.7669L130.21 91.7669Z" fill="#FAFAFA"/>
<path d="M55.7177 91.7152L82.4447 16.0188H95.0607L68.3338 91.7152H55.7177Z" fill="white"/>
<path d="M49.0809 66.005C49.2603 66.005 49.3799 65.8854 49.3799 65.7061V18.9489C49.3799 18.7695 49.2603 18.6499 49.0809 18.6499C48.9015 18.6499 48.782 18.7695 48.782 18.9489V65.7061C48.782 65.8854 48.9015 66.005 49.0809 66.005Z" fill="#F0F0F0"/>
<path d="M71.0245 91.7152L97.7514 16.0188H102.714L75.9872 91.7152H71.0245Z" fill="white"/>
<path d="M130.211 91.7667V16.0105H129.613V91.7667H130.211Z" fill="#E6E6E6"/>
<path opacity="0.5" d="M135.839 23.8517H45.2542L44.8357 17.7529H135.42L135.839 23.8517Z" fill="#E6E6E6"/>
<path opacity="0.5" d="M135.839 28.2765H45.2542L44.8357 22.2375H135.42L135.839 28.2765Z" fill="#E6E6E6"/>
<path opacity="0.5" d="M135.839 33.6576H45.2542L44.8357 27.5588H135.42L135.839 33.6576Z" fill="#E6E6E6"/>
<path opacity="0.5" d="M135.839 39.5765H45.2542L44.8357 33.4778H135.42L135.839 39.5765Z" fill="#E6E6E6"/>
<path opacity="0.5" d="M135.839 46.692H45.2542L44.8357 40.5933H135.42L135.839 46.692Z" fill="#E6E6E6"/>
<path opacity="0.5" d="M135.839 54.7042H45.2542L44.8357 48.6055H135.42L135.839 54.7042Z" fill="#E6E6E6"/>
<path d="M136.796 139.489H110.009V195.813H136.796V139.489Z" fill="#E6E6E6"/>
<path d="M134.105 195.812H136.795V188.159H131.295L134.105 195.812Z" fill="#F0F0F0"/>
<path d="M70.8451 139.489H44.0583V195.813H70.8451V139.489Z" fill="#E6E6E6"/>
<path d="M136.795 139.489H68.5132V191.089H136.795V139.489Z" fill="#F0F0F0"/>
<path d="M134.703 141.821H70.6059V155.991H134.703V141.821Z" fill="#E6E6E6"/>
<path d="M105.704 146.185H99.6647C97.0339 146.185 94.5226 144.451 92.7289 141.342H112.699C110.846 144.451 108.335 146.185 105.704 146.185Z" fill="#F0F0F0"/>
<path d="M71.2039 195.812H68.5132V188.159H74.0141L71.2039 195.812Z" fill="#F0F0F0"/>
<path d="M134.703 158.263H70.6059V172.434H134.703V158.263Z" fill="#E6E6E6"/>
<path d="M105.704 162.628H99.6647C97.0339 162.628 94.5226 160.894 92.7289 157.785H112.699C110.846 160.894 108.335 162.628 105.704 162.628Z" fill="#F0F0F0"/>
<path d="M134.703 174.706H70.6059V188.877H134.703V174.706Z" fill="#E6E6E6"/>
<path d="M105.704 179.071H99.6647C97.0339 179.071 94.5226 177.337 92.7289 174.228H112.699C110.846 177.337 108.335 179.071 105.704 179.071Z" fill="#F0F0F0"/>
<path d="M245.078 23.0745H193V92.6721H245.078V23.0745Z" fill="#E6E6E6"/>
<path d="M248.427 23.0742H193.717V92.6719H248.427V23.0742Z" fill="#F0F0F0"/>
<path d="M240.839 85.1136V30.6433L201.257 30.6433V85.1136H240.839Z" fill="white"/>
<path d="M240.891 85.1212V30.6509H240.293V85.1212H240.891Z" fill="#E6E6E6"/>
<path d="M221.819 46.3933H209.981C209.741 46.3933 209.562 46.5727 209.562 46.8119V58.6506C209.562 64.57 214.405 69.4132 220.325 69.4132H232.163C232.403 69.4132 232.582 69.2338 232.582 68.9946V57.1558C232.582 51.2364 227.799 46.3933 221.819 46.3933ZM220.325 68.5163C214.884 68.5163 210.399 64.0917 210.399 58.5908V47.2304H221.76C227.201 47.2304 231.685 51.655 231.685 57.1558L220.325 68.5163Z" fill="#F0F0F0"/>
<path d="M149.591 222.839C213.621 222.839 265.527 219.814 265.527 216.082C265.527 212.351 213.621 209.326 149.591 209.326C85.561 209.326 33.6546 212.351 33.6546 216.082C33.6546 219.814 85.561 222.839 149.591 222.839Z" fill="#F5F5F5"/>
<path d="M147.558 19.8459C147.02 16.5573 149.232 13.8667 152.521 13.8667H146.541H128.425C125.136 13.8667 122.864 16.5573 123.462 19.8459H147.558Z" fill="#407BFF"/>
<path opacity="0.3" d="M147.558 19.8459C147.02 16.5573 149.232 13.8667 152.521 13.8667H146.541H128.425C125.136 13.8667 122.864 16.5573 123.462 19.8459H147.558Z" fill="black"/>
<path d="M152.521 13.8667H134.404H128.425C131.713 13.8667 134.822 16.5573 135.42 19.8459L140.682 51.7149C141.22 55.0035 144.329 57.6941 147.678 57.6941H159.815C163.104 57.6941 165.376 55.0035 164.778 51.7149L159.516 19.8459C158.978 16.5573 155.869 13.8667 152.521 13.8667Z" fill="#407BFF"/>
<path d="M152.64 51.7148C153.178 55.0034 150.966 57.694 147.678 57.694H153.657H171.774C175.062 57.694 177.334 55.0034 176.736 51.7148H152.64Z" fill="#407BFF"/>
<path opacity="0.3" d="M152.64 51.7148C153.178 55.0034 150.966 57.694 147.678 57.694H153.657H171.774C175.062 57.694 177.334 55.0034 176.736 51.7148H152.64Z" fill="black"/>
<path d="M156.527 22.5962H139.307C139.127 22.5962 138.948 22.4168 138.888 22.2374C138.828 22.058 139.008 21.8787 139.187 21.8787H156.407C156.587 21.8787 156.766 22.058 156.826 22.2374C156.826 22.4168 156.706 22.5962 156.527 22.5962Z" fill="white"/>
<path d="M146.96 25.0473H139.665C139.486 25.0473 139.307 24.868 139.247 24.6886C139.187 24.5092 139.366 24.3298 139.546 24.3298H146.84C147.02 24.3298 147.199 24.5092 147.259 24.6886C147.319 24.9278 147.199 25.0473 146.96 25.0473Z" fill="white"/>
<path d="M153.716 25.0473H148.694C148.515 25.0473 148.335 24.868 148.275 24.6886C148.216 24.5092 148.395 24.3298 148.574 24.3298H153.597C153.776 24.3298 153.956 24.5092 154.015 24.6886C154.015 24.9278 153.896 25.0473 153.716 25.0473Z" fill="white"/>
<path d="M157.364 27.5586H140.144C139.964 27.5586 139.785 27.3792 139.725 27.1998C139.665 27.0204 139.845 26.8411 140.024 26.8411H157.244C157.424 26.8411 157.603 27.0204 157.663 27.1998C157.663 27.3792 157.543 27.5586 157.364 27.5586Z" fill="white"/>
<path d="M156.048 30.07H140.502C140.323 30.07 140.144 29.8907 140.084 29.7113C140.024 29.5319 140.204 29.3525 140.383 29.3525H155.929C156.108 29.3525 156.288 29.5319 156.347 29.7113C156.407 29.8907 156.228 30.07 156.048 30.07Z" fill="white"/>
<path d="M151.385 32.5215H140.921C140.742 32.5215 140.562 32.3421 140.502 32.1627C140.443 31.9833 140.622 31.804 140.801 31.804H151.265C151.444 31.804 151.624 31.9833 151.684 32.1627C151.743 32.4019 151.564 32.5215 151.385 32.5215Z" fill="white"/>
<path d="M158.56 35.0327H141.34C141.16 35.0327 140.981 34.8533 140.921 34.6739C140.861 34.4946 141.041 34.3152 141.22 34.3152H158.44C158.619 34.3152 158.799 34.4946 158.859 34.6739C158.918 34.8533 158.799 35.0327 158.56 35.0327Z" fill="white"/>
<path d="M158.978 37.5439H141.758C141.579 37.5439 141.399 37.3645 141.34 37.1852C141.28 37.0058 141.459 36.8264 141.638 36.8264H158.859C159.038 36.8264 159.217 37.0058 159.277 37.1852C159.337 37.3645 159.217 37.5439 158.978 37.5439Z" fill="white"/>
<path d="M152.64 39.9956H142.177C141.997 39.9956 141.818 39.8162 141.758 39.6368C141.698 39.4575 141.878 39.2781 142.057 39.2781H152.521C152.7 39.2781 152.879 39.4575 152.939 39.6368C152.939 39.876 152.82 39.9956 152.64 39.9956Z" fill="white"/>
<path d="M162.502 46.8679L163.569 47.5298L180.084 20.9048L179.017 20.2429L162.502 46.8679Z" fill="#263238"/>
<path opacity="0.3" d="M162.502 46.8679L163.569 47.5298L180.084 20.9048L179.017 20.2429L162.502 46.8679Z" fill="black"/>
<path d="M160.361 45.5174L161.428 46.1792L177.943 19.5542L176.876 18.8924L160.361 45.5174Z" fill="#263238"/>
<path opacity="0.3" d="M160.361 45.5174L161.428 46.1792L177.943 19.5542L176.876 18.8924L160.361 45.5174Z" fill="black"/>
<path d="M161.435 46.1895L162.502 46.8513L179.016 20.2263L177.949 19.5645L161.435 46.1895Z" fill="#263238"/>
<path d="M160.353 48.0669L161.31 48.6648L163.582 47.5288L160.353 45.4958V48.0669Z" fill="#FF8B7B"/>
<path d="M160.294 49.2032L161.31 48.6651L160.353 48.0671L160.294 49.2032Z" fill="#263238"/>
<path d="M159.755 49.3825C159.696 49.3825 159.696 49.3825 159.755 49.3825C158.859 49.0836 158.261 48.4856 157.663 47.8279C157.304 47.4692 156.945 47.1104 156.527 46.8115C156.347 46.6919 156.168 46.6919 156.108 46.8115C156.048 46.8713 155.989 47.0506 156.108 47.23C156.228 47.4692 156.407 47.6485 156.586 47.8279C156.706 48.0073 156.766 48.1867 156.646 48.3661C156.527 48.4856 156.347 48.5454 156.168 48.4856C155.929 48.4258 155.69 48.3063 155.51 48.2465C155.45 48.2465 155.391 48.2465 155.391 48.2465C155.331 48.3063 155.331 48.3063 155.391 48.3661L155.45 48.4258C155.51 48.6052 155.51 48.7846 155.391 48.9042C155.271 49.0238 155.151 49.1433 154.972 49.0836C152.341 48.964 149.95 48.964 147.08 49.0836C147.02 49.0836 146.9 49.0238 146.9 48.964C146.9 48.9042 146.96 48.7846 147.02 48.7846C149.89 48.665 152.341 48.6052 154.972 48.7846C155.032 48.7846 155.092 48.7846 155.151 48.7248C155.211 48.665 155.211 48.6052 155.151 48.5454V48.4856C155.092 48.3063 155.092 48.1269 155.211 48.0073C155.331 47.8877 155.51 47.8877 155.69 47.9475C155.869 48.0671 156.108 48.1269 156.347 48.1867C156.407 48.1867 156.467 48.1867 156.467 48.1867C156.467 48.1269 156.467 48.0671 156.407 48.0073C156.228 47.8279 156.048 47.5888 155.929 47.3496C155.749 47.0506 155.809 46.7517 155.989 46.5723C156.228 46.3929 156.527 46.3331 156.826 46.5723C157.244 46.8713 157.603 47.23 158.021 47.6485C158.619 48.2465 159.217 48.8444 159.935 49.0836C159.995 49.0836 160.054 49.2031 160.054 49.2629C159.875 49.3825 159.815 49.3825 159.755 49.3825Z" fill="white"/>
<path d="M157.184 71.3265L161.19 64.3906H153.178L157.184 71.3265Z" fill="#407BFF"/>
<path d="M202.088 50.9972C200.175 49.323 197.962 48.7251 195.929 48.7849C194.494 45.8551 191.505 44.1211 188.336 44.7191C183.792 45.5561 182.417 50.9972 185.586 53.0301C186.662 53.6878 187.798 54.226 188.934 54.5847C188.934 54.6445 188.934 54.7043 188.934 54.7043C185.167 56.1393 182.476 59.4278 182.177 63.5535C181.699 70.3099 188.994 74.2562 192.94 70.4893C193.478 69.9512 194.016 69.4131 194.494 68.8152C195.272 69.8914 196.109 70.9677 196.946 72.1635C206.812 67.6193 208.486 56.498 202.088 50.9972Z" fill="#263238"/>
<path d="M182.177 77.3056C182.118 78.1426 182.058 78.8601 181.938 79.6374C181.819 80.4147 181.699 81.1322 181.579 81.9095C181.34 83.4043 180.982 84.8991 180.623 86.3939C179.905 89.3237 178.889 92.2535 177.573 95.0637L177.454 95.3029C177.394 95.4225 177.394 95.4225 177.274 95.6018C177.155 95.9008 176.976 96.1998 176.736 96.4389C176.318 96.9771 175.839 97.3358 175.361 97.6946C174.404 98.2925 173.448 98.5316 172.551 98.711C170.817 99.01 169.203 98.9502 167.648 98.7708C164.539 98.4121 161.669 97.6946 158.799 96.6183L159.457 94.2266C160.832 94.406 162.267 94.6452 163.702 94.7648C165.137 94.8843 166.512 95.0039 167.887 95.0039C169.262 95.0039 170.578 94.8843 171.714 94.5854C172.252 94.4658 172.73 94.2266 172.969 94.0473C173.089 93.9277 173.149 93.8679 173.209 93.8081C173.209 93.7483 173.268 93.7483 173.268 93.6885L173.448 93.27C173.687 92.6122 173.926 91.9545 174.165 91.2968C174.404 90.6391 174.584 89.9814 174.823 89.3237C175.182 88.0083 175.6 86.6331 175.899 85.2579C176.198 83.8827 176.437 82.5074 176.677 81.1322C176.916 79.757 177.095 78.322 177.215 77.0066L182.177 77.3056Z" fill="#FFB573"/>
<path d="M178.769 71.3266C176.736 71.8647 175.361 80.116 175.361 80.116L180.922 83.8828C180.922 83.8828 186.243 75.512 184.689 73.2997C183.074 71.0276 181.759 70.5493 178.769 71.3266Z" fill="#263238"/>
<path opacity="0.2" d="M178.949 73.1799L177.394 81.5508L180.563 83.6435L178.949 73.1799Z" fill="black"/>
<path d="M157.424 94.2867L153.657 95.7815L157.902 98.3526C157.902 98.3526 160.652 96.798 160.533 94.765L160.114 94.5259C159.337 94.0475 158.32 93.928 157.424 94.2867Z" fill="#FFB573"/>
<path opacity="0.1" d="M157.184 94.4661C157.184 94.4661 156.048 94.8248 155.331 95.1238C154.673 95.3629 154.255 95.5423 154.255 95.5423C154.255 95.5423 155.51 96.0804 156.108 95.7217C156.945 95.9011 158.918 95.5423 158.918 95.5423L157.184 94.4661Z" fill="black"/>
<path d="M151.325 98.5317L154.554 101.222L157.962 98.3523L153.657 95.7812L151.325 98.5317Z" fill="#FFB573"/>
<path d="M189.711 211.06H184.808L184.509 199.759H189.352L189.711 211.06Z" fill="#FFB573"/>
<path d="M184.629 210.521H190.13C190.309 210.521 190.488 210.641 190.548 210.88L191.146 215.245C191.206 215.723 190.847 216.142 190.369 216.142C188.455 216.082 187.499 216.022 185.107 216.022C183.612 216.022 179.367 216.202 177.274 216.202C175.241 216.202 175.122 214.169 175.959 213.989C179.786 213.152 182.476 212.016 183.792 210.94C184.031 210.641 184.33 210.521 184.629 210.521Z" fill="#263238"/>
<g opacity="0.2">
<path opacity="0.2" d="M184.509 199.759L184.629 205.559H189.532L189.412 199.759H184.509Z" fill="black"/>
</g>
<path d="M178.769 71.3264C178.769 71.3264 176.437 72.1635 181.101 100.864C188.994 100.864 197.125 100.864 201.012 100.864C200.653 92.7917 200.653 87.7692 204.539 71.1471C204.539 71.1471 200.354 70.2502 196.109 70.011C192.76 69.8316 190.01 69.7719 187.08 70.011C183.194 70.4296 178.769 71.3264 178.769 71.3264Z" fill="#263238"/>
<path d="M192.462 79.2192C189.95 79.2192 187.917 77.844 187.858 77.7842C187.798 77.7244 187.798 77.6646 187.798 77.6049C187.858 77.5451 187.917 77.5451 187.977 77.5451C187.977 77.5451 190.309 79.1594 192.94 78.9203C193.598 78.5017 198.082 75.5121 198.441 70.3103C198.441 70.2505 198.5 70.1907 198.62 70.1907C198.68 70.1907 198.74 70.2505 198.74 70.37C198.381 75.6915 193.956 78.6811 193.059 79.2192H193C192.88 79.2192 192.701 79.2192 192.462 79.2192Z" fill="white"/>
<path d="M184.031 78.2622H183.971C183.612 78.0231 183.373 77.5447 183.254 76.8272C182.955 74.9737 183.672 71.8047 185.047 70.1904C185.107 70.1306 185.167 70.1306 185.287 70.1904C185.346 70.2501 185.346 70.3099 185.287 70.4295C183.971 71.9841 183.254 75.0933 183.553 76.8272C183.672 77.4252 183.852 77.8437 184.091 78.0231C184.868 78.0231 186.482 77.2458 186.482 77.2458C186.542 77.186 186.662 77.2458 186.662 77.3056C186.722 77.3654 186.662 77.4849 186.602 77.4849C186.542 77.5447 184.868 78.2622 184.031 78.2622Z" fill="white"/>
<path d="M195.212 59.9062C194.614 62.836 194.076 68.1575 196.109 70.0709C196.109 70.0709 195.332 73.0007 189.891 73.0007C183.971 73.0007 187.08 70.0709 187.08 70.0709C190.309 69.2936 190.249 66.9019 189.651 64.6298L195.212 59.9062Z" fill="#FFB573"/>
<path d="M196.109 70.071C192.76 69.8916 190.01 69.7721 187.08 70.071C186.901 70.071 186.662 70.1308 186.482 70.1308C185.765 71.506 185.585 73.5987 187.319 76.6481C187.319 76.6481 195.212 73.4791 197.305 70.1308C196.886 70.1308 196.468 70.071 196.109 70.071Z" fill="#FFB573"/>
<path opacity="0.2" d="M192.94 61.8196L189.651 64.6298C189.771 65.1679 189.891 65.706 189.95 66.2442C191.206 66.0648 192.88 64.6896 193 63.434C193.059 62.7762 193.059 62.1185 192.94 61.8196Z" fill="black"/>
<path d="M198.321 54.8835C197.185 59.6071 196.826 61.64 194.016 63.6729C189.771 66.7223 184.21 64.3306 183.852 59.3679C183.553 54.8835 185.406 47.8879 190.429 46.8116C195.391 45.7354 199.457 50.1599 198.321 54.8835Z" fill="#FFB573"/>
<path d="M181.101 100.864C181.101 100.864 177.215 138.592 177.573 153.481C177.932 169.026 183.612 204.423 183.612 204.423H190.249C190.249 204.423 189.173 169.923 189.771 154.676C190.429 138.054 195.69 100.864 195.69 100.864H181.101Z" fill="#407BFF"/>
<path opacity="0.3" d="M181.101 100.864C181.101 100.864 177.215 138.592 177.573 153.481C177.932 169.026 183.612 204.423 183.612 204.423H190.249C190.249 204.423 189.173 169.923 189.771 154.676C190.429 138.054 195.69 100.864 195.69 100.864H181.101Z" fill="white"/>
<path d="M190.787 204.662H183.014L182.476 202.211L191.146 201.912L190.787 204.662Z" fill="#263238"/>
<path opacity="0.2" d="M189.711 110.251C184.808 120.057 188.754 137.994 190.429 144.691C191.325 134.706 192.82 122.448 193.956 113.42C193.239 108.337 191.983 105.707 189.711 110.251Z" fill="black"/>
<path d="M212.611 211.06H207.708L205.915 199.759H210.818L212.611 211.06Z" fill="#FFB573"/>
<path d="M207.469 210.521H212.97C213.149 210.521 213.329 210.641 213.389 210.88L214.584 215.245C214.704 215.723 214.405 216.142 213.927 216.142C212.013 216.082 211.057 216.022 208.665 216.022C207.17 216.022 202.925 216.202 200.892 216.202C198.859 216.202 198.441 214.169 199.278 213.989C202.985 213.152 205.556 212.016 206.692 210.94C206.871 210.641 207.17 210.521 207.469 210.521Z" fill="#263238"/>
<g opacity="0.2">
<path opacity="0.2" d="M205.915 199.759L206.812 205.559H211.715L210.818 199.759H205.915Z" fill="black"/>
</g>
<path d="M186.602 100.864C186.602 100.864 190.728 138.592 193 153.481C195.332 169.026 205.616 204.423 205.616 204.423H212.253C212.253 204.423 206.752 169.923 205.317 154.676C203.822 138.054 201.191 100.864 201.191 100.864H186.602Z" fill="#407BFF"/>
<path opacity="0.3" d="M186.602 100.864C186.602 100.864 190.728 138.592 193 153.481C195.332 169.026 205.616 204.423 205.616 204.423H212.253C212.253 204.423 206.752 169.923 205.317 154.676C203.822 138.054 201.191 100.864 201.191 100.864H186.602Z" fill="white"/>
<path d="M212.851 204.662H205.078L204.181 202.211L212.851 201.912V204.662Z" fill="#263238"/>
<path d="M205.735 211.359C205.257 211.359 204.779 211.299 204.48 211.06C204.3 210.94 204.181 210.701 204.181 210.522C204.181 210.402 204.241 210.282 204.36 210.223C204.898 209.924 206.991 210.88 207.23 211C207.29 211 207.29 211.06 207.29 211.119C207.29 211.179 207.23 211.179 207.23 211.239C206.812 211.299 206.273 211.359 205.735 211.359ZM204.719 210.342C204.599 210.342 204.539 210.342 204.48 210.402C204.42 210.402 204.42 210.462 204.42 210.522C204.42 210.701 204.48 210.821 204.599 210.88C204.958 211.119 205.735 211.179 206.812 211C206.094 210.701 205.197 210.342 204.719 210.342Z" fill="#407BFF"/>
<path d="M207.23 211.179C207.23 211.179 207.17 211.179 207.23 211.179C206.572 210.88 205.257 209.864 205.317 209.266C205.317 209.146 205.377 208.967 205.735 208.967C205.974 208.967 206.214 209.027 206.393 209.146C207.051 209.685 207.35 211 207.35 211.06C207.35 211.12 207.35 211.12 207.29 211.179H207.23ZM205.795 209.206H205.735C205.556 209.206 205.496 209.326 205.496 209.326C205.496 209.685 206.393 210.462 206.991 210.821C206.871 210.462 206.632 209.625 206.154 209.326C206.094 209.266 205.915 209.206 205.795 209.206Z" fill="#407BFF"/>
<path d="M190.488 54.8237C190.429 55.2423 190.189 55.4814 189.89 55.4217C189.651 55.3619 189.472 55.0031 189.532 54.6444C189.592 54.2258 189.831 53.9867 190.13 54.0464C190.429 54.1062 190.548 54.465 190.488 54.8237Z" fill="#263238"/>
<path d="M186.064 54.1065C186.004 54.525 185.765 54.7642 185.466 54.7044C185.227 54.6446 185.047 54.2858 185.107 53.9271C185.167 53.5085 185.406 53.2694 185.705 53.3292C186.004 53.3292 186.183 53.6879 186.064 54.1065Z" fill="#263238"/>
<path d="M185.884 53.3292L184.988 52.9106C184.988 52.9106 185.346 53.7477 185.884 53.3292Z" fill="#263238"/>
<path d="M187.319 55.0034C187.319 55.0034 186.363 56.558 185.526 57.2755C185.944 57.8136 186.841 57.7538 186.841 57.7538L187.319 55.0034Z" fill="#ED893E"/>
<path d="M188.754 59.6672C188.575 59.6672 188.396 59.6672 188.157 59.6074C188.097 59.6074 188.037 59.5477 188.037 59.4879C188.037 59.4281 188.097 59.3683 188.157 59.3683C189.89 59.6672 190.847 58.591 190.847 58.591C190.907 58.5312 190.967 58.5312 191.027 58.591C191.086 58.6508 191.086 58.7106 191.027 58.7704C191.027 58.7704 190.189 59.6672 188.754 59.6672Z" fill="#263238"/>
<path d="M200.653 47.5294C200.055 47.1108 199.397 46.8717 198.8 46.7521C198.261 42.0883 194.495 39.0987 190.369 40.0554C185.645 41.1317 183.971 46.9913 187.2 48.9644C189.113 50.1602 191.086 50.6983 193.358 50.9375C193.418 54.824 195.87 58.1125 197.544 58.2919C202.327 56.3786 203.523 49.5623 200.653 47.5294Z" fill="#263238"/>
<path d="M198.859 59.4876C198.381 60.3845 197.484 60.9226 196.707 61.102C195.511 61.401 194.913 60.3247 195.272 59.1887C195.571 58.1722 196.587 56.797 197.783 56.9764C199.039 57.2155 199.457 58.4712 198.859 59.4876Z" fill="#FFB573"/>
<path d="M192.402 54.226C192.282 54.226 192.222 54.1662 192.163 54.0467C191.864 53.0302 190.548 52.6117 190.548 52.5519C190.429 52.4921 190.369 52.3725 190.429 52.2529C190.488 52.1333 190.608 52.0735 190.728 52.1333C190.787 52.1333 192.282 52.6714 192.641 53.9271C192.701 54.0467 192.581 54.1662 192.461 54.226C192.461 54.226 192.461 54.226 192.402 54.226Z" fill="#263238"/>
<path d="M185.107 51.8343C185.047 51.8343 184.928 51.7745 184.928 51.7147C184.868 51.5951 184.928 51.4755 184.988 51.4157C186.124 50.758 187.08 51.2363 187.08 51.2961C187.2 51.3559 187.26 51.4755 187.2 51.5951C187.14 51.7147 187.02 51.7745 186.901 51.7147C186.841 51.7147 186.124 51.3559 185.227 51.8343C185.227 51.8343 185.167 51.8343 185.107 51.8343Z" fill="#263238"/>
<path d="M206.812 76.887C207.41 79.6972 207.828 82.4476 208.127 85.3176C208.486 88.1278 208.725 90.9978 208.725 93.8678C208.725 93.9874 208.725 94.2864 208.725 94.5853C208.725 94.8245 208.665 95.0637 208.665 95.3028C208.605 95.7214 208.546 96.1399 208.426 96.4987C208.247 97.276 208.007 97.9935 207.768 98.6512C207.29 100.026 206.752 101.342 206.154 102.657C204.958 105.228 203.702 107.74 202.267 110.191L199.995 109.175L201.311 105.228C201.789 103.913 202.208 102.597 202.566 101.282C202.985 99.9666 203.344 98.6512 203.702 97.3955C203.882 96.7378 204.001 96.1399 204.121 95.542C204.181 95.243 204.181 94.9441 204.241 94.7049C204.241 94.5853 204.241 94.4657 204.241 94.3462V93.9874C204.121 92.672 204.001 91.2968 203.822 89.9216L203.284 85.8557C202.865 83.1651 202.387 80.4147 201.968 77.724L206.812 76.887Z" fill="#FFB573"/>
<path d="M204.539 71.2067C206.513 71.8046 208.904 78.6807 208.904 78.6807L201.191 84.1815C201.191 84.1815 198.381 78.4415 199.218 75.8705C200.055 73.1799 202.267 70.4892 204.539 71.2067Z" fill="#263238"/>
<path d="M182.835 211.359C182.357 211.359 181.878 211.299 181.639 211.06C181.46 210.94 181.4 210.701 181.4 210.522C181.4 210.402 181.46 210.282 181.579 210.223C182.177 209.924 184.151 210.88 184.33 211C184.39 211 184.39 211.06 184.39 211.119C184.39 211.179 184.33 211.179 184.27 211.239C183.911 211.299 183.373 211.359 182.835 211.359ZM181.938 210.342C181.819 210.342 181.759 210.342 181.699 210.402C181.639 210.402 181.639 210.462 181.639 210.522C181.639 210.701 181.639 210.821 181.759 210.88C182.058 211.119 182.835 211.179 183.971 211C183.313 210.701 182.417 210.342 181.938 210.342Z" fill="#407BFF"/>
<path d="M184.33 211.179C184.33 211.179 184.27 211.179 184.33 211.179C183.672 210.88 182.536 209.864 182.656 209.266C182.656 209.146 182.775 208.967 183.074 208.967C183.313 208.967 183.552 209.027 183.732 209.146C184.33 209.685 184.449 211 184.449 211.06C184.449 211.12 184.449 211.12 184.39 211.179H184.33ZM183.134 209.206H183.074C182.835 209.206 182.835 209.326 182.835 209.326C182.775 209.685 183.552 210.462 184.15 210.821C184.091 210.462 183.911 209.625 183.552 209.326C183.433 209.266 183.313 209.206 183.134 209.206Z" fill="#407BFF"/>
<path d="M190.249 54.1065L189.352 53.688C189.352 53.688 189.711 54.4653 190.249 54.1065Z" fill="#263238"/>
<path d="M201.311 99.7278L201.849 101.522C201.909 101.641 201.729 101.82 201.55 101.82H181.101C180.922 101.82 180.802 101.761 180.742 101.641L180.563 99.8473C180.563 99.7278 180.682 99.6082 180.922 99.6082H201.012C201.131 99.5484 201.251 99.6082 201.311 99.7278Z" fill="#407BFF"/>
<path d="M198.62 101.94H199.158C199.278 101.94 199.338 101.88 199.338 101.82L199.098 99.4882C199.098 99.4284 198.979 99.3687 198.919 99.3687H198.381C198.261 99.3687 198.202 99.4284 198.202 99.4882L198.441 101.82C198.381 101.88 198.501 101.94 198.62 101.94Z" fill="#407BFF"/>
<g opacity="0.3">
<path opacity="0.3" d="M198.62 101.94H199.158C199.278 101.94 199.338 101.88 199.338 101.82L199.098 99.4882C199.098 99.4284 198.979 99.3687 198.919 99.3687H198.381C198.261 99.3687 198.202 99.4284 198.202 99.4882L198.441 101.82C198.381 101.88 198.501 101.94 198.62 101.94Z" fill="white"/>
</g>
<path d="M182.536 101.94H183.074C183.194 101.94 183.254 101.88 183.254 101.82L183.014 99.4885C183.014 99.4287 182.895 99.3689 182.835 99.3689H182.297C182.177 99.3689 182.117 99.4287 182.117 99.4885L182.357 101.82C182.357 101.88 182.416 101.94 182.536 101.94Z" fill="#407BFF"/>
<path opacity="0.3" d="M182.536 101.94H183.074C183.194 101.94 183.254 101.88 183.254 101.82L183.014 99.4885C183.014 99.4287 182.895 99.3689 182.835 99.3689H182.297C182.177 99.3689 182.117 99.4287 182.117 99.4885L182.357 101.82C182.357 101.88 182.416 101.94 182.536 101.94Z" fill="white"/>
<path d="M190.548 101.94H191.086C191.206 101.94 191.266 101.88 191.266 101.82L191.027 99.4882C191.027 99.4284 190.907 99.3687 190.847 99.3687H190.309C190.189 99.3687 190.13 99.4284 190.13 99.4882L190.369 101.82C190.369 101.88 190.488 101.94 190.548 101.94Z" fill="#407BFF"/>
<path opacity="0.3" d="M190.548 101.94H191.086C191.206 101.94 191.266 101.88 191.266 101.82L191.027 99.4882C191.027 99.4284 190.907 99.3687 190.847 99.3687H190.309C190.189 99.3687 190.13 99.4284 190.13 99.4882L190.369 101.82C190.369 101.88 190.488 101.94 190.548 101.94Z" fill="white"/>
<path d="M200.115 108.696L196.348 112.403L201.311 112.882C201.311 112.882 203.104 110.311 202.148 108.457L200.115 108.696Z" fill="#FFB573"/>
<path d="M195.75 116.469L199.935 116.649L201.251 112.882L196.288 112.403L195.75 116.469Z" fill="#FFB573"/>
<path d="M98.9472 211.837C99.4853 211.837 100.083 211.777 100.263 211.478C100.322 211.418 100.442 211.239 100.322 211C100.263 210.88 100.143 210.82 100.023 210.76C99.3059 210.581 97.6318 211.418 97.572 211.478C97.5122 211.478 97.5122 211.538 97.5122 211.598C97.5122 211.657 97.5122 211.657 97.572 211.657C97.8709 211.717 98.4091 211.837 98.9472 211.837ZM99.7843 210.94C99.8441 210.94 99.9039 210.94 99.9636 210.94C100.083 210.94 100.143 211 100.143 211.059C100.203 211.179 100.143 211.239 100.143 211.299C99.9039 211.598 98.7678 211.598 97.9905 211.478C98.4091 211.299 99.2461 210.94 99.7843 210.94Z" fill="#407BFF"/>
<path d="M97.6318 211.717C97.6318 211.717 97.6916 211.717 97.6318 211.717C98.2297 211.478 99.4255 210.521 99.4255 210.043C99.4255 209.924 99.3657 209.804 99.0668 209.744C98.8874 209.744 98.6482 209.804 98.4688 209.924C97.8709 210.402 97.572 211.538 97.5122 211.598C97.572 211.598 97.572 211.657 97.6318 211.717C97.572 211.657 97.6318 211.717 97.6318 211.717ZM98.9472 209.924H99.007C99.1863 209.924 99.1863 210.043 99.1863 210.043C99.1863 210.342 98.3493 211.06 97.7513 211.418C97.8709 211.06 98.1101 210.342 98.5286 210.043C98.708 209.983 98.8276 209.924 98.9472 209.924Z" fill="#407BFF"/>
<path d="M92.8484 211.598H97.2132L99.1266 201.433H94.7618L92.8484 211.598Z" fill="#B55B52"/>
<path d="M97.2731 211.06H92.4897C92.3103 211.06 92.131 211.179 92.0712 211.359L90.6362 215.245C90.5166 215.664 90.7557 216.022 91.1743 216.022C92.9083 216.022 95.4195 215.903 97.572 215.903C100.143 215.903 99.9039 216.022 102.893 216.022C104.687 216.022 105.465 214.229 104.747 214.049C101.399 213.272 101.04 213.212 98.3493 211.359C97.9906 211.239 97.6318 211.06 97.2731 211.06Z" fill="#263238"/>
<path opacity="0.2" d="M99.1267 201.433L98.17 206.635H93.7454L94.7619 201.433H99.1267Z" fill="black"/>
<path d="M99.4854 102L102.355 105.049L97.6916 106.663C97.6916 106.663 96.0174 104.212 97.2731 102.538L99.4854 102Z" fill="#B55B52"/>
<path d="M103.192 109.234L98.6483 109.892L97.6916 106.663L102.355 105.049L103.192 109.234Z" fill="#B55B52"/>
<path d="M82.2653 127.052L104.687 128.009C105.704 128.069 106.72 127.231 106.959 126.215L109.65 112.523C109.829 111.506 109.172 110.609 108.095 110.55L85.6735 109.593C84.657 109.533 83.6406 110.37 83.4014 111.387L80.7108 125.079C80.5314 126.155 81.1891 126.992 82.2653 127.052Z" fill="#263238"/>
<path d="M83.7601 131.237L111.444 132.433C112.759 132.493 113.895 131.476 113.955 130.221L115.45 113.24C115.569 111.924 114.613 110.848 113.297 110.788L85.6136 109.593C84.2982 109.533 83.1622 110.549 83.1024 111.805L81.6076 128.786C81.5478 130.101 82.5044 131.237 83.7601 131.237Z" fill="#407BFF"/>
<path opacity="0.2" d="M83.7601 131.237L111.444 132.433C112.759 132.493 113.895 131.476 113.955 130.221L115.45 113.24C115.569 111.924 114.613 110.848 113.297 110.788L85.6136 109.593C84.2982 109.533 83.1622 110.549 83.1024 111.805L81.6076 128.786C81.5478 130.101 82.5044 131.237 83.7601 131.237Z" fill="black"/>
<path d="M104.089 115.333H104.03L96.0174 114.974C95.5989 114.974 95.1803 114.795 94.9412 114.436C94.6422 114.137 94.5226 113.718 94.5824 113.3L94.8814 109.652C95.001 108.098 96.3762 106.902 97.9308 106.962L103.312 107.201C104.089 107.261 104.807 107.56 105.345 108.158C105.883 108.756 106.122 109.533 106.062 110.31L105.763 113.838C105.644 114.675 104.926 115.333 104.089 115.333ZM96.3164 113.18L103.91 113.539L104.209 110.191C104.209 109.892 104.149 109.593 103.97 109.354C103.79 109.114 103.491 108.995 103.192 108.995L97.8112 108.756C97.2133 108.756 96.6751 109.234 96.6153 109.772L96.3164 113.18Z" fill="#407BFF"/>
<path d="M114.433 132.613L86.7496 131.417C85.4342 131.357 84.4177 130.281 84.358 128.965L83.9992 111.865C83.9992 110.549 85.0157 109.593 86.2713 109.593L113.955 110.789C115.27 110.848 116.287 111.925 116.347 113.24L116.705 130.341C116.765 131.656 115.689 132.672 114.433 132.613Z" fill="#407BFF"/>
<path d="M106.242 68.5759C105.943 69.1738 105.584 69.8315 105.285 70.4892C104.986 71.1469 104.627 71.8047 104.328 72.5222C103.73 73.8974 103.133 75.2128 102.594 76.588C102.056 77.9632 101.578 79.3384 101.159 80.7136C100.98 81.3713 100.741 82.0888 100.621 82.7466C100.502 83.1053 100.442 83.4043 100.382 83.763L100.263 84.2413C100.203 84.4207 100.203 84.6001 100.203 84.7197C100.203 84.9589 100.143 85.198 100.143 85.5568C100.143 85.8557 100.083 86.2145 100.083 86.5732C100.083 87.2907 100.083 88.0082 100.083 88.7257C100.143 90.2205 100.203 91.7153 100.322 93.2699C100.502 96.3193 100.741 99.4285 100.98 102.478L95.4792 103.375C94.7617 100.266 94.1638 97.1564 93.6257 93.9874C93.3865 92.4328 93.1473 90.8184 92.968 89.2041C92.9082 88.367 92.7886 87.5299 92.7288 86.6928C92.669 86.2743 92.669 85.7959 92.669 85.3774C92.669 84.9588 92.669 84.4207 92.7288 83.8826C92.7288 83.5836 92.7886 83.4043 92.7886 83.1651L92.8484 82.5074C92.9082 82.0888 92.968 81.6105 93.0278 81.192C93.1473 80.3549 93.3267 79.5178 93.5061 78.6807C93.8648 77.0065 94.3432 75.3922 94.8813 73.8376C95.4194 72.283 95.9576 70.7284 96.5555 69.1738C96.8544 68.3965 97.2132 67.679 97.5121 66.9017C97.8709 66.1244 98.1698 65.4069 98.5884 64.6296L106.242 68.5759Z" fill="#407BFF"/>
<path d="M118.2 99.8467C118.2 99.8467 113.955 132.672 111.503 146.066C108.932 159.997 99.9039 205.618 99.9039 205.618H92.4897C92.4897 205.618 96.2566 160.834 97.9307 147.142C99.7843 132.254 102.714 99.8467 102.714 99.8467H118.2Z" fill="#263238"/>
<path d="M101.817 202.689C101.877 202.689 100.92 205.798 100.92 205.798H91.8918L92.0712 203.047L101.817 202.689Z" fill="#407BFF"/>
<path d="M121.788 45.3169C121.788 45.6756 121.967 45.9746 122.206 45.9746C122.445 45.9746 122.625 45.6756 122.625 45.3169C122.625 44.9581 122.445 44.6592 122.206 44.6592C122.027 44.6592 121.788 44.9581 121.788 45.3169Z" fill="#263238"/>
<path d="M121.967 45.9746C121.967 45.9746 122.804 48.1271 123.761 49.1436C123.103 49.7415 121.967 49.5023 121.967 49.5023V45.9746Z" fill="#A02724"/>
<path d="M120.472 43.284C120.532 43.284 120.532 43.284 120.592 43.2242C121.369 42.6263 122.146 42.9252 122.146 42.9252C122.266 42.985 122.386 42.9252 122.445 42.8056C122.505 42.6861 122.445 42.5665 122.326 42.5067C122.266 42.5067 121.369 42.1479 120.353 42.8654C120.233 42.9252 120.233 43.0448 120.293 43.1644C120.353 43.2242 120.412 43.284 120.472 43.284Z" fill="#263238"/>
<path d="M110.009 49.4424C110.666 52.6711 111.264 58.5307 108.992 60.6832C108.992 60.6832 109.889 63.9718 115.868 63.9718C122.445 63.9718 118.977 60.6832 118.977 60.6832C115.39 59.8462 115.51 57.1555 116.107 54.6443L110.009 49.4424Z" fill="#B55B52"/>
<path d="M108.155 61.8192C107.677 60.8027 107.139 59.6069 108.215 59.2482C109.411 58.8296 115.868 58.4111 118.081 59.1884C120.293 59.9657 119.695 62.0584 119.695 62.0584L108.155 61.8192Z" fill="#263238"/>
<path d="M100.382 61.9389C96.5555 63.6729 94.1638 76.9466 94.1638 76.9466L101.698 79.3383C101.698 79.3383 104.089 73.8375 105.405 68.5758C106.72 63.0151 104.328 60.1451 100.382 61.9389Z" fill="#407BFF"/>
<path d="M147.199 94.7051H151.863L151.026 100.266C151.026 100.266 147.379 100.146 145.764 97.3957L147.199 94.7051Z" fill="#B55B52"/>
<path d="M156.228 96.6184L153.896 100.923L151.026 100.266L151.803 94.7051L156.228 96.6184Z" fill="#B55B52"/>
<path d="M109.411 44.5396C109.71 49.0838 109.65 51.7744 111.922 54.1661C115.39 57.6938 121.01 55.6011 122.146 51.0569C123.103 46.9313 122.505 40.1748 118.021 38.381C113.596 36.5275 109.112 39.9356 109.411 44.5396Z" fill="#B55B52"/>
<path d="M108.873 50.7579C108.873 50.7579 104.747 44.5396 105.644 40.5335C106.481 36.8265 114.792 35.511 118.26 35.8698C121.967 36.2883 123.402 37.8429 121.369 41.0717C119.276 42.0283 117.602 42.3273 117.602 42.3273C117.602 42.3273 119.635 44.8386 119.695 46.5127C119.097 46.8117 117.244 47.589 117.244 47.589C117.244 47.589 114.613 54.0465 114.553 54.0465C113.536 53.9269 111.205 53.8671 110.367 54.2259C109.59 52.7909 108.873 50.7579 108.873 50.7579Z" fill="#263238"/>
<path d="M115.45 46.8712C115.749 48.0072 116.526 49.0237 117.303 49.6216C118.499 50.5185 119.396 49.6814 119.276 48.3062C119.217 47.1104 118.499 45.197 117.184 44.7785C115.868 44.4197 115.091 45.5558 115.45 46.8712Z" fill="#B55B52"/>
<path opacity="0.3" d="M115.031 112.104C109.172 113.479 110.248 134.705 111.384 146.843C111.444 146.544 111.503 146.305 111.503 146.066C112.938 138.113 115.031 123.225 116.526 112.523C116.048 112.283 115.39 112.044 115.031 112.104Z" fill="black"/>
<path d="M120.711 211.837C121.25 211.837 121.847 211.777 122.027 211.478C122.087 211.418 122.146 211.239 122.027 211C121.967 210.88 121.847 210.82 121.668 210.76C120.951 210.581 119.396 211.418 119.336 211.478C119.276 211.478 119.276 211.538 119.276 211.598C119.276 211.657 119.336 211.657 119.336 211.657C119.635 211.717 120.173 211.837 120.711 211.837ZM121.429 210.94C121.489 210.94 121.548 210.94 121.608 210.94C121.728 210.94 121.788 211 121.788 211.059C121.847 211.179 121.847 211.239 121.788 211.299C121.608 211.598 120.472 211.598 119.635 211.478C120.113 211.299 120.891 210.94 121.429 210.94Z" fill="#407BFF"/>
<path d="M119.396 211.717C119.994 211.478 121.01 210.521 120.951 210.043C120.951 209.924 120.831 209.804 120.592 209.744C120.353 209.744 120.173 209.804 119.994 209.924C119.456 210.402 119.336 211.538 119.336 211.598C119.336 211.657 119.336 211.657 119.396 211.717C119.336 211.657 119.396 211.717 119.396 211.717ZM120.472 209.924H120.532C120.711 209.924 120.711 210.043 120.711 210.043C120.771 210.342 120.054 211.06 119.516 211.418C119.575 211.06 119.755 210.342 120.113 210.043C120.233 209.983 120.353 209.924 120.472 209.924Z" fill="#407BFF"/>
<path d="M114.553 211.597H118.977L119.396 201.433H115.031L114.553 211.597Z" fill="#B55B52"/>
<path d="M118.918 211.059H114.134C113.955 211.059 113.775 211.179 113.775 211.358L112.879 215.245C112.759 215.663 113.118 216.022 113.536 216.022C115.27 216.022 117.782 215.902 119.934 215.902C122.505 215.902 124.658 216.022 127.647 216.022C129.441 216.022 129.979 214.228 129.202 214.049C125.794 213.272 122.983 213.212 119.994 211.358C119.695 211.239 119.336 211.059 118.918 211.059Z" fill="#263238"/>
<path opacity="0.2" d="M119.396 201.433L119.157 206.635H114.792L115.031 201.433H119.396Z" fill="black"/>
<path d="M126.033 99.8467C126.033 99.8467 126.631 132.672 126.152 146.066C125.674 159.997 120.771 205.618 120.771 205.618H113.357C113.357 205.618 113.058 160.834 112.759 147.142C112.4 132.254 110.607 99.8467 110.607 99.8467H126.033Z" fill="#263238"/>
<path d="M122.266 202.688C122.326 202.688 121.847 205.798 121.847 205.798H112.819L112.58 203.047L122.266 202.688Z" fill="#407BFF"/>
<path d="M125.794 61.8793C125.794 61.8793 131.055 69.8914 126.631 102.598C119.575 102.598 105.285 102.598 101.817 102.598C101.638 99.01 104.627 78.621 101.16 61.6401C101.16 61.6401 105.166 60.8031 109.052 60.6237C112.042 60.5041 116.406 60.3845 119.037 60.6237C122.505 60.9824 125.794 61.8793 125.794 61.8793Z" fill="#407BFF"/>
<path opacity="0.2" d="M128.425 78.621L123.223 70.011C123.223 70.011 125.196 82.2085 128.185 87.7691C128.365 84.3012 128.425 81.2518 128.425 78.621Z" fill="black"/>
<path d="M130.637 68.1572C131.474 70.9076 132.431 73.6581 133.387 76.4085C134.344 79.1589 135.36 81.8495 136.437 84.4804L136.855 85.4371C136.975 85.6762 136.915 85.6164 136.975 85.6762C136.975 85.736 137.035 85.7958 137.035 85.8556C137.214 86.1546 137.573 86.5731 137.931 86.9319C138.769 87.7689 139.845 88.5462 140.981 89.3235C142.117 90.1008 143.313 90.8781 144.509 91.5956C145.704 92.3131 147.02 93.0306 148.216 93.6883L145.884 99.1294C142.894 97.9933 140.144 96.7975 137.334 95.2429C135.958 94.4656 134.523 93.5687 133.148 92.4327C132.431 91.8348 131.713 91.1771 130.996 90.2802C130.816 90.041 130.637 89.8019 130.457 89.5029C130.278 89.2039 130.099 88.8452 130.039 88.7256L129.501 87.7091C128.126 84.8989 126.93 82.1485 125.794 79.3383C124.658 76.5281 123.581 73.7179 122.625 70.7881L130.637 68.1572Z" fill="#407BFF"/>
<path d="M119.934 63.8522C118.38 67.7386 127.767 83.5237 127.767 83.5237L133.866 77.7239C133.866 77.7239 132.55 72.7612 130.756 66.8418C128.963 60.9822 121.369 60.1451 119.934 63.8522Z" fill="#407BFF"/>
</svg>
