<svg width="265" height="264" viewBox="0 0 265 264" fill="none" xmlns="http://www.w3.org/2000/svg">
<path d="M45.9813 203.994C93.5873 229.506 170.773 229.506 218.379 203.994C265.985 178.481 265.979 137.123 218.379 111.611C170.778 86.0982 93.5873 86.0982 45.9813 111.611C-1.62474 137.123 -1.61947 178.487 45.9813 203.994Z" fill="#F5F5F5"/>
<path d="M61.4741 38.9191L57.7866 41.0263C57.7866 40.8629 57.8182 40.6996 57.8182 40.5416V39.488C57.8182 37.6021 56.4907 36.8541 54.8577 37.7812C54.1529 38.2114 53.5506 38.7903 53.0929 39.4775C52.8243 37.1017 50.9858 36.2167 48.6995 37.5231C46.2552 38.9349 44.2692 42.3696 44.2692 45.1984V46.7788C44.2617 47.4237 44.4022 48.0617 44.6801 48.6436L41.6405 50.3979C41.1624 50.7097 40.7645 51.1297 40.479 51.6239C40.1934 52.1181 40.0283 52.6726 39.9969 53.2425C39.9969 54.2961 40.7344 54.7175 41.6405 54.1907L61.4741 42.712C61.9525 42.4005 62.3506 41.9805 62.6362 41.4863C62.9218 40.992 63.0868 40.4373 63.1177 39.8673C63.1283 38.8243 62.3908 38.3976 61.4741 38.9191Z" fill="#EBEBEB"/>
<path d="M77.1567 49.5918L74.3911 51.1721C74.3987 51.0493 74.3987 50.9262 74.3911 50.8034V50.0185C74.3911 48.5961 73.3902 48.0167 72.1575 48.7278C71.6273 49.055 71.1729 49.4914 70.8247 50.0079C70.6245 48.2168 69.218 47.5531 67.5112 48.5382C66.5363 49.172 65.725 50.0273 65.1437 51.0344C64.5623 52.0414 64.2273 53.1717 64.1661 54.3329V55.5287C64.1557 56.0077 64.2529 56.483 64.4505 56.9194L62.1537 58.2417C61.7931 58.4776 61.4932 58.7951 61.2781 59.1685C61.063 59.5419 60.9389 59.9607 60.9158 60.391C60.9158 61.1811 61.4689 61.5025 62.1537 61.1074L77.1304 52.4575C77.4908 52.2227 77.7908 51.9062 78.0059 51.5336C78.221 51.1611 78.3452 50.743 78.3683 50.3135C78.3947 49.518 77.8415 49.1967 77.1567 49.5918Z" fill="#EBEBEB"/>
<path d="M225.174 63.9574L222.408 65.5378C222.416 65.415 222.416 65.2918 222.408 65.169V64.3683C222.408 62.946 221.408 62.3665 220.175 63.0829C219.642 63.407 219.187 63.844 218.842 64.363C218.642 62.572 217.262 61.9029 215.529 62.888C214.555 63.5224 213.744 64.378 213.164 65.385C212.584 66.392 212.249 67.522 212.189 68.6827V69.8785C212.175 70.3573 212.271 70.8328 212.468 71.2693L210.176 72.5915C209.815 72.8272 209.514 73.1445 209.298 73.5178C209.082 73.8912 208.957 74.3101 208.933 74.7408C208.933 75.531 209.492 75.8523 210.176 75.4572L225.153 66.8073C225.514 66.5726 225.814 66.256 226.029 65.8835C226.244 65.5109 226.368 65.0929 226.391 64.6633C226.412 63.8837 225.859 63.5623 225.174 63.9574Z" fill="#EBEBEB"/>
<path d="M60.0782 115.251L18.9938 138.972V140.948L56.6541 162.688L97.7384 138.972V136.997L60.0782 115.251Z" fill="#4070FF"/>
<path opacity="0.15" d="M18.9938 138.972L56.6541 160.713V162.688L18.9938 140.948V138.972Z" fill="black"/>
<path opacity="0.1" d="M56.654 160.713L97.7384 136.997V138.972L56.654 162.688V160.713Z" fill="black"/>
<path d="M94.083 129.864L92.4594 133.063L92.7224 133.197L94.346 129.998L94.083 129.864Z" fill="#455A64"/>
<path d="M91.0821 129.613L90.8313 129.769L92.4145 132.326L92.6654 132.171L91.0821 129.613Z" fill="#455A64"/>
<path d="M92.8393 129.316V137.029C92.8382 137.05 92.8312 137.071 92.8192 137.088C92.8071 137.106 92.7903 137.12 92.7708 137.129C92.7173 137.157 92.6576 137.172 92.5969 137.172C92.5363 137.172 92.4766 137.157 92.4231 137.129C92.4026 137.121 92.3847 137.107 92.3717 137.089C92.3586 137.072 92.3509 137.051 92.3493 137.029V129.316H92.8393Z" fill="#455A64"/>
<path d="M98.6708 126.919C98.6708 127.628 98.4607 128.32 98.0671 128.909C97.6735 129.499 97.114 129.958 96.4595 130.229C95.8049 130.5 95.0847 130.571 94.3898 130.433C93.6949 130.294 93.0566 129.953 92.5557 129.452C92.0547 128.951 91.7135 128.313 91.5753 127.618C91.4371 126.923 91.508 126.203 91.7791 125.548C92.0503 124.894 92.5094 124.334 93.0985 123.941C93.6876 123.547 94.3802 123.337 95.0886 123.337C96.0383 123.339 96.9486 123.716 97.6201 124.388C98.2916 125.059 98.6694 125.97 98.6708 126.919Z" fill="#4070FF"/>
<path opacity="0.2" d="M96.2107 126.003C96.6743 124.549 97.1642 123.98 96.8534 123.801C96.2602 123.464 95.5832 123.304 94.9021 123.339C94.2209 123.374 93.5638 123.602 93.0081 123.998C92.4524 124.393 92.0212 124.939 91.7651 125.571C91.5091 126.203 91.4388 126.896 91.5626 127.566C91.6864 128.237 91.9991 128.859 92.464 129.358C92.9288 129.857 93.5265 130.213 94.1868 130.384C94.8471 130.555 95.5425 130.534 96.1912 130.323C96.84 130.113 97.4151 129.721 97.849 129.195C96.7691 129.506 95.6102 127.889 96.2107 126.003Z" fill="black"/>
<path d="M91.9648 127.931C91.9648 128.429 91.8171 128.916 91.5404 129.33C91.2637 129.744 90.8704 130.066 90.4103 130.257C89.9502 130.448 89.4439 130.497 88.9555 130.4C88.467 130.303 88.0183 130.063 87.6662 129.711C87.314 129.359 87.0742 128.91 86.977 128.422C86.8799 127.933 86.9297 127.427 87.1203 126.967C87.3109 126.507 87.6337 126.114 88.0478 125.837C88.4618 125.56 88.9487 125.413 89.4467 125.413C90.1145 125.413 90.755 125.678 91.2272 126.15C91.6995 126.622 91.9648 127.263 91.9648 127.931Z" fill="#4070FF"/>
<path opacity="0.2" d="M89.4468 125.413C88.9184 125.413 88.4037 125.58 87.977 125.892C87.9085 127.425 89.215 128.926 88.8462 129.432C88.4775 129.938 87.5872 129.627 87.2659 129.195C87.4877 129.577 87.8062 129.894 88.1893 130.114C88.5725 130.334 89.0067 130.45 89.4486 130.449C89.8904 130.448 90.3242 130.331 90.7065 130.109C91.0887 129.887 91.4059 129.569 91.6262 129.186C91.8465 128.803 91.9622 128.369 91.9616 127.927C91.961 127.485 91.8441 127.051 91.6227 126.669C91.4013 126.287 91.0832 125.969 90.7004 125.749C90.3175 125.528 89.8833 125.412 89.4415 125.413H89.4468Z" fill="black"/>
<path d="M92.5969 129.838C95.1484 129.838 97.2169 127.769 97.2169 125.218C97.2169 122.666 95.1484 120.598 92.5969 120.598C90.0454 120.598 87.977 122.666 87.977 125.218C87.977 127.769 90.0454 129.838 92.5969 129.838Z" fill="#4070FF"/>
<path opacity="0.1" d="M97.0905 126.271C96.9161 127.019 96.5579 127.712 96.0484 128.287C95.5388 128.862 94.894 129.3 94.1723 129.563C93.4506 129.826 92.6748 129.905 91.9149 129.792C91.1551 129.68 90.4353 129.38 89.8207 128.919C89.206 128.458 88.7159 127.852 88.3947 127.154C88.0735 126.456 87.9313 125.69 87.981 124.923C88.0307 124.157 88.2707 123.415 88.6793 122.764C89.0879 122.114 89.6523 121.576 90.3212 121.198C89.9309 121.428 89.576 121.714 89.2677 122.046C89.038 123.034 89.14 124.07 89.5579 124.993C89.9757 125.917 90.6862 126.678 91.5795 127.157C92.4728 127.637 93.4992 127.809 94.5 127.647C95.5009 127.485 96.4205 126.998 97.1168 126.261L97.0905 126.271Z" fill="black"/>
<path d="M25.6329 131.833L24.0093 135.032L24.2723 135.165L25.896 131.967L25.6329 131.833Z" fill="#455A64"/>
<path d="M22.6195 131.578L22.3687 131.733L23.952 134.291L24.2028 134.135L22.6195 131.578Z" fill="#455A64"/>
<path d="M24.3829 131.281V138.993C24.3808 139.015 24.3728 139.036 24.3598 139.053C24.3468 139.071 24.3293 139.085 24.3091 139.093C24.2549 139.119 24.1955 139.133 24.1353 139.133C24.0751 139.133 24.0157 139.119 23.9614 139.093C23.9419 139.085 23.9251 139.071 23.913 139.053C23.901 139.035 23.894 139.015 23.8929 138.993V131.281H24.3829Z" fill="#455A64"/>
<path d="M30.2145 128.879C30.2145 129.588 30.0044 130.28 29.6108 130.869C29.2171 131.458 28.6577 131.917 28.0031 132.189C27.3486 132.46 26.6283 132.531 25.9334 132.392C25.2386 132.254 24.6003 131.913 24.0993 131.412C23.5983 130.911 23.2572 130.273 23.1189 129.578C22.9807 128.883 23.0517 128.163 23.3228 127.508C23.5939 126.854 24.0531 126.294 24.6421 125.901C25.2312 125.507 25.9238 125.297 26.6323 125.297C27.5823 125.297 28.4935 125.674 29.1653 126.346C29.8371 127.018 30.2145 127.929 30.2145 128.879Z" fill="#4070FF"/>
<path opacity="0.2" d="M27.7597 127.962C28.2232 126.509 28.7132 125.94 28.4023 125.766C27.8656 125.457 27.2569 125.295 26.6376 125.297C26.034 125.297 25.4402 125.449 24.9111 125.739C24.3821 126.03 23.9351 126.45 23.6117 126.959C23.2882 127.469 23.0987 128.052 23.0608 128.654C23.0229 129.257 23.1379 129.859 23.395 130.405C23.6521 130.951 24.043 131.423 24.5314 131.778C25.0198 132.132 25.59 132.358 26.1888 132.433C26.7877 132.509 27.3959 132.431 27.9569 132.209C28.5179 131.986 29.0136 131.625 29.398 131.16C28.3339 131.471 27.1539 129.848 27.7597 127.962Z" fill="black"/>
<path d="M23.5084 129.896C23.5084 130.394 23.3608 130.881 23.0841 131.295C22.8074 131.709 22.4141 132.032 21.954 132.222C21.4939 132.413 20.9876 132.463 20.4991 132.365C20.0107 132.268 19.562 132.028 19.2098 131.676C18.8577 131.324 18.6179 130.875 18.5207 130.387C18.4235 129.899 18.4734 129.392 18.664 128.932C18.8546 128.472 19.1773 128.079 19.5914 127.802C20.0055 127.525 20.4924 127.378 20.9904 127.378C21.3213 127.377 21.649 127.442 21.9548 127.568C22.2606 127.694 22.5385 127.88 22.7725 128.114C23.0064 128.348 23.1919 128.625 23.3182 128.931C23.4445 129.237 23.5091 129.565 23.5084 129.896Z" fill="#4070FF"/>
<path opacity="0.2" d="M20.9904 127.378C20.4626 127.376 19.9478 127.542 19.5206 127.852C19.4522 129.39 20.7533 130.891 20.3898 131.392C20.0264 131.892 19.1256 131.587 18.8095 131.16C19.0313 131.542 19.3498 131.859 19.7329 132.079C20.1161 132.299 20.5504 132.415 20.9922 132.414C21.434 132.413 21.8679 132.296 22.2501 132.074C22.6323 131.853 22.9495 131.534 23.1699 131.151C23.3902 130.768 23.5058 130.334 23.5052 129.892C23.5046 129.45 23.3877 129.016 23.1663 128.634C22.9449 128.252 22.6268 127.934 22.244 127.714C21.8611 127.493 21.427 127.377 20.9851 127.378H20.9904Z" fill="black"/>
<path d="M24.1353 131.797C26.6869 131.797 28.7553 129.729 28.7553 127.177C28.7553 124.626 26.6869 122.557 24.1353 122.557C21.5838 122.557 19.5154 124.626 19.5154 127.177C19.5154 129.729 21.5838 131.797 24.1353 131.797Z" fill="#4070FF"/>
<path opacity="0.1" d="M28.6288 128.236C28.4524 128.982 28.093 129.672 27.5832 130.244C27.0734 130.816 26.4291 131.252 25.7085 131.513C24.9879 131.774 24.2138 131.851 23.4559 131.738C22.698 131.625 21.9802 131.324 21.3674 130.864C20.7546 130.404 20.266 129.799 19.9457 129.103C19.6255 128.406 19.4836 127.641 19.533 126.877C19.5823 126.112 19.8213 125.372 20.2284 124.722C20.6356 124.073 21.1979 123.535 21.8648 123.158C21.4663 123.388 21.1026 123.673 20.7849 124.006C20.5572 124.993 20.6602 126.027 21.0781 126.949C21.4959 127.871 22.2055 128.63 23.0973 129.109C23.9891 129.588 25.0137 129.761 26.0133 129.6C27.0129 129.44 27.9319 128.955 28.6288 128.22V128.236Z" fill="black"/>
<path d="M69.4023 147.422L75.1391 144.114L80.2858 147.085L74.5544 150.388L69.4023 147.422Z" fill="#F0F0F0"/>
<path d="M29.2715 138.972L29.2663 121.183L56.6594 136.992V154.787L29.2715 138.972Z" fill="#F0F0F0"/>
<path d="M29.2663 128.242L56.6594 144.061V136.992L29.2663 121.183V128.242Z" fill="#E0E0E0"/>
<path d="M87.466 136.991V119.697L77.1936 117.226V115.251L56.6593 136.991V154.786L87.466 136.991Z" fill="#FAFAFA"/>
<path d="M77.1936 115.251V117.226L89.178 120.192V118.217L77.1936 115.251Z" fill="#263238"/>
<path d="M61.7955 102.403L89.1781 118.217L77.1936 115.251L49.8058 99.4368L61.7955 102.403Z" fill="#37474F"/>
<path d="M54.942 139.968L77.1989 115.251V113.275L53.2299 140.948L54.942 139.968Z" fill="#37474F"/>
<path d="M49.8111 97.4612L77.1989 113.275L53.2721 140.974L25.8421 125.133L49.8111 97.4612Z" fill="#455A64"/>
<path d="M41.2191 123.084L44.6695 125.076V130.075L41.2191 128.1V123.084Z" fill="#263238"/>
<path d="M44.6696 125.076L48.1148 123.084V126.124L44.6696 130.075V125.076Z" fill="#37474F"/>
<path d="M44.6696 119.697L40.8609 121.894V122.889L44.6696 125.076L48.473 122.889V121.894L44.6696 119.697Z" fill="#F5F5F5"/>
<path d="M40.8609 122.889L44.6696 125.076V124.08L40.8609 121.894V122.889Z" fill="#E0E0E0"/>
<path d="M48.473 122.889L44.6696 125.076V124.08L48.473 121.894V122.889Z" fill="#EBEBEB"/>
<path d="M42.141 121.894L44.6696 120.435L47.1982 121.894L44.6696 123.348L42.141 121.894Z" fill="#4070FF"/>
<path d="M44.6696 120.435V123.348L42.141 121.894L44.6696 120.435Z" fill="#37474F"/>
<path d="M44.6696 120.435L47.1981 121.894L44.6696 123.348V120.435Z" fill="#263238"/>
<path d="M58.8771 141.643L66.584 137.197V143.129L58.8771 147.575V141.643Z" fill="#455A64"/>
<path d="M66.2416 142.928V137.397L58.8771 141.643V147.179L66.2416 142.928Z" fill="#E0E0E0"/>
<path d="M66.584 143.129L66.2416 142.928L58.8771 147.18V147.575L66.584 143.129Z" fill="#37474F"/>
<path d="M58.8771 144.609L66.584 140.163V139.762L58.8771 144.209V144.609Z" fill="#455A64"/>
<path d="M77.7098 130.765L85.4115 126.319V132.251L77.7098 136.697V130.765Z" fill="#455A64"/>
<path d="M85.0691 132.05V126.519L77.7098 130.765V136.301L85.0691 132.05Z" fill="#E0E0E0"/>
<path d="M85.4115 132.25L85.0691 132.05L77.7098 136.301V136.697L85.4115 132.25Z" fill="#37474F"/>
<path d="M77.7098 133.731L85.4115 129.285V128.884L77.7098 133.336V133.731Z" fill="#455A64"/>
<path d="M69.4023 147.422V135.564L75.1391 132.256V144.114L69.4023 147.422Z" fill="#37474F"/>
<path d="M74.9389 143.961V132.372L69.4023 135.564V147.153L74.9389 143.961Z" fill="#455A64"/>
<path d="M75.1391 132.256L74.9389 132.372V143.961L75.1391 144.114V132.256Z" fill="#263238"/>
<path d="M50.4063 139.32L46.3817 136.997V142.923L50.4063 145.246V139.32Z" fill="#455A64"/>
<path d="M46.724 142.723V137.192L50.4063 139.32V144.851L46.724 142.723Z" fill="#FAFAFA"/>
<path d="M46.3817 142.923L46.7241 142.723L50.4063 144.851V145.246L46.3817 142.923Z" fill="#37474F"/>
<path d="M50.4063 142.265L46.3817 139.957V139.557L50.4063 141.864V142.265Z" fill="#455A64"/>
<path d="M46.724 137.192L50.4063 139.32V140.463L46.724 138.351V137.192Z" fill="#F5F5F5"/>
<path d="M38.4219 132.398L34.3972 130.075V136.006L38.4219 138.33V132.398Z" fill="#455A64"/>
<path d="M34.7448 135.806V130.275L38.4218 132.398V137.929L34.7448 135.806Z" fill="#FAFAFA"/>
<path d="M34.3972 136.007L34.7449 135.806L38.4219 137.929V138.33L34.3972 136.007Z" fill="#37474F"/>
<path d="M38.4219 135.343L34.3972 133.035V132.635L38.4219 134.942V135.343Z" fill="#455A64"/>
<path d="M34.7448 130.275L38.4218 132.398V133.494L34.7448 131.386V130.275Z" fill="#F5F5F5"/>
<path d="M202.58 113.523L161.496 137.244V139.22L202.58 162.941L243.67 139.22V137.244L202.58 113.523Z" fill="#4070FF"/>
<path opacity="0.15" d="M161.496 137.244L202.585 160.966L202.58 162.941L161.496 139.22V137.244Z" fill="black"/>
<path opacity="0.1" d="M202.585 160.966L243.67 137.244V139.22L202.58 162.941L202.585 160.966Z" fill="black"/>
<path d="M240.128 130.176L238.504 133.375L238.767 133.509L240.391 130.31L240.128 130.176Z" fill="#455A64"/>
<path d="M237.539 129.026L237.289 129.182L238.883 131.739L239.134 131.583L237.539 129.026Z" fill="#455A64"/>
<path d="M238.892 129.632V137.344C238.891 137.366 238.884 137.386 238.872 137.404C238.86 137.422 238.843 137.436 238.823 137.444C238.77 137.473 238.71 137.488 238.65 137.488C238.589 137.488 238.529 137.473 238.476 137.444C238.456 137.436 238.438 137.422 238.425 137.405C238.412 137.387 238.404 137.366 238.402 137.344V129.632H238.892Z" fill="#455A64"/>
<path d="M244.723 127.235C244.723 127.944 244.513 128.636 244.12 129.225C243.726 129.814 243.167 130.274 242.512 130.545C241.857 130.816 241.137 130.887 240.442 130.749C239.747 130.61 239.109 130.269 238.608 129.768C238.107 129.267 237.766 128.629 237.628 127.934C237.49 127.239 237.561 126.519 237.832 125.864C238.103 125.21 238.562 124.65 239.151 124.257C239.74 123.863 240.433 123.653 241.141 123.653C242.091 123.653 243.002 124.03 243.674 124.702C244.346 125.374 244.723 126.285 244.723 127.235Z" fill="#4070FF"/>
<path opacity="0.2" d="M242.263 126.319C242.727 124.865 243.222 124.296 242.906 124.117C242.312 123.781 241.635 123.621 240.954 123.657C240.273 123.693 239.616 123.922 239.061 124.318C238.506 124.714 238.075 125.26 237.82 125.893C237.565 126.525 237.495 127.217 237.619 127.888C237.744 128.558 238.057 129.179 238.522 129.678C238.988 130.177 239.586 130.532 240.246 130.703C240.906 130.873 241.602 130.852 242.25 130.641C242.899 130.43 243.473 130.038 243.907 129.511C242.843 129.822 241.668 128.189 242.263 126.319Z" fill="black"/>
<path d="M238.017 128.247C238.017 128.745 237.87 129.231 237.593 129.646C237.316 130.06 236.923 130.382 236.463 130.573C236.003 130.764 235.496 130.813 235.008 130.716C234.52 130.619 234.071 130.379 233.719 130.027C233.367 129.675 233.127 129.226 233.03 128.738C232.932 128.249 232.982 127.743 233.173 127.283C233.363 126.823 233.686 126.43 234.1 126.153C234.514 125.876 235.001 125.729 235.499 125.729C236.167 125.729 236.808 125.994 237.28 126.466C237.752 126.938 238.017 127.579 238.017 128.247Z" fill="#4070FF"/>
<path opacity="0.2" d="M235.499 125.729C234.971 125.729 234.457 125.897 234.029 126.208C233.961 127.741 235.267 129.242 234.904 129.748C234.54 130.254 233.64 129.943 233.324 129.511C233.545 129.893 233.864 130.21 234.247 130.43C234.63 130.65 235.064 130.766 235.506 130.765C235.948 130.764 236.382 130.647 236.764 130.425C237.146 130.203 237.464 129.885 237.684 129.502C237.904 129.119 238.02 128.685 238.019 128.243C238.019 127.801 237.902 127.367 237.68 126.985C237.459 126.603 237.141 126.285 236.758 126.065C236.375 125.844 235.941 125.728 235.499 125.729Z" fill="black"/>
<path d="M238.65 130.154C241.201 130.154 243.269 128.085 243.269 125.534C243.269 122.982 241.201 120.914 238.65 120.914C236.098 120.914 234.03 122.982 234.03 125.534C234.03 128.085 236.098 130.154 238.65 130.154Z" fill="#4070FF"/>
<path opacity="0.1" d="M243.143 126.608C242.964 127.353 242.603 128.042 242.092 128.613C241.581 129.184 240.936 129.619 240.214 129.878C239.493 130.138 238.719 130.214 237.961 130.1C237.204 129.985 236.486 129.684 235.874 129.224C235.261 128.763 234.773 128.158 234.453 127.461C234.133 126.765 233.991 126 234.04 125.235C234.089 124.471 234.327 123.73 234.734 123.081C235.14 122.431 235.702 121.893 236.368 121.514C235.966 121.741 235.6 122.027 235.283 122.362C235.054 123.35 235.156 124.386 235.573 125.309C235.991 126.233 236.702 126.994 237.595 127.473C238.488 127.953 239.515 128.125 240.516 127.963C241.517 127.801 242.436 127.314 243.132 126.577L243.143 126.608Z" fill="black"/>
<path d="M168.122 130.007L166.498 133.206L166.761 133.34L168.385 130.141L168.122 130.007Z" fill="#455A64"/>
<path d="M165.553 129.113L165.302 129.269L166.896 131.826L167.147 131.67L165.553 129.113Z" fill="#455A64"/>
<path d="M166.885 129.464V137.176C166.882 137.197 166.874 137.218 166.861 137.236C166.848 137.253 166.831 137.267 166.811 137.276C166.757 137.302 166.697 137.316 166.637 137.316C166.577 137.316 166.518 137.302 166.463 137.276C166.445 137.266 166.429 137.252 166.417 137.234C166.405 137.217 166.398 137.197 166.395 137.176V129.464H166.885Z" fill="#455A64"/>
<path d="M172.716 127.061C172.716 127.77 172.506 128.462 172.113 129.052C171.719 129.641 171.16 130.1 170.505 130.371C169.851 130.642 169.13 130.713 168.435 130.575C167.741 130.437 167.102 130.095 166.601 129.594C166.1 129.093 165.759 128.455 165.621 127.76C165.483 127.065 165.554 126.345 165.825 125.691C166.096 125.036 166.555 124.477 167.144 124.083C167.733 123.689 168.426 123.479 169.134 123.479C170.084 123.481 170.994 123.858 171.666 124.53C172.337 125.201 172.715 126.112 172.716 127.061Z" fill="#4070FF"/>
<path opacity="0.2" d="M170.256 126.145C170.72 124.691 171.21 124.122 170.899 123.943C170.306 123.607 169.629 123.447 168.948 123.483C168.267 123.518 167.611 123.747 167.056 124.142C166.5 124.538 166.069 125.084 165.814 125.715C165.558 126.347 165.487 127.039 165.611 127.71C165.735 128.38 166.047 129.001 166.511 129.5C166.976 129.999 167.573 130.355 168.233 130.527C168.893 130.698 169.588 130.678 170.236 130.468C170.885 130.258 171.46 129.868 171.895 129.342C170.836 129.648 169.656 128.031 170.256 126.145Z" fill="black"/>
<path d="M166.01 128.073C166.011 128.571 165.865 129.058 165.589 129.473C165.313 129.888 164.92 130.212 164.46 130.403C164 130.594 163.493 130.645 163.004 130.548C162.516 130.452 162.066 130.212 161.714 129.861C161.361 129.509 161.121 129.06 161.023 128.571C160.926 128.083 160.975 127.576 161.165 127.116C161.356 126.655 161.679 126.262 162.093 125.985C162.507 125.708 162.994 125.56 163.492 125.56C164.159 125.56 164.799 125.825 165.271 126.296C165.743 126.767 166.009 127.406 166.01 128.073Z" fill="#4070FF"/>
<path opacity="0.2" d="M163.492 125.555C162.965 125.553 162.45 125.719 162.023 126.029C161.954 127.567 163.261 129.063 162.892 129.569C162.523 130.075 161.628 129.764 161.311 129.337C161.533 129.719 161.852 130.036 162.235 130.256C162.618 130.477 163.052 130.592 163.494 130.591C163.936 130.59 164.37 130.473 164.752 130.251C165.134 130.03 165.452 129.712 165.672 129.329C165.892 128.946 166.008 128.511 166.007 128.069C166.007 127.628 165.89 127.194 165.668 126.811C165.447 126.429 165.129 126.112 164.746 125.891C164.363 125.671 163.929 125.555 163.487 125.555H163.492Z" fill="black"/>
<path d="M166.637 129.98C169.189 129.98 171.257 127.911 171.257 125.36C171.257 122.808 169.189 120.74 166.637 120.74C164.086 120.74 162.017 122.808 162.017 125.36C162.017 127.911 164.086 129.98 166.637 129.98Z" fill="#4070FF"/>
<path opacity="0.1" d="M171.136 126.419C170.961 127.166 170.602 127.858 170.092 128.432C169.582 129.006 168.937 129.444 168.215 129.706C167.494 129.968 166.718 130.046 165.959 129.933C165.199 129.82 164.48 129.52 163.866 129.059C163.252 128.598 162.762 127.992 162.441 127.294C162.12 126.597 161.978 125.83 162.028 125.064C162.078 124.298 162.318 123.557 162.726 122.906C163.134 122.256 163.698 121.718 164.367 121.341C163.967 121.569 163.603 121.854 163.287 122.189C163.062 123.175 163.167 124.208 163.586 125.129C164.005 126.05 164.714 126.808 165.606 127.287C166.497 127.765 167.521 127.938 168.52 127.778C169.519 127.619 170.438 127.136 171.136 126.403V126.419Z" fill="black"/>
<path d="M210.856 103.208L214.301 105.2V109.182L210.856 107.191V103.208Z" fill="#E0E0E0"/>
<path d="M214.301 105.2L217.752 103.208V111.168L214.301 109.182V105.2Z" fill="#F0F0F0"/>
<path d="M214.301 99.821L210.498 102.012V103.008L214.301 105.2L218.11 103.008V102.012L214.301 99.821Z" fill="#455A64"/>
<path d="M210.498 103.008L214.301 105.2V104.204L210.498 102.012V103.008Z" fill="#37474F"/>
<path d="M218.11 103.008L214.301 105.2V104.204L218.11 102.012V103.008Z" fill="#263238"/>
<path d="M211.773 102.013L214.301 100.559L216.835 102.013L214.301 103.472L211.773 102.013Z" fill="#4070FF"/>
<path d="M214.301 100.559V103.472L211.773 102.013L214.301 100.559Z" fill="#37474F"/>
<path d="M214.301 100.559L216.835 102.013L214.301 103.472V100.559Z" fill="#263238"/>
<path d="M202.585 143.176L202.58 125.386L212.837 131.313V149.103L202.585 143.176Z" fill="#F0F0F0"/>
<path d="M202.58 125.386L212.837 131.313V138.398L202.58 132.482V125.386Z" fill="#E0E0E0"/>
<path d="M233.397 137.244V119.455L223.104 113.523L212.837 131.313V149.102L233.397 137.244Z" fill="#FAFAFA"/>
<path d="M211.14 134.278L223.104 113.523V111.547L209.428 135.269L211.14 134.278Z" fill="#37474F"/>
<path d="M202.58 99.6895L223.104 111.548L209.428 135.269L202.585 131.313L202.58 99.6895Z" fill="#455A64"/>
<path d="M223.104 113.523L235.109 120.44L236.822 119.454L223.104 111.547V113.523Z" fill="#263238"/>
<path d="M227.397 129.216L231.422 126.909V132.84L227.397 135.148V129.216Z" fill="#455A64"/>
<path d="M231.08 132.64V127.109L227.397 129.216V134.747L231.08 132.64Z" fill="#E0E0E0"/>
<path d="M231.422 132.84L231.08 132.64L227.397 134.747V135.148L231.422 132.84Z" fill="#37474F"/>
<path d="M227.397 132.182L231.422 129.874V129.474L227.397 131.781V132.182Z" fill="#455A64"/>
<path d="M214.765 136.502L218.79 134.194V140.121L214.765 142.433V136.502Z" fill="#455A64"/>
<path d="M218.447 139.926V134.389L214.765 136.502V142.033L218.447 139.926Z" fill="#E0E0E0"/>
<path d="M218.79 140.12L218.447 139.926L214.765 142.033V142.433L218.79 140.12Z" fill="#37474F"/>
<path d="M214.765 139.467L218.79 137.16V136.76L214.765 139.067V139.467Z" fill="#455A64"/>
<path d="M220.538 122.42L225.675 119.455V123.901L220.538 126.867V122.42Z" fill="#455A64"/>
<path d="M225.332 123.701V119.65L220.538 122.421V126.472L225.332 123.701Z" fill="#E0E0E0"/>
<path d="M225.675 123.901L225.332 123.701L220.538 126.472V126.867L225.675 123.901Z" fill="#37474F"/>
<path d="M235.11 120.44H233.397V119.455L235.11 120.44Z" fill="black"/>
<path d="M220.238 144.825V132.967L225.975 129.658V141.516L220.238 144.825Z" fill="#37474F"/>
<path d="M225.775 141.364V129.774L220.238 132.967V144.556L225.775 141.364Z" fill="#455A64"/>
<path d="M225.975 129.658L225.775 129.774V141.364L225.975 141.516V129.658Z" fill="#263238"/>
<path d="M202.58 143.176V125.386L192.329 131.313V149.103L202.58 143.176Z" fill="#FAFAFA"/>
<path d="M202.58 125.386L192.329 131.313V138.398L202.585 132.482L202.58 125.386Z" fill="#F5F5F5"/>
<path d="M171.768 137.244V119.455L182.056 113.523L192.329 131.313V149.102L171.768 137.244Z" fill="#EBEBEB"/>
<path d="M194.025 134.278L182.056 113.523V111.547L195.737 135.269L194.025 134.278Z" fill="#455A64"/>
<path d="M202.58 99.6895L182.056 111.548L195.737 135.269L202.58 131.313V99.6895Z" fill="#37474F"/>
<path d="M182.056 113.523L170.056 120.44L168.344 119.454L182.056 111.547V113.523Z" fill="#263238"/>
<path d="M179.217 129.669L175.192 127.362V133.293L179.217 135.595V129.669Z" fill="#455A64"/>
<path d="M175.535 133.093V127.557L179.217 129.669V135.2L175.535 133.093Z" fill="#FAFAFA"/>
<path d="M175.535 127.557L179.217 129.685V130.417L175.535 128.305V127.557Z" fill="#F5F5F5"/>
<path d="M185.207 133.14L188.889 135.269V136.001L185.207 133.888V133.14Z" fill="#F5F5F5"/>
<path d="M175.192 133.293L175.535 133.093L179.217 135.2V135.596L175.192 133.293Z" fill="#37474F"/>
<path d="M179.217 132.635L175.192 130.327V129.927L179.217 132.234V132.635Z" fill="#455A64"/>
<path d="M184.627 122.42L179.491 119.455V123.901L184.627 126.867V122.42Z" fill="#455A64"/>
<path d="M179.833 123.701V119.65L184.627 122.421V126.472L179.833 123.701Z" fill="#FAFAFA"/>
<path d="M179.833 119.65L184.627 122.421V123.153L179.833 120.403V119.65Z" fill="#F5F5F5"/>
<path d="M179.491 123.901L179.833 123.701L184.627 126.472V126.867L179.491 123.901Z" fill="#37474F"/>
<path d="M170.056 120.44H171.768V119.455L170.056 120.44Z" fill="black"/>
<path d="M188.889 135.269L184.864 132.946V138.872L188.889 141.195V135.269Z" fill="#455A64"/>
<path d="M185.207 138.672V133.14L188.889 135.269V140.8L185.207 138.672Z" fill="#FAFAFA"/>
<path d="M184.864 138.872L185.207 138.672L188.889 140.8V141.195L184.864 138.872Z" fill="#37474F"/>
<path d="M188.889 138.214L184.864 135.906V135.506L188.889 137.813V138.214Z" fill="#455A64"/>
<path d="M185.207 133.14L188.889 135.269V136.001L185.207 133.888V133.14Z" fill="#F5F5F5"/>
<path d="M209.428 135.269L204.287 132.298V137.766L209.428 140.732V135.269Z" fill="#263238"/>
<path d="M204.603 137.582V132.482L209.428 135.269V140.368L204.603 137.582Z" fill="#FAFAFA"/>
<path d="M204.603 132.482V133.667L209.428 136.459V135.269L204.603 132.482Z" fill="#F0F0F0"/>
<path d="M204.287 137.766L204.603 137.581L209.428 140.368V140.732L204.287 137.766Z" fill="#37474F"/>
<path d="M204.287 135.032L204.603 134.847L209.428 137.634V138.003L204.287 135.032Z" fill="#37474F"/>
<path d="M206.752 139.188L207.068 139.367V133.904L206.752 133.72V139.188Z" fill="#37474F"/>
<path d="M199.067 147.153L199.978 146.626C200.229 145.145 200.266 143.635 200.088 142.143C199.63 139.235 197.644 138.229 196.928 138.519C196.211 138.809 196.043 139.673 197.344 141.353C198.52 143.054 199.124 145.086 199.067 147.153Z" fill="#4070FF"/>
<g opacity="0.2">
<path opacity="0.2" d="M199.067 147.153L199.978 146.626C200.229 145.145 200.266 143.635 200.088 142.143C199.63 139.235 197.644 138.229 196.928 138.519C196.211 138.809 196.043 139.673 197.344 141.353C198.52 143.054 199.124 145.086 199.067 147.153Z" fill="black"/>
</g>
<path d="M199.398 146.015C199.39 146.015 199.381 146.012 199.373 146.008C199.365 146.004 199.358 145.998 199.353 145.991C199.348 145.984 199.344 145.976 199.341 145.968C199.339 145.959 199.339 145.95 199.34 145.942C199.72 143.218 198.624 140.231 197.391 139.025C197.379 139.013 197.373 138.997 197.373 138.98C197.373 138.963 197.379 138.947 197.391 138.935C197.403 138.923 197.419 138.917 197.436 138.917C197.453 138.917 197.469 138.923 197.481 138.935C198.735 140.157 199.851 143.192 199.472 145.963C199.471 145.971 199.468 145.979 199.463 145.986C199.459 145.993 199.453 146 199.446 146.005C199.439 146.01 199.432 146.013 199.423 146.015C199.415 146.017 199.407 146.017 199.398 146.015Z" fill="white"/>
<path d="M196.538 148.633C196.39 148.718 196.095 148.539 195.979 148.46C195.786 148.326 195.63 148.144 195.526 147.933C195.41 147.694 195.369 147.426 195.411 147.164C195.433 147.025 195.465 146.888 195.505 146.753C195.548 146.616 195.584 146.484 195.621 146.352C195.669 146.223 195.689 146.085 195.679 145.947C195.643 145.814 195.581 145.69 195.496 145.583C195.411 145.475 195.305 145.386 195.184 145.32C195.049 145.242 194.933 145.133 194.847 145.002C194.761 144.871 194.707 144.722 194.689 144.567C194.706 144.311 194.808 144.068 194.979 143.877C195.137 143.676 195.321 143.503 195.463 143.292C195.56 143.178 195.618 143.036 195.628 142.887C195.637 142.738 195.598 142.59 195.516 142.465C195.383 142.26 195.266 142.045 195.168 141.822C195.12 141.71 195.105 141.587 195.125 141.466C195.144 141.346 195.198 141.234 195.279 141.143C195.359 141.083 195.45 141.039 195.546 141.015C195.643 140.99 195.744 140.985 195.843 141C196.03 141.022 196.21 141.085 196.369 141.185C196.896 141.474 197.191 142.096 197.744 142.317C197.963 142.387 198.187 142.442 198.413 142.481C198.527 142.501 198.635 142.545 198.731 142.61C198.826 142.676 198.907 142.761 198.966 142.86C199.172 143.265 198.793 143.766 198.935 144.198C199.077 144.63 199.435 144.725 199.641 145.072C199.729 145.221 199.764 145.396 199.741 145.568C199.722 145.861 199.651 146.148 199.53 146.416C199.392 146.678 199.238 146.932 199.066 147.174L196.538 148.633Z" fill="#4070FF"/>
<g opacity="0.1">
<path opacity="0.1" d="M196.538 148.633C196.39 148.718 196.095 148.539 195.979 148.46C195.786 148.326 195.63 148.144 195.526 147.933C195.41 147.694 195.369 147.426 195.411 147.164C195.433 147.025 195.465 146.888 195.505 146.753C195.548 146.616 195.584 146.484 195.621 146.352C195.669 146.223 195.689 146.085 195.679 145.947C195.643 145.814 195.581 145.69 195.496 145.583C195.411 145.475 195.305 145.386 195.184 145.32C195.049 145.242 194.933 145.133 194.847 145.002C194.761 144.871 194.707 144.722 194.689 144.567C194.706 144.311 194.808 144.068 194.979 143.877C195.137 143.676 195.321 143.503 195.463 143.292C195.56 143.178 195.618 143.036 195.628 142.887C195.637 142.738 195.598 142.59 195.516 142.465C195.383 142.26 195.266 142.045 195.168 141.822C195.12 141.71 195.105 141.587 195.125 141.466C195.144 141.346 195.198 141.234 195.279 141.143C195.359 141.083 195.45 141.039 195.546 141.015C195.643 140.99 195.744 140.985 195.843 141C196.03 141.022 196.21 141.085 196.369 141.185C196.896 141.474 197.191 142.096 197.744 142.317C197.963 142.387 198.187 142.442 198.413 142.481C198.527 142.501 198.635 142.545 198.731 142.61C198.826 142.676 198.907 142.761 198.966 142.86C199.172 143.265 198.793 143.766 198.935 144.198C199.077 144.63 199.435 144.725 199.641 145.072C199.729 145.221 199.764 145.396 199.741 145.568C199.722 145.861 199.651 146.148 199.53 146.416C199.392 146.678 199.238 146.932 199.066 147.174L196.538 148.633Z" fill="black"/>
</g>
<path d="M198.018 147.849C198.001 147.846 197.986 147.838 197.974 147.826C197.963 147.813 197.956 147.797 197.955 147.78C198.066 145.199 196.849 142.349 195.964 141.522C195.957 141.516 195.952 141.509 195.949 141.501C195.945 141.493 195.944 141.485 195.943 141.476C195.943 141.468 195.944 141.459 195.948 141.451C195.951 141.443 195.955 141.436 195.961 141.43C195.967 141.423 195.974 141.418 195.982 141.415C195.99 141.411 195.998 141.409 196.007 141.409C196.015 141.409 196.024 141.41 196.032 141.413C196.04 141.417 196.047 141.421 196.053 141.427C196.954 142.27 198.197 145.167 198.087 147.785C198.085 147.803 198.078 147.819 198.065 147.83C198.052 147.842 198.035 147.849 198.018 147.849Z" fill="white"/>
<path d="M197.628 144.798C197.016 144.632 196.387 144.531 195.753 144.498C195.744 144.498 195.736 144.496 195.727 144.493C195.719 144.489 195.712 144.484 195.706 144.478C195.7 144.471 195.696 144.464 195.693 144.455C195.69 144.447 195.689 144.438 195.69 144.43C195.691 144.412 195.699 144.396 195.712 144.385C195.724 144.373 195.741 144.366 195.758 144.366C196.403 144.4 197.043 144.504 197.665 144.677C197.673 144.68 197.681 144.684 197.687 144.689C197.693 144.694 197.699 144.701 197.703 144.708C197.707 144.715 197.709 144.723 197.71 144.732C197.711 144.74 197.71 144.748 197.707 144.756C197.701 144.772 197.69 144.784 197.676 144.792C197.661 144.8 197.644 144.802 197.628 144.798Z" fill="white"/>
<path d="M220.238 144.825L225.975 141.516L231.122 144.487L225.385 147.79L220.238 144.825Z" fill="#F0F0F0"/>
<path d="M127.47 153.422L77.3938 182.332V184.555L129.393 214.577L179.465 185.667V183.444L127.47 153.422Z" fill="#4070FF"/>
<path d="M150.581 193.453L156.323 196.809L165.968 191.24L160.21 187.895L150.581 193.453Z" fill="#F0F0F0"/>
<path opacity="0.15" d="M77.3938 182.333L129.393 212.354V214.577L77.3938 184.556V182.333Z" fill="black"/>
<path opacity="0.1" d="M129.393 212.354L179.465 183.444V185.667L129.393 214.577V212.354Z" fill="black"/>
<path d="M173.838 173.599L171.607 177.996L171.968 178.18L174.2 173.783L173.838 173.599Z" fill="#263238"/>
<path d="M169.692 173.226L169.351 173.437L171.528 176.953L171.868 176.742L169.692 173.226Z" fill="#263238"/>
<path d="M172.1 172.819V183.412C172.097 183.442 172.086 183.47 172.069 183.494C172.051 183.518 172.027 183.537 172 183.549C171.926 183.587 171.844 183.607 171.76 183.607C171.677 183.607 171.595 183.587 171.521 183.549C171.494 183.537 171.471 183.518 171.454 183.494C171.438 183.47 171.428 183.442 171.426 183.412V172.819H172.1Z" fill="#263238"/>
<path d="M175.203 174.441C177.92 174.441 180.123 172.238 180.123 169.521C180.123 166.804 177.92 164.601 175.203 164.601C172.486 164.601 170.283 166.804 170.283 169.521C170.283 172.238 172.486 174.441 175.203 174.441Z" fill="#455A64"/>
<path d="M176.746 168.267C177.379 166.265 178.058 165.486 177.626 165.243C176.811 164.781 175.881 164.562 174.946 164.61C174.011 164.659 173.109 164.973 172.346 165.517C171.583 166.06 170.991 166.81 170.64 167.678C170.288 168.547 170.192 169.497 170.362 170.418C170.532 171.339 170.962 172.192 171.6 172.878C172.239 173.563 173.06 174.052 173.966 174.287C174.873 174.522 175.828 174.493 176.719 174.204C177.61 173.915 178.4 173.378 178.996 172.655C177.542 173.077 175.925 170.859 176.746 168.267Z" fill="#37474F"/>
<path d="M167.454 174.373C169.362 174.373 170.91 172.825 170.91 170.917C170.91 169.008 169.362 167.461 167.454 167.461C165.545 167.461 163.998 169.008 163.998 170.917C163.998 172.825 165.545 174.373 167.454 174.373Z" fill="#455A64"/>
<path d="M167.454 167.456C166.728 167.455 166.02 167.684 165.431 168.109C165.341 170.216 167.132 172.281 166.632 172.977C166.132 173.672 164.894 173.24 164.467 172.655C164.773 173.178 165.21 173.612 165.736 173.912C166.262 174.213 166.858 174.37 167.463 174.368C168.069 174.365 168.664 174.204 169.187 173.899C169.711 173.595 170.145 173.158 170.447 172.633C170.749 172.108 170.907 171.513 170.906 170.907C170.905 170.301 170.745 169.706 170.442 169.182C170.139 168.658 169.703 168.222 169.179 167.919C168.654 167.616 168.06 167.457 167.454 167.456Z" fill="#37474F"/>
<path d="M177.945 168.633C178.75 165.224 176.639 161.808 173.229 161.003C169.82 160.199 166.404 162.31 165.6 165.719C164.795 169.128 166.906 172.544 170.316 173.349C173.725 174.154 177.141 172.042 177.945 168.633Z" fill="#455A64"/>
<path d="M177.953 168.636C177.706 169.652 177.211 170.592 176.511 171.37C175.812 172.148 174.93 172.74 173.946 173.094C172.961 173.447 171.904 173.551 170.87 173.395C169.835 173.24 168.855 172.83 168.018 172.202C167.181 171.575 166.513 170.75 166.073 169.8C165.634 168.851 165.437 167.807 165.5 166.763C165.563 165.719 165.884 164.706 166.435 163.817C166.985 162.927 167.748 162.188 168.655 161.666C168.105 161.98 167.605 162.372 167.169 162.83C167.059 163.306 167.003 163.791 167.001 164.279C166.99 165.554 167.365 166.802 168.076 167.859C168.787 168.917 169.801 169.735 170.985 170.206C172.17 170.677 173.469 170.78 174.712 170.499C175.956 170.219 177.085 169.569 177.953 168.636Z" fill="#37474F"/>
<path d="M87.2278 172.343L84.9962 176.74L85.3579 176.923L87.5896 172.526L87.2278 172.343Z" fill="#263238"/>
<path d="M83.0921 171.994L82.7516 172.204L84.9283 175.72L85.2687 175.51L83.0921 171.994Z" fill="#263238"/>
<path d="M85.5116 171.581V182.175C85.5096 182.204 85.4997 182.232 85.483 182.256C85.4663 182.28 85.4434 182.299 85.4168 182.312C85.3426 182.349 85.2604 182.369 85.1771 182.369C85.0938 182.369 85.0116 182.349 84.9374 182.312C84.9101 182.3 84.8865 182.281 84.8689 182.257C84.8513 182.232 84.8404 182.204 84.8373 182.175V171.581H85.5116Z" fill="#263238"/>
<path d="M88.6039 173.208C91.3213 173.208 93.5241 171.006 93.5241 168.288C93.5241 165.571 91.3213 163.368 88.6039 163.368C85.8865 163.368 83.6837 165.571 83.6837 168.288C83.6837 171.006 85.8865 173.208 88.6039 173.208Z" fill="#455A64"/>
<path d="M90.1473 167.029C90.7795 165.027 91.4538 164.248 91.0271 164.005C90.2122 163.544 89.2824 163.324 88.347 163.373C87.4116 163.421 86.5095 163.735 85.7466 164.279C84.9838 164.822 84.3919 165.572 84.0405 166.44C83.6892 167.309 83.5929 168.259 83.7631 169.18C83.9333 170.101 84.3629 170.955 85.0014 171.64C85.6398 172.325 86.4606 172.814 87.3673 173.049C88.274 173.284 89.2289 173.255 90.1198 172.966C91.0108 172.677 91.8007 172.14 92.3967 171.417C90.9428 171.844 89.3203 169.621 90.1473 167.029Z" fill="#37474F"/>
<path d="M80.8548 173.135C82.7633 173.135 84.3105 171.587 84.3105 169.679C84.3105 167.77 82.7633 166.223 80.8548 166.223C78.9462 166.223 77.399 167.77 77.399 169.679C77.399 171.587 78.9462 173.135 80.8548 173.135Z" fill="#455A64"/>
<path d="M80.8547 166.223C80.1293 166.222 79.4217 166.449 78.8319 166.871C78.737 168.978 80.5334 171.043 80.033 171.739C79.5325 172.434 78.2945 172.002 77.8626 171.417C78.1674 171.941 78.6044 172.375 79.13 172.677C79.6556 172.978 80.2511 173.136 80.857 173.135C81.4628 173.133 82.0577 172.973 82.5819 172.669C83.1061 172.365 83.5412 171.929 83.8437 171.404C84.1461 170.879 84.3052 170.284 84.305 169.678C84.3048 169.072 84.1453 168.477 83.8425 167.952C83.5398 167.427 83.1044 166.991 82.58 166.688C82.0556 166.384 81.4606 166.224 80.8547 166.223Z" fill="#37474F"/>
<path d="M89.6606 170.435C92.1375 167.958 92.1375 163.942 89.6606 161.466C87.1837 158.989 83.1678 158.989 80.6909 161.466C78.2139 163.942 78.2139 167.958 80.6908 170.435C83.1678 172.912 87.1837 172.912 89.6606 170.435Z" fill="#455A64"/>
<path d="M91.3485 167.398C91.1021 168.415 90.607 169.355 89.9077 170.134C89.2083 170.913 88.3266 171.505 87.3415 171.859C86.3565 172.213 85.2991 172.317 84.2641 172.161C83.2291 172.005 82.249 171.595 81.4117 170.967C80.5744 170.339 79.9061 169.513 79.4668 168.563C79.0275 167.613 78.831 166.569 78.8949 165.524C78.9587 164.48 79.281 163.467 79.8327 162.578C80.3844 161.688 81.1483 160.95 82.0559 160.428C81.5047 160.739 81.0038 161.132 80.5703 161.593C80.4602 162.068 80.4036 162.554 80.4017 163.041C80.3921 164.315 80.7674 165.561 81.4782 166.618C82.189 167.674 83.2024 168.492 84.3855 168.962C85.5687 169.433 86.8665 169.536 88.1089 169.257C89.3513 168.978 90.4805 168.33 91.3485 167.398Z" fill="#37474F"/>
<path d="M100.504 175.663L140.951 199.01V163.431L100.504 140.084V175.663Z" fill="#F0F0F0"/>
<path d="M129.393 185.667V205.685L88.9516 182.332V162.32L129.393 185.667Z" fill="#F0F0F0"/>
<path d="M88.9516 168.989L129.393 192.341V185.667L88.9516 162.32V168.989Z" fill="#E0E0E0"/>
<path d="M100.504 146.753L140.951 170.1V163.431L100.504 140.079V146.753Z" fill="#E0E0E0"/>
<path d="M140.951 163.431L167.912 147.865V183.444L140.951 199.011V163.431Z" fill="#FAFAFA"/>
<path d="M129.393 185.667L140.951 174.552V199.011L129.393 205.685V185.667Z" fill="#FAFAFA"/>
<path d="M154.432 140.079L140.951 163.431L167.912 147.865L154.432 140.079Z" fill="#FAFAFA"/>
<path d="M139.023 166.766L154.432 140.078V138.414L139.023 165.101V166.766Z" fill="#4070FF"/>
<path opacity="0.1" d="M139.023 166.766L154.432 140.078V138.414L139.023 165.101V166.766Z" fill="black"/>
<path d="M113.986 115.066L98.5803 141.75L139.024 165.1L154.43 138.416L113.986 115.066Z" fill="#4070FF"/>
<path d="M98.5813 141.749L139.023 165.101V166.766L98.5813 143.418V141.749Z" fill="#4070FF"/>
<path opacity="0.15" d="M98.5813 141.749L139.023 165.101V166.766L98.5813 143.418V141.749Z" fill="black"/>
<path d="M154.432 138.414L171.284 148.144L169.835 148.976L154.432 140.078V138.414Z" fill="#4070FF"/>
<path opacity="0.15" d="M154.432 138.414L171.284 148.144L169.835 148.976L154.432 140.078V138.414Z" fill="black"/>
<path d="M169.835 148.976H167.912V147.865L169.835 148.976Z" fill="#4070FF"/>
<path opacity="0.3" d="M169.835 148.976H167.912V147.865L169.835 148.976Z" fill="black"/>
<path d="M106.71 141.432V133.425L111.319 130.765L115.913 138.719V146.753L106.71 141.432Z" fill="#F0F0F0"/>
<path opacity="0.2" d="M111.319 130.765L105.63 134.047L104.903 133.625L111.319 129.922V130.765Z" fill="black"/>
<path d="M115.913 146.753L120.512 138.777L122.861 134.7L115.913 138.719V146.753Z" fill="#FAFAFA"/>
<path opacity="0.4" d="M105.63 134.047H106.71V133.425L105.63 134.047Z" fill="black"/>
<path d="M117.008 140.616L111.319 130.765V129.922L117.72 141.027L117.008 140.616Z" fill="#4070FF"/>
<path opacity="0.1" d="M117.008 140.616L111.319 130.765V129.922L117.72 141.027L117.008 140.616Z" fill="black"/>
<path d="M117.72 141.027L111.319 129.922L117.941 126.097L124.341 137.202L117.72 141.027Z" fill="#4070FF"/>
<path opacity="0.3" d="M117.72 141.027L111.319 129.922L117.941 126.097L124.341 137.202L117.72 141.027Z" fill="white"/>
<path d="M113.616 137.434L109.012 134.774V140.084L113.616 142.744V137.434Z" fill="#455A64"/>
<path d="M109.481 139.81V135.042L113.616 137.434V142.196L109.481 139.81Z" fill="#E0E0E0"/>
<path d="M109.012 140.084L109.481 139.81L113.616 142.196V142.744L109.012 140.084Z" fill="#37474F"/>
<path d="M125.964 152.553V144.546L130.578 141.885L135.172 149.84V157.874L125.964 152.553Z" fill="#F0F0F0"/>
<path opacity="0.2" d="M130.579 141.886L124.889 145.168L124.157 144.746L130.579 141.043V141.886Z" fill="black"/>
<path d="M135.172 157.874L139.766 149.898L142.115 145.821L135.172 149.84V157.874Z" fill="#FAFAFA"/>
<path opacity="0.4" d="M124.889 145.168H125.964V144.546L124.889 145.168Z" fill="black"/>
<path d="M136.268 151.737L130.579 141.886V141.043L136.974 152.147L136.268 151.737Z" fill="#4070FF"/>
<path opacity="0.1" d="M136.268 151.737L130.579 141.886V141.043L136.974 152.147L136.268 151.737Z" fill="black"/>
<path d="M136.974 152.147L130.579 141.043L137.195 137.213L143.596 148.318L136.974 152.147Z" fill="#4070FF"/>
<path opacity="0.3" d="M136.974 152.147L130.579 141.043L137.195 137.213L143.596 148.318L136.974 152.147Z" fill="white"/>
<path d="M132.87 148.549L128.266 145.894V151.204L132.87 153.865V148.549Z" fill="#455A64"/>
<path d="M128.74 150.931V146.163L132.87 148.549V153.317L128.74 150.931Z" fill="#E0E0E0"/>
<path d="M128.266 151.204L128.74 150.93L132.87 153.317V153.865L128.266 151.204Z" fill="#37474F"/>
<path d="M100.504 149.698L140.951 173.045V174.551L127.47 189.007L87.0234 165.654V164.153L100.504 149.698Z" fill="#4070FF"/>
<path d="M100.504 149.698L140.951 173.045L127.47 187.5L87.0234 164.153L100.504 149.698Z" fill="#4070FF"/>
<path opacity="0.1" d="M127.47 187.5V189.007L140.951 174.552V173.045L127.47 187.5Z" fill="black"/>
<path opacity="0.15" d="M127.47 189.007L87.0234 165.654V164.153L127.47 187.5V189.007Z" fill="black"/>
<path d="M104.36 175.658L94.7305 170.1V180.331L104.36 185.888V175.658Z" fill="#263238"/>
<path d="M95.3204 179.988V170.443L104.36 175.663V185.204L95.3204 179.988Z" fill="#FAFAFA"/>
<path d="M95.3204 170.443V172.671L104.36 177.886V175.658L95.3204 170.443Z" fill="#F0F0F0"/>
<path d="M94.7305 180.331L95.3205 179.988L104.36 185.204V185.888L94.7305 180.331Z" fill="#37474F"/>
<path d="M94.7305 175.215L95.3205 174.873L104.36 180.088V180.773L94.7305 175.215Z" fill="#37474F"/>
<path d="M99.3452 182.996L99.9352 183.339V173.108L99.3452 172.766V182.996Z" fill="#37474F"/>
<path d="M121.692 185.667L112.062 180.109V190.339L121.692 195.897V185.667Z" fill="#263238"/>
<path d="M112.652 189.997V180.452L121.692 185.667V195.212L112.652 189.997Z" fill="#FAFAFA"/>
<path d="M112.652 180.452V182.675L121.692 187.895V185.667L112.652 180.452Z" fill="#F0F0F0"/>
<path d="M112.062 190.339L112.652 189.997L121.692 195.212V195.897L112.062 190.339Z" fill="#37474F"/>
<path d="M112.062 185.224L112.652 184.882L121.692 190.097V190.782L112.062 185.224Z" fill="#37474F"/>
<path d="M116.677 193.005L117.267 193.347V183.117L116.677 182.775V193.005Z" fill="#37474F"/>
<path d="M135.172 186.784L144.802 181.221V191.451L135.172 197.009V186.784Z" fill="#263238"/>
<path d="M144.212 191.109V181.563L135.172 186.784V196.324L144.212 191.109Z" fill="#E6E6E6"/>
<path d="M144.212 181.563V182.543L135.172 187.758V186.784L144.212 181.563Z" fill="#E0E0E0"/>
<path d="M144.802 191.451L144.212 191.109L135.172 196.324V197.009L144.802 191.451Z" fill="#37474F"/>
<path d="M144.802 186.336L144.212 185.994L135.172 191.209V191.894L144.802 186.336Z" fill="#37474F"/>
<path d="M140.187 194.117L139.597 194.459V184.229L140.187 183.886V194.117Z" fill="#37474F"/>
<path d="M150.402 153.675L160.031 148.117V158.348L150.402 163.905V153.675Z" fill="#263238"/>
<path d="M159.441 158.005V148.46L150.402 153.675V163.22L159.441 158.005Z" fill="#E6E6E6"/>
<path d="M159.441 148.46V149.44L150.402 154.655V153.675L159.441 148.46Z" fill="#E0E0E0"/>
<path d="M160.031 158.348L159.441 158.005L150.402 163.22V163.905L160.031 158.348Z" fill="#37474F"/>
<path d="M160.031 153.233L159.441 152.89L150.402 158.111V158.795L160.031 153.233Z" fill="#37474F"/>
<path d="M155.417 161.013L154.827 161.356V151.125L155.417 150.783V161.013Z" fill="#37474F"/>
<path d="M150.581 193.453V175.663L160.21 170.1V187.895L150.581 193.453Z" fill="#37474F"/>
<path d="M159.858 187.627V170.306L150.581 175.663V192.984L159.858 187.627Z" fill="#455A64"/>
<path d="M160.21 170.1L159.858 170.306V187.627L160.21 187.895V170.1Z" fill="#263238"/>
<path d="M205.52 45.7199C205.49 44.3248 205.132 42.9562 204.475 41.7252C203.818 40.4942 202.88 39.4354 201.737 38.6345C200.684 37.9655 199.672 37.8654 198.935 38.2447C194.483 40.4783 163.203 60.5332 161.206 61.5236H161.18C160.969 61.6632 160.8 61.8563 160.689 62.0832C160.578 62.31 160.529 62.5623 160.548 62.8142C160.56 63.5175 160.739 64.2078 161.069 64.8286C161.4 65.4494 161.873 65.9831 162.449 66.3858C162.649 66.5417 162.886 66.6414 163.137 66.6747C163.388 66.708 163.644 66.6738 163.877 66.5755H163.909C167.069 64.8318 197.944 51.6726 204.255 48.2906C204.998 47.8797 205.478 46.9947 205.52 45.7199Z" fill="#4070FF"/>
<path opacity="0.1" d="M204.292 41.3947C203.673 40.2838 202.797 39.3373 201.737 38.6343C200.684 37.9653 199.683 37.8652 198.945 38.2392L198.851 38.2919C194.789 40.3675 171.51 55.2177 163.677 60.0483L163.624 60.0799L163.308 60.2749L163.213 60.3328L163.034 60.4434L162.823 60.5699C161.996 61.0967 161.438 61.4022 161.243 61.5128H161.217C161.15 61.5526 161.088 61.6003 161.032 61.6551C160.884 61.8067 160.769 61.9865 160.692 62.1838C160.615 62.3811 160.578 62.5918 160.584 62.8035C160.574 62.9525 160.574 63.1021 160.584 63.2512C160.584 63.3092 160.584 63.3671 160.611 63.4251C160.637 63.483 160.642 63.6042 160.664 63.699C160.685 63.7938 160.7 63.8465 160.721 63.915C160.743 63.9835 160.774 64.0888 160.806 64.1731C160.837 64.2574 160.853 64.2995 160.874 64.3628V64.3944L204.292 41.3947Z" fill="black"/>
<path d="M162.444 66.3909C161.87 65.9891 161.399 65.4578 161.069 64.8401C160.738 64.2223 160.558 63.5354 160.542 62.8351C160.59 61.5497 161.506 61.0545 162.597 61.7341C163.171 62.1364 163.643 62.6685 163.973 63.2872C164.304 63.906 164.484 64.5939 164.498 65.2952C164.456 66.5805 163.534 67.081 162.444 66.3909Z" fill="#4070FF"/>
<path d="M153.094 67.2547C153.106 67.7928 153.244 68.3205 153.498 68.7954C153.751 69.2702 154.113 69.679 154.553 69.9888C154.706 70.107 154.887 70.1824 155.079 70.2074C155.27 70.2324 155.465 70.206 155.643 70.131L163.208 66.101C163.369 65.9944 163.498 65.847 163.583 65.6739C163.668 65.5009 163.706 65.3083 163.693 65.116C163.681 64.5777 163.543 64.0497 163.289 63.5747C163.036 63.0997 162.674 62.6911 162.233 62.3819C162.081 62.2624 161.9 62.1856 161.708 62.1597C161.517 62.1338 161.321 62.1596 161.143 62.2344L153.578 66.2644C153.417 66.3715 153.287 66.5197 153.201 66.6938C153.116 66.8678 153.079 67.0615 153.094 67.2547Z" fill="#37474F"/>
<path d="M153.589 66.2644C153.425 66.3702 153.293 66.5178 153.206 66.692C153.119 66.8662 153.08 67.0605 153.093 67.2547C153.091 67.6545 153.17 68.0507 153.325 68.4189L163.081 63.2142C162.86 62.8839 162.576 62.601 162.244 62.3819C162.092 62.2624 161.91 62.1856 161.719 62.1597C161.527 62.1338 161.332 62.1596 161.153 62.2344L153.589 66.2644Z" fill="#263238"/>
<path d="M162.802 73.966C162.802 69.1195 159.599 64.273 153.188 60.575C140.377 53.1736 119.6 53.1736 106.783 60.575C100.378 64.2625 97.1748 69.1195 97.1748 73.966V82.9214C97.1748 87.7679 100.378 92.6144 106.789 96.3177C119.6 103.693 140.377 103.693 153.188 96.3177C159.599 92.6302 162.802 87.7679 162.802 82.9214V73.966ZM108.359 63.3196C114.079 60.0166 121.755 58.1992 129.957 58.1992C138.159 58.1992 145.85 60.0166 151.555 63.3196C156.728 66.3065 159.578 70.0888 159.578 73.9712C159.578 77.8537 156.728 81.6308 151.555 84.6177C145.834 87.9206 138.159 89.7381 129.957 89.7381C121.755 89.7381 114.064 87.9206 108.359 84.6177C103.18 81.6308 100.336 77.8484 100.336 73.9712C100.336 70.0941 103.196 66.3065 108.359 63.3196Z" fill="#4070FF"/>
<path opacity="0.3" d="M106.778 87.3625C119.595 94.7639 140.366 94.7639 153.183 87.3625C166 79.9611 166 67.9713 153.183 60.5752C140.366 53.1791 119.595 53.1738 106.778 60.5752C93.9614 67.9766 93.9719 79.9663 106.778 87.3625ZM100.341 73.9715C100.341 70.089 103.191 66.3067 108.364 63.3198C114.09 60.0168 121.765 58.1994 129.962 58.1994C138.159 58.1994 145.855 60.0168 151.561 63.3198C156.734 66.3067 159.584 70.089 159.584 73.9715C159.584 77.8539 156.734 81.631 151.561 84.6179C145.834 87.9209 138.159 89.7383 129.962 89.7383C121.765 89.7383 114.069 87.9209 108.364 84.6179C103.196 81.631 100.346 77.8486 100.346 73.9715H100.341Z" fill="white"/>
<path d="M100.346 73.9663C100.365 75.5448 100.807 77.0894 101.626 78.4387C102.927 76.1841 105.219 74.0717 108.374 72.2542C114.09 68.946 121.771 67.1286 129.973 67.1286C138.175 67.1286 145.866 68.946 151.571 72.2542C154.732 74.0717 157.018 76.1841 158.325 78.4387C159.14 77.0879 159.58 75.544 159.599 73.9663C159.599 70.0891 156.749 66.3068 151.571 63.3199C145.855 60.0169 138.175 58.1995 129.973 58.1995C121.771 58.1995 114.074 60.0169 108.374 63.3199C103.196 66.3068 100.346 70.0891 100.346 73.9663Z" fill="#4070FF"/>
<path opacity="0.1" d="M100.346 73.9663C100.365 75.5448 100.807 77.0894 101.626 78.4387C102.927 76.1841 105.219 74.0717 108.374 72.2542C114.09 68.946 121.771 67.1286 129.973 67.1286C138.175 67.1286 145.866 68.946 151.571 72.2542C154.732 74.0717 157.018 76.1841 158.325 78.4387C159.14 77.0879 159.58 75.544 159.599 73.9663C159.599 70.0891 156.749 66.3068 151.571 63.3199C145.855 60.0169 138.175 58.1995 129.973 58.1995C121.771 58.1995 114.074 60.0169 108.374 63.3199C103.196 66.3068 100.346 70.0891 100.346 73.9663Z" fill="black"/>
<path opacity="0.4" d="M108.359 67.3654C114.085 64.0624 121.76 62.2397 129.957 62.2397C138.154 62.2397 145.85 64.0624 151.555 67.3654C155.822 69.8308 158.504 72.8335 159.315 75.989C158.504 79.1497 155.822 82.1524 151.555 84.6178C145.829 87.9208 138.154 89.7382 129.957 89.7382C121.76 89.7382 114.064 87.9208 108.359 84.6178C104.092 82.1524 101.41 79.1444 100.599 75.989C101.421 72.8335 104.102 69.8308 108.359 67.3654Z" fill="white"/>
<path opacity="0.1" d="M122.255 92.3671V101.323C116.587 100.532 111.193 98.8624 106.789 96.3075C100.378 92.62 97.1748 87.7577 97.1748 82.906V73.9505C97.1771 72.9632 97.3081 71.9803 97.5646 71.0269C95.9843 76.7952 99.0818 82.9007 106.778 87.3573C111.214 89.9228 116.587 91.5927 122.255 92.3671Z" fill="black"/>
</svg>
