<svg width="242" height="242" viewBox="0 0 242 242" fill="none" xmlns="http://www.w3.org/2000/svg">
<path d="M227.267 133.729C227.267 133.797 180.701 133.855 123.27 133.855C65.8385 133.855 19.2632 133.797 19.2632 133.729C19.2632 133.661 65.824 133.584 123.27 133.584C180.716 133.584 227.267 133.657 227.267 133.729Z" fill="#E0E0E0"/>
<path d="M82.43 116.16C80.2135 115.54 78.1461 114.476 76.3537 113.033C74.5613 111.589 73.0813 109.796 72.0037 107.762C70.9262 105.728 70.2737 103.497 70.0858 101.203C69.8979 98.9088 70.1786 96.6007 70.9108 94.4187C72.0482 91.0307 74.2456 88.0348 75.1846 84.579C76.2542 80.6586 75.6153 76.5011 74.9571 72.479C74.2988 68.457 73.6261 64.3236 74.628 60.379C75.6298 56.4344 78.7807 52.7415 82.856 52.4608C86.6118 52.2043 90.0869 54.9873 91.6551 58.414C93.2232 61.8407 93.2378 65.7708 92.8699 69.546C92.5021 73.3212 91.7906 77.0431 92.0132 80.8087C92.4682 88.422 96.7322 95.5949 96.2337 103.208C95.9724 107.172 94.4381 109.708 91.81 112.69C89.5448 115.26 85.7842 116.954 82.4494 116.165" fill="#F0F0F0"/>
<path d="M83.1512 135.099C83.0931 135.099 83.0447 121.353 83.0447 104.404C83.0447 87.454 83.0931 73.6987 83.1512 73.6987C83.2093 73.6987 83.2528 87.4443 83.2528 104.404C83.2528 121.363 83.2044 135.099 83.1512 135.099Z" fill="#E0E0E0"/>
<path d="M89.9708 98.0439C90.0046 98.0874 88.5188 99.3119 86.6457 100.769C84.7726 102.226 83.2286 103.382 83.1948 103.334C83.1609 103.286 84.6467 102.071 86.5198 100.609C88.3929 99.1474 89.9369 98.0003 89.9708 98.0439Z" fill="#E0E0E0"/>
<path d="M83.156 97.1582C82.4198 96.7759 81.7172 96.3323 81.0555 95.832C80.3585 95.3865 79.6967 94.8881 79.0759 94.3413C79.8127 94.7206 80.5155 95.1627 81.1765 95.6626C81.8766 96.1054 82.5388 96.6056 83.156 97.1582Z" fill="#E0E0E0"/>
<path d="M41.169 75.3588L32.8781 92.081L35.3514 92.173L28.3285 105.464H32.0166L26.2618 117.273H58.4333L51.3524 105.464L54.7452 105.318L47.9547 92.0326L50.4667 91.8874L41.169 75.3588Z" fill="#F0F0F0"/>
<path d="M41.4836 94.6994C41.5514 94.6994 41.4836 103.382 41.3772 114.088C41.2707 124.795 41.0868 133.478 41.019 133.478C40.9512 133.478 41.019 124.795 41.1255 114.084C41.232 103.373 41.411 94.6946 41.4836 94.6994Z" fill="#E0E0E0"/>
<path d="M46.2656 99.704C45.5369 100.47 44.7488 101.177 43.9085 101.819C43.1221 102.53 42.2805 103.177 41.3917 103.755C42.1211 102.99 42.9092 102.283 43.7488 101.64C44.5358 100.93 45.3773 100.282 46.2656 99.704Z" fill="#E0E0E0"/>
<path d="M32.4909 43.076H56.0859C56.0859 43.076 56.0859 37.6746 53.2981 37.6746C52.2999 37.6424 51.3217 37.9592 50.5319 38.5705C49.7421 39.1819 49.1902 40.0494 48.9711 41.0239C48.9711 41.0239 48.9711 30.976 43.8988 32.428C39.1024 33.8316 38.5748 40.2833 38.5748 40.2833C38.5748 40.2833 37.7084 37.0357 35.1094 38.8652C32.5103 40.6947 32.4909 43.076 32.4909 43.076Z" fill="#F0F0F0"/>
<path d="M233.23 212.728C233.23 212.795 184.419 212.853 124.223 212.853C64.0284 212.853 15.2024 212.795 15.2024 212.728C15.2024 212.66 64.0042 212.602 124.223 212.602C184.443 212.602 233.23 212.655 233.23 212.728Z" fill="#263238"/>
<path d="M108.111 68.1472V157.01H208.052V68.1472H197.24L175.353 40.7189L156.893 67.881L108.111 68.1472Z" fill="#4070FF"/>
<g opacity="0.5">
<path opacity="0.5" d="M108.111 68.1472V157.01H208.052V68.1472H197.24L175.353 40.7189L156.893 67.881L108.111 68.1472Z" fill="white"/>
</g>
<path d="M127.868 35.482C127.384 36.1403 99.1619 69.4346 99.1619 69.4346H156.245L175.353 40.7189L197.24 68.1472L217.258 68.123L192.821 34.6641L127.868 35.482Z" fill="#263238"/>
<path d="M146.831 153.326H123.149V157.014H146.831V153.326Z" fill="#E6E6E6"/>
<path d="M149.295 158.844H117.694V161.704H149.295V158.844Z" fill="#E6E6E6"/>
<path d="M124.722 117.597L124.916 153.128H145.258V117.597H124.722Z" fill="#4070FF"/>
<g opacity="0.2">
<path opacity="0.2" d="M124.722 117.597L124.916 153.128H145.258V117.597H124.722Z" fill="black"/>
</g>
<g opacity="0.4">
<path opacity="0.4" d="M140.699 136.261C141.193 136.261 141.594 135.86 141.594 135.365C141.594 134.871 141.193 134.47 140.699 134.47C140.204 134.47 139.803 134.871 139.803 135.365C139.803 135.86 140.204 136.261 140.699 136.261Z" fill="black"/>
</g>
<path d="M135.06 105.396L116.3 120.86V125.138L135.225 109.766L152.557 123.972V119.504L135.06 105.396Z" fill="#263238"/>
<path d="M145.229 30.8889H140.844V36.9631H145.229V30.8889Z" fill="#4070FF"/>
<path d="M152.813 27.6896H148.191V36.963H152.813V27.6896Z" fill="#4070FF"/>
<g opacity="0.4">
<path opacity="0.4" d="M145.229 30.8889H140.844V36.9631H145.229V30.8889Z" fill="black"/>
<path opacity="0.4" d="M152.813 27.6896H148.191V36.963H152.813V27.6896Z" fill="black"/>
</g>
<path d="M178.635 55.0018H173.466V60.1709H178.635V55.0018Z" fill="white"/>
<g opacity="0.1">
<path opacity="0.1" d="M156.245 69.4346H158.999L177.081 42.8872L175.353 40.7189L156.245 69.4346Z" fill="black"/>
</g>
<g opacity="0.1">
<path opacity="0.1" d="M108.111 69.4346V72.3047L156.245 69.4346H108.111Z" fill="black"/>
</g>
<g opacity="0.1">
<path opacity="0.1" d="M197.24 68.1472L208.052 71.7336V68.1472H197.24Z" fill="black"/>
</g>
<path d="M148.191 155.596H120.666V159.173H148.191V155.596Z" fill="#E6E6E6"/>
<path d="M147.47 155.645C147.47 155.712 141.517 155.771 134.174 155.771C126.832 155.771 120.884 155.712 120.884 155.645C120.884 155.577 126.832 155.519 134.174 155.519C141.517 155.519 147.47 155.572 147.47 155.645Z" fill="#E0E0E0"/>
<path d="M147.47 158.844C147.47 158.912 141.517 158.97 134.174 158.97C126.832 158.97 120.884 158.912 120.884 158.844C120.884 158.776 126.832 158.718 134.174 158.718C141.517 158.718 147.47 158.752 147.47 158.844Z" fill="#E0E0E0"/>
<path d="M146.086 74.3569H123.149V96.1466H146.086V74.3569Z" fill="white"/>
<path d="M133.526 74.3569C133.526 74.3569 127.021 85.4454 123.459 85.5422C123.459 85.5422 126.76 87.2265 127.011 96.1466H123.139V74.3666L133.526 74.3569Z" fill="#4070FF"/>
<path d="M135.709 74.3569C135.709 74.3569 142.209 85.4454 145.776 85.5422C145.776 85.5422 142.47 87.2265 142.223 96.1466H146.095V74.3666L135.709 74.3569Z" fill="#4070FF"/>
<path d="M134.794 74.1633H134.068V97.405H134.794V74.1633Z" fill="#263238"/>
<path d="M122.81 85.4212V86.1472H146.052V85.4212H122.81Z" fill="#263238"/>
<path d="M147.238 96.1466H121.62V96.6887H147.238V96.1466Z" fill="#263238"/>
<path d="M193.973 74.3569H171.036V96.1466H193.973V74.3569Z" fill="white"/>
<path d="M181.413 74.3569C181.413 74.3569 174.913 85.4454 171.346 85.5422C171.346 85.5422 174.651 87.2265 174.898 96.1466H171.026V74.3666L181.413 74.3569Z" fill="#4070FF"/>
<path d="M183.596 74.3569C183.596 74.3569 190.096 85.4454 193.663 85.5422C193.663 85.5422 190.362 87.2265 190.11 96.1466H193.982V74.3666L183.596 74.3569Z" fill="#4070FF"/>
<path d="M182.681 74.1633H181.955V97.405H182.681V74.1633Z" fill="#263238"/>
<path d="M170.697 85.4212V86.1472H193.939V85.4212H170.697Z" fill="#263238"/>
<path d="M195.129 96.1466H169.511V96.6887H195.129V96.1466Z" fill="#263238"/>
<path d="M193.973 120.371H171.036V142.16H193.973V120.371Z" fill="white"/>
<path d="M181.413 120.371C181.413 120.371 174.913 131.464 171.346 131.561C171.346 131.561 174.651 133.245 174.898 142.16H171.026V120.38L181.413 120.371Z" fill="#4070FF"/>
<path d="M183.596 120.371C183.596 120.371 190.096 131.464 193.663 131.561C193.663 131.561 190.362 133.245 190.11 142.16H193.982V120.38L183.596 120.371Z" fill="#4070FF"/>
<path d="M182.681 120.177H181.955V143.419H182.681V120.177Z" fill="#263238"/>
<path d="M170.697 131.44V132.166H193.939V131.44H170.697Z" fill="#263238"/>
<path d="M195.129 142.16H169.511V142.703H195.129V142.16Z" fill="#263238"/>
<path d="M110.434 139.624V212.379H116.678V144.513H164.182V139.624H110.434Z" fill="#455A64"/>
<path d="M116.678 144.513H114.66V212.379H116.678V144.513Z" fill="#263238"/>
<path d="M164.182 139.624H160.383V144.513H164.182V139.624Z" fill="#263238"/>
<path d="M165.301 148.075H119.466V176.979H165.301V148.075Z" fill="#4070FF"/>
<path d="M165.301 148.075H119.466V176.979H165.301V148.075Z" fill="#4070FF"/>
<path d="M165.305 148.075H162.774V176.979H165.305V148.075Z" fill="#4070FF"/>
<g opacity="0.2">
<path opacity="0.2" d="M165.305 148.075H162.774V176.979H165.305V148.075Z" fill="black"/>
</g>
<path d="M160.383 174.487C160.383 174.487 160.383 174.332 160.383 174.046C160.383 173.761 160.383 173.33 160.383 172.783C160.383 171.67 160.383 170.049 160.359 167.972C160.359 163.815 160.33 157.842 160.306 150.548L160.407 150.645L122.171 150.674L122.297 150.548C122.297 159.038 122.297 167.13 122.297 174.497L122.181 174.38L149.672 174.434L157.557 174.467H159.662H160.204H160.393H159.686H157.605L149.74 174.501L122.152 174.559H122.036V174.443C122.036 167.077 122.036 158.984 122.036 150.495V150.364H122.166L160.402 150.393H160.499V150.524C160.499 157.852 160.461 163.849 160.451 168.021C160.451 170.087 160.451 171.699 160.422 172.807V174.051C160.388 174.346 160.383 174.487 160.383 174.487Z" fill="#263238"/>
<path d="M128.318 144.513H126.958V148.075H128.318V144.513Z" fill="#4070FF"/>
<path d="M150.703 144.513H149.343V148.075H150.703V144.513Z" fill="#4070FF"/>
<path d="M134.61 156.501V158.021H137.654V159.531H134.61V161.893H132.674V154.991H138.085V156.501H134.61Z" fill="#4070FF"/>
<path opacity="0.2" d="M134.61 156.501V158.021H137.654V159.531H134.61V161.893H132.674V154.991H138.085V156.501H134.61Z" fill="black"/>
<path d="M138.574 158.442C138.574 156.376 140.2 154.856 142.407 154.856C144.614 154.856 146.245 156.376 146.245 158.442C146.245 160.509 144.619 162.034 142.407 162.034C140.195 162.034 138.574 160.514 138.574 158.442ZM144.271 158.442C144.25 158.078 144.123 157.727 143.905 157.434C143.687 157.141 143.389 156.919 143.046 156.794C142.703 156.668 142.331 156.647 141.975 156.731C141.62 156.815 141.297 157.001 141.047 157.267C140.796 157.532 140.629 157.865 140.566 158.225C140.502 158.584 140.546 158.954 140.69 159.289C140.835 159.625 141.075 159.91 141.38 160.11C141.685 160.311 142.042 160.417 142.407 160.417C142.662 160.42 142.915 160.369 143.15 160.27C143.384 160.17 143.596 160.023 143.771 159.837C143.946 159.652 144.081 159.432 144.167 159.192C144.253 158.952 144.288 158.697 144.271 158.442Z" fill="#4070FF"/>
<path opacity="0.2" d="M138.574 158.442C138.574 156.376 140.2 154.856 142.407 154.856C144.614 154.856 146.245 156.376 146.245 158.442C146.245 160.509 144.619 162.034 142.407 162.034C140.195 162.034 138.574 160.514 138.574 158.442ZM144.271 158.442C144.25 158.078 144.123 157.727 143.905 157.434C143.687 157.141 143.389 156.919 143.046 156.794C142.703 156.668 142.331 156.647 141.975 156.731C141.62 156.815 141.297 157.001 141.047 157.267C140.796 157.532 140.629 157.865 140.566 158.225C140.502 158.584 140.546 158.954 140.69 159.289C140.835 159.625 141.075 159.91 141.38 160.11C141.685 160.311 142.042 160.417 142.407 160.417C142.662 160.42 142.915 160.369 143.15 160.27C143.384 160.17 143.596 160.023 143.771 159.837C143.946 159.652 144.081 159.432 144.167 159.192C144.253 158.952 144.288 158.697 144.271 158.442Z" fill="black"/>
<path d="M150.287 160.059H149.222V161.893H147.286V154.991H150.442C152.324 154.991 153.505 155.959 153.505 157.547C153.524 158.003 153.405 158.455 153.164 158.843C152.924 159.231 152.572 159.538 152.155 159.725L153.646 161.893H151.54L150.287 160.059ZM150.287 156.53H149.203V158.554H150.287C151.095 158.554 151.502 158.176 151.502 157.547C151.502 156.918 151.114 156.53 150.306 156.53H150.287Z" fill="#4070FF"/>
<path opacity="0.2" d="M150.287 160.059H149.222V161.893H147.286V154.991H150.442C152.324 154.991 153.505 155.959 153.505 157.547C153.524 158.003 153.405 158.455 153.164 158.843C152.924 159.231 152.572 159.538 152.155 159.725L153.646 161.893H151.54L150.287 160.059ZM150.287 156.53H149.203V158.554H150.287C151.095 158.554 151.502 158.176 151.502 157.547C151.502 156.918 151.114 156.53 150.306 156.53H150.287Z" fill="black"/>
<path d="M129.122 171.084L129.794 169.574C130.508 170.03 131.334 170.276 132.18 170.286C133.027 170.286 133.361 170.049 133.361 169.7C133.361 168.553 129.243 169.39 129.243 166.699C129.243 165.407 130.298 164.352 132.451 164.352C133.366 164.337 134.268 164.555 135.075 164.986L134.446 166.506C133.833 166.156 133.143 165.963 132.437 165.944C131.58 165.944 131.27 166.235 131.27 166.598C131.27 167.701 135.375 166.878 135.375 169.545C135.375 170.804 134.32 171.878 132.171 171.878C131.1 171.905 130.043 171.63 129.122 171.084Z" fill="#4070FF"/>
<path opacity="0.2" d="M129.122 171.084L129.794 169.574C130.508 170.03 131.334 170.276 132.18 170.286C133.027 170.286 133.361 170.049 133.361 169.7C133.361 168.553 129.243 169.39 129.243 166.699C129.243 165.407 130.298 164.352 132.451 164.352C133.366 164.337 134.268 164.555 135.075 164.986L134.446 166.506C133.833 166.156 133.143 165.963 132.437 165.944C131.58 165.944 131.27 166.235 131.27 166.598C131.27 167.701 135.375 166.878 135.375 169.545C135.375 170.804 134.32 171.878 132.171 171.878C131.1 171.905 130.043 171.63 129.122 171.084Z" fill="black"/>
<path d="M141.168 170.329H138.105L137.538 171.738H135.447L138.642 164.478H140.66L143.864 171.738H141.735L141.168 170.329ZM140.568 168.819L139.634 166.496L138.705 168.81L140.568 168.819Z" fill="#4070FF"/>
<path opacity="0.2" d="M141.168 170.329H138.105L137.538 171.738H135.447L138.642 164.478H140.66L143.864 171.738H141.735L141.168 170.329ZM140.568 168.819L139.634 166.496L138.705 168.81L140.568 168.819Z" fill="black"/>
<path d="M144.445 164.497H146.492V170.111H149.948V171.738H144.445V164.497Z" fill="#4070FF"/>
<path opacity="0.2" d="M144.445 164.497H146.492V170.111H149.948V171.738H144.445V164.497Z" fill="black"/>
<path d="M156.564 170.155V171.738H150.756V164.478H156.429V166.06H152.779V167.28H155.993V168.81H152.779V170.136L156.564 170.155Z" fill="#4070FF"/>
<path opacity="0.2" d="M156.564 170.155V171.738H150.756V164.478H156.429V166.06H152.779V167.28H155.993V168.81H152.779V170.136L156.564 170.155Z" fill="black"/>
<path d="M159.483 152.518C159.459 152.518 159.454 152.426 159.401 152.281C159.33 152.084 159.2 151.915 159.028 151.797C158.905 151.709 158.761 151.653 158.611 151.634C158.46 151.616 158.307 151.635 158.166 151.69C157.997 151.755 157.851 151.87 157.748 152.019C157.645 152.169 157.59 152.346 157.59 152.528C157.592 152.709 157.647 152.886 157.75 153.035C157.852 153.184 157.998 153.299 158.166 153.365C158.308 153.418 158.46 153.436 158.61 153.417C158.76 153.399 158.903 153.344 159.028 153.259C159.199 153.139 159.329 152.97 159.401 152.775C159.454 152.629 159.459 152.542 159.483 152.542C159.507 152.542 159.522 152.629 159.483 152.799C159.442 153.041 159.313 153.26 159.12 153.413C158.976 153.53 158.804 153.609 158.621 153.641C158.438 153.673 158.25 153.658 158.074 153.597C157.856 153.52 157.668 153.376 157.534 153.187C157.401 152.997 157.329 152.771 157.329 152.54C157.329 152.308 157.401 152.082 157.534 151.893C157.668 151.704 157.856 151.56 158.074 151.482C158.25 151.422 158.438 151.407 158.621 151.439C158.804 151.471 158.976 151.549 159.12 151.666C159.313 151.819 159.442 152.038 159.483 152.281C159.522 152.426 159.493 152.518 159.483 152.518Z" fill="#263238"/>
<path d="M159.023 151.913C159.071 151.961 158.892 152.233 158.616 152.523C158.341 152.813 158.084 153.007 158.031 152.963C157.978 152.92 158.162 152.644 158.437 152.354C158.713 152.063 158.97 151.865 159.023 151.913Z" fill="#263238"/>
<path d="M159.13 152.896C159.13 152.958 158.757 152.896 158.423 152.595C158.089 152.295 157.939 152 157.992 151.961C158.045 151.923 158.278 152.15 158.583 152.402C158.888 152.654 159.159 152.828 159.13 152.896Z" fill="#263238"/>
<path d="M159.11 172.924C159.11 172.924 159.081 172.832 159.033 172.686C158.961 172.491 158.831 172.322 158.66 172.202C158.536 172.115 158.393 172.059 158.243 172.04C158.092 172.022 157.94 172.041 157.799 172.096C157.629 172.161 157.483 172.275 157.38 172.425C157.277 172.574 157.222 172.752 157.223 172.933C157.225 173.11 157.28 173.283 157.38 173.429C157.48 173.575 157.62 173.689 157.784 173.756C157.926 173.809 158.078 173.827 158.228 173.808C158.378 173.79 158.521 173.735 158.646 173.65C158.815 173.528 158.944 173.36 159.018 173.166C159.067 173.02 159.076 172.933 159.096 172.933C159.115 172.933 159.139 173.02 159.096 173.19C159.055 173.431 158.927 173.65 158.737 173.804C158.593 173.921 158.421 173.999 158.238 174.031C158.056 174.063 157.868 174.048 157.692 173.988C157.472 173.913 157.28 173.77 157.145 173.581C157.01 173.391 156.937 173.164 156.937 172.931C156.937 172.698 157.01 172.471 157.145 172.281C157.28 172.091 157.472 171.949 157.692 171.873C157.868 171.813 158.056 171.798 158.238 171.831C158.421 171.863 158.593 171.941 158.737 172.057C158.927 172.212 159.055 172.43 159.096 172.672C159.154 172.832 159.125 172.924 159.11 172.924Z" fill="#263238"/>
<path d="M158.65 172.304C158.704 172.352 158.525 172.623 158.249 172.914C157.973 173.204 157.716 173.398 157.663 173.354C157.61 173.311 157.794 173.035 158.065 172.744C158.336 172.454 158.602 172.27 158.65 172.304Z" fill="#263238"/>
<path d="M158.752 173.301C158.752 173.364 158.379 173.277 158.045 173.001C157.711 172.725 157.561 172.406 157.615 172.367C157.668 172.328 157.9 172.556 158.205 172.807C158.51 173.059 158.791 173.233 158.752 173.301Z" fill="#263238"/>
<path d="M125.216 172.43C125.216 172.43 125.187 172.343 125.133 172.198C125.061 172.002 124.931 171.833 124.761 171.714C124.636 171.628 124.493 171.573 124.343 171.555C124.193 171.536 124.041 171.554 123.899 171.607C123.731 171.673 123.586 171.789 123.483 171.938C123.381 172.087 123.325 172.263 123.323 172.444C123.326 172.625 123.383 172.8 123.486 172.947C123.59 173.095 123.735 173.208 123.904 173.272C124.045 173.327 124.198 173.347 124.348 173.328C124.499 173.31 124.642 173.254 124.766 173.166C124.938 173.047 125.068 172.878 125.138 172.682C125.191 172.536 125.196 172.444 125.22 172.444C125.245 172.444 125.259 172.536 125.22 172.706C125.179 172.948 125.05 173.167 124.857 173.32C124.713 173.437 124.541 173.515 124.359 173.548C124.176 173.58 123.988 173.565 123.812 173.504C123.594 173.426 123.405 173.283 123.272 173.094C123.138 172.904 123.067 172.678 123.067 172.447C123.067 172.215 123.138 171.989 123.272 171.8C123.405 171.611 123.594 171.467 123.812 171.389C123.988 171.329 124.176 171.314 124.359 171.346C124.541 171.378 124.713 171.456 124.857 171.573C125.05 171.726 125.179 171.945 125.22 172.188C125.254 172.343 125.225 172.435 125.216 172.43Z" fill="#263238"/>
<path d="M124.756 171.82C124.804 171.864 124.625 172.139 124.354 172.43C124.083 172.72 123.817 172.914 123.764 172.87C123.71 172.827 123.894 172.546 124.17 172.256C124.446 171.965 124.703 171.781 124.756 171.82Z" fill="#263238"/>
<path d="M124.872 172.812C124.848 172.875 124.499 172.783 124.165 172.512C123.831 172.241 123.681 171.912 123.735 171.878C123.788 171.844 124.02 172.067 124.325 172.314C124.63 172.561 124.872 172.744 124.872 172.812Z" fill="#263238"/>
<path d="M125.395 152.915C125.371 152.915 125.366 152.828 125.312 152.683C125.241 152.487 125.11 152.318 124.94 152.199C124.815 152.113 124.672 152.058 124.522 152.04C124.372 152.021 124.22 152.039 124.078 152.092C123.909 152.158 123.764 152.273 123.662 152.422C123.559 152.572 123.503 152.748 123.502 152.929C123.502 153.111 123.557 153.288 123.66 153.438C123.763 153.587 123.909 153.702 124.078 153.767C124.219 153.822 124.372 153.842 124.523 153.823C124.673 153.804 124.816 153.748 124.94 153.66C125.112 153.542 125.242 153.373 125.312 153.176C125.366 153.031 125.371 152.939 125.395 152.939C125.419 152.939 125.433 153.031 125.395 153.201C125.354 153.443 125.224 153.662 125.032 153.815C124.887 153.932 124.716 154.01 124.533 154.042C124.35 154.075 124.162 154.06 123.986 153.999C123.768 153.921 123.579 153.778 123.446 153.589C123.312 153.399 123.241 153.173 123.241 152.942C123.241 152.71 123.312 152.484 123.446 152.295C123.579 152.105 123.768 151.962 123.986 151.884C124.162 151.823 124.35 151.809 124.533 151.841C124.716 151.873 124.887 151.951 125.032 152.068C125.224 152.221 125.354 152.44 125.395 152.683C125.433 152.828 125.404 152.915 125.395 152.915Z" fill="#263238"/>
<path d="M124.935 152.315C124.983 152.358 124.804 152.634 124.528 152.925C124.252 153.215 123.996 153.409 123.943 153.365C123.889 153.322 124.073 153.041 124.349 152.75C124.625 152.46 124.872 152.266 124.935 152.315Z" fill="#263238"/>
<path d="M125.041 153.297C125.017 153.36 124.669 153.268 124.335 152.997C124.001 152.726 123.851 152.397 123.904 152.363C123.957 152.329 124.19 152.552 124.494 152.799C124.799 153.046 125.07 153.23 125.041 153.297Z" fill="#263238"/>
<path d="M132.669 156.501V158.021H135.714V159.531H132.669V161.893H130.733V154.991H136.149V156.501H132.669Z" fill="#FAFAFA"/>
<path d="M136.633 158.442C136.633 156.376 138.259 154.856 140.466 154.856C142.674 154.856 144.3 156.376 144.3 158.442C144.3 160.509 142.674 162.034 140.466 162.034C138.259 162.034 136.633 160.514 136.633 158.442ZM142.33 158.442C142.309 158.078 142.182 157.727 141.964 157.434C141.746 157.141 141.448 156.919 141.105 156.794C140.762 156.668 140.39 156.647 140.034 156.731C139.679 156.815 139.356 157.001 139.106 157.267C138.855 157.532 138.688 157.865 138.625 158.225C138.561 158.584 138.605 158.954 138.75 159.289C138.894 159.625 139.134 159.91 139.439 160.11C139.744 160.311 140.101 160.417 140.466 160.417C140.721 160.42 140.974 160.369 141.209 160.27C141.444 160.17 141.655 160.023 141.83 159.837C142.005 159.652 142.14 159.432 142.226 159.192C142.312 158.952 142.347 158.697 142.33 158.442Z" fill="#FAFAFA"/>
<path d="M148.346 160.059H147.281V161.893H145.345V154.991H148.501C150.384 154.991 151.569 155.959 151.569 157.547C151.588 158.003 151.469 158.455 151.228 158.843C150.988 159.231 150.636 159.538 150.219 159.725L151.705 161.893H149.614L148.346 160.059ZM148.346 156.53H147.281V158.554H148.365C149.174 158.554 149.575 158.176 149.575 157.547C149.575 156.918 149.174 156.53 148.365 156.53H148.346Z" fill="#FAFAFA"/>
<path d="M127.176 171.084L127.849 169.574C128.564 170.029 129.392 170.275 130.24 170.286C131.087 170.286 131.416 170.049 131.416 169.7C131.416 168.553 127.302 169.39 127.302 166.699C127.302 165.407 128.357 164.352 130.506 164.352C131.421 164.337 132.326 164.555 133.134 164.986L132.5 166.496C131.888 166.147 131.2 165.954 130.496 165.935C129.639 165.935 129.33 166.225 129.33 166.588C129.33 167.691 133.434 166.869 133.434 169.536C133.434 170.794 132.379 171.868 130.225 171.868C129.155 171.898 128.099 171.626 127.176 171.084Z" fill="#FAFAFA"/>
<path d="M139.223 170.329H136.164L135.593 171.738H133.507L136.701 164.478H138.719L141.923 171.738H139.794L139.223 170.329ZM138.622 168.819L137.693 166.496L136.764 168.81L138.622 168.819Z" fill="#FAFAFA"/>
<path d="M142.504 164.497H144.547V170.111H148.002V171.738H142.504V164.497Z" fill="#FAFAFA"/>
<path d="M154.619 170.155V171.738H148.811V164.478H154.488V166.06H150.839V167.28H154.052V168.81H150.839V170.136L154.619 170.155Z" fill="#FAFAFA"/>
<path d="M182.695 201.663C179.791 200.1 178.625 197.893 177.938 194.665C177.607 193.044 177.627 191.372 177.997 189.759C178.367 188.147 179.078 186.633 180.082 185.319C181.771 183.146 184.249 181.558 185.406 179.065C186.635 176.403 186.19 173.02 188.063 170.77C189.35 169.221 191.422 168.606 193.072 167.449C194.413 166.481 195.459 165.204 196.659 164.061C197.859 162.919 199.326 161.951 200.966 161.883C203.445 161.787 205.632 163.979 206.034 166.423C206.436 168.868 205.332 171.38 203.638 173.199C202.414 174.511 200.836 175.59 200.124 177.241C198.784 180.343 201 184.177 199.529 187.216C198.455 189.438 195.589 190.769 195.459 193.232C195.405 194.137 195.763 195.013 195.86 195.914C196.165 198.735 193.794 201.31 191.078 202.128C188.363 202.946 185.43 202.404 182.695 201.644" fill="#4070FF"/>
<path d="M196.79 172.42C196.718 172.551 196.632 172.672 196.533 172.783L195.744 173.785C195.396 174.211 194.975 174.753 194.524 175.382C194.074 176.011 193.518 176.723 193 177.56C192.729 177.972 192.443 178.402 192.153 178.853C191.862 179.303 191.591 179.821 191.291 180.305C190.686 181.273 190.135 182.4 189.53 183.552C186.996 188.614 185.266 194.041 184.404 199.635C184.23 200.928 184.041 202.152 183.968 203.309C183.925 203.885 183.862 204.442 183.838 204.979C183.813 205.516 183.804 206.034 183.784 206.528C183.726 207.496 183.784 208.406 183.784 209.185C183.784 209.964 183.818 210.637 183.862 211.193C183.905 211.75 183.91 212.161 183.93 212.466C183.942 212.614 183.942 212.763 183.93 212.912C183.891 212.768 183.868 212.62 183.862 212.471C183.828 212.147 183.784 211.726 183.731 211.203C183.678 210.68 183.61 209.979 183.596 209.194C183.581 208.41 183.513 207.51 183.552 206.523C183.552 206.039 183.576 205.506 183.586 204.969C183.596 204.432 183.659 203.866 183.697 203.285C183.76 202.123 183.939 200.889 184.104 199.587C184.938 193.951 186.673 188.486 189.244 183.402C189.859 182.245 190.425 181.137 191.044 180.15C191.349 179.666 191.625 179.182 191.925 178.698L192.797 177.41C193.334 176.578 193.9 175.881 194.37 175.252C194.839 174.622 195.27 174.1 195.638 173.683L196.475 172.715C196.568 172.606 196.674 172.507 196.79 172.42Z" fill="#263238"/>
<path d="M169.971 191.078C170.552 191.126 171.117 191.29 171.633 191.56C172.15 191.83 172.606 192.201 172.977 192.651C173.712 193.559 174.229 194.624 174.487 195.763C175.048 197.941 174.671 200.502 174.032 202.656C171.684 201.799 170.257 199.268 169.613 197.951C168.592 195.855 168.025 191.456 169.971 191.078Z" fill="#4070FF"/>
<path d="M177.396 205.322C177.046 204.772 176.849 204.139 176.824 203.488C176.799 202.836 176.948 202.19 177.255 201.615C177.569 201.045 177.993 200.543 178.503 200.139C179.014 199.735 179.6 199.437 180.227 199.263C180.507 199.152 180.808 199.103 181.109 199.12C181.41 199.136 181.703 199.218 181.969 199.36C182.194 199.533 182.368 199.764 182.473 200.028C182.578 200.292 182.609 200.579 182.565 200.86C182.472 201.417 182.233 201.94 181.873 202.375C180.716 203.914 179.312 205.192 177.396 205.337" fill="#4070FF"/>
<g opacity="0.2">
<path opacity="0.2" d="M169.971 191.078C170.552 191.126 171.117 191.29 171.633 191.56C172.15 191.83 172.606 192.201 172.977 192.651C173.712 193.559 174.229 194.624 174.487 195.763C175.048 197.941 174.671 200.502 174.032 202.656C171.684 201.799 170.257 199.268 169.613 197.951C168.592 195.855 168.025 191.456 169.971 191.078Z" fill="black"/>
</g>
<g opacity="0.2">
<path opacity="0.2" d="M177.396 205.322C177.046 204.772 176.849 204.139 176.824 203.488C176.799 202.836 176.948 202.19 177.255 201.615C177.569 201.045 177.993 200.543 178.503 200.139C179.014 199.735 179.6 199.437 180.227 199.263C180.507 199.152 180.808 199.103 181.109 199.12C181.41 199.136 181.703 199.218 181.969 199.36C182.194 199.533 182.368 199.764 182.473 200.028C182.578 200.292 182.609 200.579 182.565 200.86C182.472 201.417 182.233 201.94 181.873 202.375C180.716 203.914 179.312 205.192 177.396 205.337" fill="black"/>
</g>
<g opacity="0.2">
<path opacity="0.2" d="M174.951 207.457C174.177 206.323 173.143 205.39 171.936 204.735C170.729 204.081 169.384 203.723 168.011 203.691C167.314 203.691 166.486 203.846 166.21 204.49C165.935 205.134 166.394 205.845 166.898 206.329C167.967 207.321 169.306 207.975 170.746 208.207C172.186 208.44 173.663 208.241 174.99 207.636" fill="black"/>
</g>
<path d="M174.951 207.457C174.177 206.323 173.143 205.39 171.936 204.735C170.729 204.081 169.384 203.723 168.011 203.691C167.314 203.691 166.486 203.846 166.21 204.49C165.935 205.134 166.394 205.845 166.898 206.329C167.967 207.321 169.306 207.975 170.746 208.207C172.186 208.44 173.663 208.241 174.99 207.636" fill="#4070FF"/>
<path d="M177.415 212.791C177.353 212.646 177.314 212.492 177.299 212.336C177.241 212.036 177.163 211.605 177.086 211.068C176.86 209.662 176.824 208.233 176.979 206.818C177.151 205.387 177.709 204.029 178.596 202.893C178.864 202.553 179.175 202.249 179.52 201.988C179.641 201.885 179.777 201.8 179.922 201.736C179.494 202.125 179.097 202.547 178.736 202.999C177.923 204.144 177.412 205.476 177.25 206.871C177.104 208.265 177.117 209.672 177.289 211.063C177.364 211.636 177.406 212.213 177.415 212.791Z" fill="#263238"/>
<path d="M170.702 194.394C170.834 194.617 170.949 194.85 171.046 195.091C171.259 195.546 171.53 196.214 171.897 197.027C172.599 198.677 173.533 200.971 174.501 203.527C175.469 206.082 176.287 208.425 176.849 210.129C177.134 210.976 177.333 211.668 177.497 212.147C177.584 212.393 177.652 212.645 177.701 212.902C177.581 212.671 177.482 212.43 177.405 212.181C177.221 211.668 176.975 210.995 176.679 210.187C176.074 208.498 175.227 206.174 174.259 203.619C173.291 201.063 172.386 198.779 171.728 197.094L170.954 195.12C170.849 194.885 170.765 194.642 170.702 194.394Z" fill="#263238"/>
<path d="M169.211 205.4C169.361 205.379 169.512 205.379 169.661 205.4C169.839 205.407 170.015 205.429 170.189 205.463C170.422 205.497 170.653 205.546 170.881 205.608C171.474 205.76 172.051 205.969 172.604 206.232C173.278 206.567 173.914 206.972 174.501 207.442C175.082 207.92 175.608 208.461 176.07 209.054C176.446 209.538 176.77 210.061 177.038 210.613C177.144 210.821 177.238 211.036 177.318 211.256C177.387 211.414 177.445 211.575 177.492 211.74C177.547 211.883 177.58 212.033 177.589 212.186C177.546 212.186 177.367 211.581 176.883 210.676C176.603 210.149 176.279 209.647 175.915 209.175C175.45 208.607 174.931 208.085 174.366 207.617C173.792 207.161 173.176 206.761 172.527 206.421C171.99 206.153 171.431 205.932 170.857 205.758C169.845 205.497 169.206 205.448 169.211 205.4Z" fill="#263238"/>
<path d="M59.532 211.237L59.411 212.307C59.411 212.307 56.5893 218.928 57.112 219.426C57.4677 219.761 57.9166 219.981 58.3995 220.056C58.8824 220.131 59.3768 220.059 59.8176 219.847C61.0663 219.329 65.7708 213.318 65.7708 213.318L65.9595 212.437L59.532 211.237Z" fill="#4070FF"/>
<path d="M57.3008 218.032C57.3008 218.032 58.8012 217.064 60.0547 219C60.0547 219 60.713 218.632 62.3924 216.706C64.0719 214.78 65.6885 212.907 65.6885 212.907C65.6885 212.907 65.8627 212.718 65.8288 212.907C65.795 213.096 65.7562 213.367 65.7562 213.367L62.5425 217.239C62.5425 217.239 60.6065 219.509 60.0741 219.751C59.5256 220.087 58.8689 220.199 58.2397 220.065C57.7578 219.969 57.3274 219.701 57.0297 219.31C57.0152 219.199 57.3008 218.032 57.3008 218.032Z" fill="#F0F0F0"/>
<path d="M60.379 219.649C60.1228 219.068 59.6931 218.581 59.1489 218.254C58.6046 217.927 57.9725 217.777 57.3395 217.824C57.52 217.756 57.7136 217.73 57.9058 217.747C58.3724 217.754 58.8285 217.886 59.2271 218.129C59.6277 218.363 59.9611 218.697 60.1951 219.097C60.302 219.263 60.3653 219.452 60.379 219.649Z" fill="#263238"/>
<path d="M65.9595 212.597C65.8709 212.729 65.7739 212.855 65.6691 212.975L64.856 213.972L62.0536 217.219C61.5564 217.836 61.0075 218.409 60.4129 218.933C59.9098 219.362 59.282 219.618 58.6221 219.663C58.174 219.679 57.735 219.534 57.383 219.257C57.254 219.158 57.1482 219.033 57.0733 218.889C57.1815 219.004 57.298 219.111 57.4218 219.208C57.7687 219.458 58.1906 219.581 58.6172 219.557C59.2501 219.498 59.848 219.24 60.3258 218.821C60.9098 218.3 61.4504 217.732 61.9423 217.122L64.7737 213.899L65.6449 212.931C65.7392 212.81 65.8445 212.698 65.9595 212.597Z" fill="#263238"/>
<path d="M60.4613 216.072C60.1936 216.006 59.9362 215.903 59.6966 215.767C59.4383 215.673 59.1915 215.549 58.9609 215.399C59.2412 215.412 59.5147 215.49 59.7595 215.627C60.0242 215.72 60.2642 215.872 60.4613 216.072Z" fill="#263238"/>
<path d="M61.1244 215.075C60.8157 215.043 60.5119 214.975 60.2193 214.872C59.9139 214.819 59.6164 214.728 59.3336 214.601C59.9614 214.611 60.5768 214.777 61.1244 215.085V215.075Z" fill="#263238"/>
<path d="M61.7487 214.214C61.7197 214.247 61.3373 214.015 60.8098 213.855C60.2822 213.696 59.8418 213.662 59.8418 213.618C60.1883 213.572 60.5408 213.601 60.875 213.704C61.2093 213.806 61.5172 213.98 61.7778 214.214H61.7487Z" fill="#263238"/>
<path d="M62.0391 213.255C62.0149 213.294 61.6664 213.12 61.2066 212.999C60.921 212.948 60.6382 212.881 60.3596 212.8C60.6558 212.757 60.9576 212.776 61.2464 212.854C61.5353 212.932 61.805 213.069 62.0391 213.255Z" fill="#455A64"/>
<path d="M61.7197 212.442C61.5326 212.405 61.3559 212.327 61.2018 212.215C61.029 212.11 60.8669 211.988 60.7178 211.852C60.6355 211.774 60.5484 211.687 60.4613 211.595C60.4125 211.546 60.3702 211.491 60.3354 211.431C60.3119 211.392 60.2995 211.348 60.2995 211.302C60.2995 211.257 60.3119 211.213 60.3354 211.174C60.3856 211.113 60.4532 211.068 60.5294 211.047C60.6056 211.025 60.6865 211.027 60.7614 211.053C60.8881 211.082 61.007 211.138 61.1098 211.218C61.2767 211.35 61.404 211.526 61.4777 211.726C61.5604 211.899 61.5939 212.091 61.5745 212.282C61.5745 212.282 61.5212 212.069 61.3809 211.769C61.3003 211.596 61.1791 211.445 61.0276 211.329C60.8727 211.213 60.5774 211.116 60.4613 211.256C60.4177 211.31 60.4613 211.406 60.5678 211.498C60.6435 211.587 60.7243 211.671 60.8098 211.75C60.9531 211.886 61.105 212.012 61.2647 212.127C61.5358 212.326 61.7294 212.423 61.7197 212.442Z" fill="#455A64"/>
<path d="M61.618 212.35C61.6214 212.152 61.6838 211.96 61.7971 211.798C61.9043 211.609 62.0493 211.445 62.223 211.314C62.3255 211.237 62.4378 211.173 62.557 211.126C62.6257 211.096 62.7005 211.085 62.7748 211.092C62.822 211.095 62.8674 211.11 62.906 211.138C62.9445 211.165 62.9745 211.203 62.9926 211.247C63.0111 211.321 63.0116 211.399 62.9939 211.474C62.9762 211.549 62.9409 211.619 62.891 211.677C62.8248 211.787 62.7433 211.886 62.649 211.973C62.491 212.119 62.3025 212.228 62.0972 212.292C61.915 212.369 61.7121 212.383 61.5212 212.331C61.7046 212.295 61.8857 212.248 62.0633 212.19C62.2435 212.116 62.4078 212.007 62.5473 211.871C62.6299 211.79 62.7015 211.699 62.7603 211.6C62.7941 211.558 62.8192 211.51 62.8342 211.459C62.8492 211.407 62.8537 211.353 62.8474 211.3C62.8232 211.227 62.707 211.222 62.6006 211.266C62.4945 211.309 62.3939 211.364 62.3005 211.431C62.1363 211.541 61.9936 211.68 61.8794 211.842C61.6906 212.137 61.6471 212.355 61.618 212.35Z" fill="#455A64"/>
<path d="M64.8221 212.278C64.6419 212.272 64.4633 212.314 64.3042 212.399C63.9377 212.635 63.6589 212.985 63.5105 213.396C63.3622 213.808 63.3436 214.255 63.4572 214.678C63.5444 215.002 63.6605 215.186 63.6412 215.201C63.504 215.068 63.4053 214.901 63.3556 214.717C63.195 214.276 63.195 213.793 63.3556 213.352C63.5145 212.909 63.8294 212.539 64.2413 212.311C64.5995 212.137 64.856 212.263 64.8221 212.278Z" fill="#263238"/>
<path d="M63.0023 215.065C62.8689 215.334 62.6923 215.58 62.4796 215.791C62.3033 216.034 62.0873 216.245 61.8407 216.416C61.974 216.147 62.1506 215.902 62.3634 215.69C62.5397 215.447 62.7557 215.236 63.0023 215.065Z" fill="#263238"/>
<path d="M63.6557 214.465C63.6992 214.465 63.7476 214.552 63.7912 214.673C63.8348 214.794 63.8541 214.901 63.7912 214.92C63.7283 214.94 63.6702 214.857 63.6266 214.722C63.5831 214.586 63.617 214.475 63.6557 214.465Z" fill="#263238"/>
<path d="M63.7234 213.507C63.7622 213.507 63.7573 213.633 63.7234 213.759C63.6896 213.884 63.6605 213.986 63.617 213.981C63.5734 213.976 63.5444 213.865 63.5734 213.73C63.6024 213.594 63.6847 213.492 63.7234 213.507Z" fill="#263238"/>
<path d="M64.2849 212.733C64.3091 212.766 64.2462 212.858 64.159 212.945C64.0719 213.033 63.98 213.105 63.9461 213.081C63.9122 213.057 63.9461 212.945 64.0477 212.844C64.1494 212.742 64.2559 212.699 64.2849 212.733Z" fill="#455A64"/>
<path d="M65.1658 212.36C65.1658 212.403 65.069 212.447 64.948 212.481C64.827 212.515 64.7156 212.529 64.7011 212.481C64.6866 212.432 64.7737 212.365 64.9092 212.326C65.0448 212.287 65.1609 212.321 65.1658 212.36Z" fill="#455A64"/>
<path d="M75.0539 213.628L76.0219 209.199L67.7407 207.365L66.2887 213.822L66.7968 213.972C69.0523 214.606 78.3112 217.035 79.9423 216.909C81.7379 216.774 75.0539 213.628 75.0539 213.628Z" fill="#4070FF"/>
<path d="M69.2798 214.412C69.3166 213.686 69.08 212.973 68.6167 212.413C68.1672 211.855 67.5248 211.485 66.8162 211.377L66.308 213.705L69.2798 214.412Z" fill="#4070FF"/>
<path d="M78.2918 215.288C78.2918 215.288 80.6005 216.546 80.2278 216.885C79.8552 217.224 70.3785 215.119 66.2887 213.822L66.3419 213.642L77.348 216.188C77.348 216.188 77.803 215.201 78.2918 215.288Z" fill="#F0F0F0"/>
<path d="M66.1918 213.609C66.2351 213.63 66.2805 213.646 66.3274 213.657L66.7339 213.768L68.2246 214.17C69.483 214.499 71.2303 214.93 73.1711 215.365C75.112 215.801 76.8737 216.15 78.1563 216.392L79.6761 216.663L80.0875 216.73H80.2327C80.1874 216.713 80.1403 216.702 80.0923 216.696L79.6809 216.609L78.1708 216.304C76.8931 216.048 75.1313 215.68 73.1953 215.249C71.2593 214.819 69.5072 214.412 68.244 214.097L66.7484 213.73L66.337 213.633L66.1918 213.609Z" fill="#263238"/>
<path d="M77.29 216.319C77.4121 216.084 77.5598 215.863 77.7304 215.661C77.9272 215.484 78.1431 215.33 78.3741 215.201C78.095 215.238 77.8398 215.378 77.6578 215.593C77.4506 215.782 77.3197 216.04 77.29 216.319Z" fill="#263238"/>
<path d="M75.1265 214.533C75.1265 214.557 75.2959 214.441 75.4556 214.276C75.6153 214.112 75.7363 213.962 75.717 213.943C75.6976 213.923 75.5476 214.039 75.383 214.204C75.2184 214.368 75.1071 214.514 75.1265 214.533Z" fill="#263238"/>
<path d="M74.536 214.03C74.536 214.054 74.7006 213.996 74.8748 213.904C75.049 213.812 75.17 213.705 75.1604 213.681C75.1507 213.657 74.9958 213.715 74.8216 213.812C74.6473 213.909 74.536 214.005 74.536 214.03Z" fill="#263238"/>
<path d="M74.2843 213.154C74.2843 213.183 74.4634 213.25 74.7054 213.308C74.8465 213.358 74.9973 213.375 75.1458 213.357C75.0172 213.279 74.8739 213.228 74.7248 213.207C74.5835 213.157 74.4333 213.139 74.2843 213.154Z" fill="#263238"/>
<path d="M74.2601 212.573C74.381 212.7 74.5383 212.786 74.7102 212.82C74.8721 212.889 75.052 212.904 75.2233 212.863C75.0673 212.8 74.9051 212.753 74.7393 212.723C74.584 212.66 74.4237 212.61 74.2601 212.573Z" fill="#263238"/>
<path d="M75.5669 213.875C75.7363 213.944 75.9164 213.984 76.0993 213.991C76.2974 214.008 76.4966 214.008 76.6946 213.991C76.8142 213.985 76.9327 213.965 77.048 213.933C77.1197 213.908 77.18 213.858 77.2174 213.792C77.2341 213.755 77.2398 213.714 77.2338 213.674C77.2278 213.633 77.2103 213.596 77.1835 213.565C77.0038 213.418 76.779 213.338 76.547 213.338C76.3151 213.338 76.0903 213.418 75.9106 213.565C75.8061 213.653 75.7205 213.762 75.6589 213.884C75.6335 213.927 75.6186 213.975 75.6153 214.025C75.7043 213.871 75.8208 213.735 75.959 213.623C76.1094 213.516 76.2874 213.453 76.472 213.444C76.5831 213.431 76.6956 213.441 76.8029 213.472C76.9102 213.504 77.01 213.557 77.0964 213.628C77.169 213.71 77.0964 213.802 77.0044 213.836C76.8991 213.869 76.7903 213.891 76.6801 213.899C76.4868 213.913 76.2927 213.913 76.0993 213.899C75.775 213.928 75.5718 213.86 75.5669 213.875Z" fill="#263238"/>
<path d="M75.6976 213.928C75.7872 213.83 75.8387 213.703 75.8428 213.57C75.857 213.427 75.8371 213.283 75.7847 213.149C75.7563 213.061 75.7065 212.981 75.6397 212.917C75.573 212.853 75.4915 212.806 75.4024 212.781C75.3744 212.78 75.3466 212.785 75.3205 212.795C75.2944 212.805 75.2706 212.821 75.2503 212.84C75.2301 212.859 75.2139 212.882 75.2026 212.908C75.1913 212.933 75.1852 212.961 75.1846 212.989C75.1753 213.078 75.1869 213.167 75.2185 213.25C75.2626 213.383 75.3227 213.51 75.3975 213.628C75.4593 213.741 75.5473 213.837 75.654 213.909C75.654 213.909 75.5718 213.788 75.4605 213.589C75.3987 213.472 75.3485 213.348 75.3104 213.221C75.262 213.091 75.2572 212.878 75.3975 212.883C75.5379 212.887 75.6395 213.062 75.6976 213.187C75.7498 213.306 75.7746 213.435 75.7702 213.565C75.7577 213.688 75.7333 213.81 75.6976 213.928Z" fill="#263238"/>
<path d="M66.8646 211.382C66.8646 211.382 67.1066 211.411 67.4696 211.537C67.9453 211.7 68.3653 211.994 68.6812 212.386C68.9971 212.777 69.1962 213.249 69.2556 213.749C69.2991 214.131 69.2556 214.373 69.2556 214.373C69.2757 214.32 69.2888 214.265 69.2943 214.209C69.3131 214.048 69.3131 213.885 69.2943 213.725C69.2545 213.206 69.0583 212.711 68.7317 212.306C68.4051 211.901 67.9634 211.604 67.4648 211.455C67.3151 211.408 67.161 211.377 67.005 211.363C66.9227 211.372 66.8646 211.372 66.8646 211.382Z" fill="#263238"/>
<path d="M68.486 208.12C68.3066 208.673 68.1563 209.235 68.0359 209.804C67.8872 210.367 67.7708 210.937 67.6874 211.513C67.8711 210.961 68.0214 210.398 68.1375 209.829C68.29 209.267 68.4064 208.696 68.486 208.12Z" fill="#455A64"/>
<path d="M70.5043 213.851C71.2715 214.179 72.0908 214.369 72.9243 214.412C72.9243 214.383 72.3822 214.296 71.7191 214.141C71.056 213.986 70.514 213.822 70.5043 213.851Z" fill="#263238"/>
<path d="M68.8829 213.488C68.8539 213.488 68.8829 213.609 68.9264 213.749C68.97 213.889 68.9603 214.001 68.9894 214.005C69.0184 214.01 69.062 213.884 69.0281 213.725C68.9942 213.565 68.9023 213.468 68.8829 213.488Z" fill="#263238"/>
<path d="M68.4376 212.587C68.4134 212.587 68.4376 212.703 68.515 212.81C68.5925 212.916 68.6554 212.989 68.6796 212.975C68.7038 212.96 68.6796 212.858 68.6022 212.752C68.5247 212.645 68.4618 212.573 68.4376 212.587Z" fill="#455A64"/>
<path d="M67.639 212.045C67.639 212.074 67.7503 212.098 67.8617 212.171C67.973 212.244 68.0504 212.326 68.0746 212.311C68.0988 212.297 68.0746 212.166 67.9149 212.084C67.7552 212.002 67.639 212.021 67.639 212.045Z" fill="#455A64"/>
<path d="M67.0534 211.745C67.0534 211.769 67.0775 211.822 67.1401 211.861C67.2027 211.899 67.2654 211.919 67.2798 211.894C67.2943 211.87 67.2798 211.817 67.1979 211.779C67.116 211.74 67.0726 211.721 67.0534 211.745Z" fill="#455A64"/>
<path d="M78.9985 138.714L69.212 135.249L55.7084 137.698L56.0956 213.357L68.9119 213.187C68.9119 213.187 68.9119 212.307 68.8829 210.767L76.3994 212.824C76.3994 212.824 83.7223 188.082 86.2198 177.928C88.2864 169.448 78.9985 138.714 78.9985 138.714ZM68.728 198.44C68.5296 180.135 68.2682 150.868 68.5344 147.059C68.5344 147.059 75.7121 172.604 75.7944 174.768C75.8283 176.07 71.8498 188.716 68.728 198.44Z" fill="#263238"/>
<path d="M68.8538 197.733C68.9216 197.733 68.9797 201.121 68.9797 205.308C68.9797 209.495 68.9264 212.887 68.8587 212.887C68.7909 212.887 68.7328 209.499 68.728 205.308C68.7232 201.117 68.7861 197.733 68.8538 197.733Z" fill="#455A64"/>
<path d="M71.632 211.392C71.632 211.392 71.632 211.334 71.6659 211.218C71.6998 211.101 71.7336 210.922 71.7869 210.734C71.8982 210.274 72.0579 209.62 72.2709 208.798C72.7016 207.099 73.3163 204.664 74.081 201.663C75.6347 195.628 77.774 187.318 80.1407 178.141C80.6247 176.287 81.1087 174.472 81.5443 172.735V172.788C79.9713 164.773 78.3983 157.76 77.1544 152.76L75.7024 146.884C75.533 146.207 75.4024 145.674 75.3056 145.302C75.2668 145.127 75.233 144.992 75.2088 144.89C75.2032 144.842 75.2032 144.793 75.2088 144.745C75.2288 144.789 75.245 144.834 75.2572 144.881L75.3733 145.287C75.4798 145.66 75.625 146.187 75.8138 146.86C76.1864 148.23 76.7188 150.224 77.3529 152.721C78.6403 157.711 80.2569 164.725 81.825 172.74V172.788L80.4263 178.194C78.0063 187.366 75.8622 195.667 74.2892 201.697L72.4016 208.812C72.1789 209.64 71.9998 210.288 71.8788 210.748C71.8159 210.961 71.7724 211.126 71.7336 211.232C71.7075 211.29 71.6733 211.344 71.632 211.392Z" fill="#455A64"/>
<path d="M61.4922 212.728C61.4244 212.728 61.3664 197.501 61.3664 178.722C61.3664 159.943 61.4244 144.716 61.4922 144.716C61.56 144.716 61.618 159.938 61.618 178.722C61.618 197.506 61.5648 212.728 61.4922 212.728Z" fill="#455A64"/>
<path d="M65.0496 97.5502L72.7936 97.9325C72.8759 97.0323 72.9436 93.5475 72.9436 93.5475C72.9436 93.5475 76.1671 93.17 76.3316 89.9611C76.4962 86.7521 76.2106 79.3711 76.2106 79.3711C74.4191 78.514 72.4309 78.1518 70.4523 78.322C68.4736 78.4922 66.5765 79.1887 64.9576 80.3391L64.4736 80.6876L65.0496 97.5502Z" fill="#E6BBAC"/>
<path d="M74.5941 84.8548C74.5111 84.7653 74.465 84.6478 74.465 84.5257C74.465 84.4037 74.5111 84.2861 74.5941 84.1966C74.6304 84.1317 74.6811 84.0761 74.7424 84.034C74.8037 83.9919 74.8738 83.9645 74.9474 83.9538C75.021 83.9432 75.096 83.9497 75.1667 83.9728C75.2374 83.9959 75.3018 84.0349 75.3549 84.0869C75.4081 84.1389 75.4485 84.2024 75.4732 84.2726C75.4978 84.3427 75.5059 84.4176 75.4969 84.4914C75.4879 84.5652 75.4621 84.6359 75.4213 84.6981C75.3806 84.7603 75.3261 84.8123 75.262 84.85C75.1726 84.9365 75.0534 84.9852 74.929 84.9861C74.8047 84.987 74.6847 84.94 74.5941 84.8548Z" fill="#263238"/>
<path d="M76.0751 84.1531C76.0219 84.2063 75.717 83.9546 75.2765 83.9353C74.8361 83.9159 74.507 84.1337 74.4586 84.0708C74.4102 84.0079 74.4876 83.9498 74.6328 83.8481C74.8266 83.7179 75.0579 83.655 75.291 83.6691C75.5234 83.677 75.7465 83.7621 75.9251 83.9111C76.0558 84.0272 76.0993 84.1289 76.0751 84.1531Z" fill="#263238"/>
<path d="M70.5043 84.3467C70.5875 84.3972 70.6536 84.4716 70.6938 84.5603C70.7341 84.6489 70.7467 84.7476 70.73 84.8435C70.7132 84.9395 70.668 85.0281 70.6001 85.0979C70.5322 85.1677 70.4449 85.2154 70.3494 85.2347C70.254 85.2541 70.155 85.2442 70.0653 85.2065C69.9756 85.1687 69.8993 85.1047 69.8465 85.0229C69.7937 84.9411 69.7668 84.8453 69.7693 84.7479C69.7718 84.6506 69.8036 84.5563 69.8606 84.4773C69.9318 84.3786 70.0376 84.3103 70.1569 84.2861C70.2762 84.2619 70.4002 84.2835 70.5043 84.3467Z" fill="#263238"/>
<path d="M71.2642 84.3612C71.2109 84.4144 70.906 84.1627 70.4656 84.1434C70.0251 84.124 69.6912 84.3418 69.6476 84.2837C69.604 84.2257 69.6766 84.1579 69.8218 84.0563C70.0152 83.9283 70.2443 83.8655 70.4759 83.8768C70.7074 83.8881 70.9293 83.973 71.1093 84.1192C71.2448 84.216 71.2884 84.3418 71.2642 84.3612Z" fill="#263238"/>
<path d="M72.9001 88.088C73.1295 88.0038 73.372 87.9612 73.6164 87.9622C73.7326 87.9622 73.8245 87.9331 73.839 87.8702C73.8433 87.7545 73.8184 87.6397 73.7664 87.5362C73.6648 87.241 73.5583 86.9409 73.4518 86.6263C73.1483 85.8558 72.9245 85.0563 72.7839 84.2402C73.1614 84.9762 73.4646 85.7479 73.689 86.544C73.7906 86.8635 73.8923 87.1636 73.9891 87.4636C74.0562 87.6159 74.0715 87.7859 74.0326 87.9476C74.0144 87.9912 73.986 88.0298 73.9498 88.0601C73.9136 88.0904 73.8706 88.1116 73.8245 88.1219C73.7587 88.1306 73.6919 88.1306 73.6261 88.1219C73.3839 88.1523 73.1383 88.1408 72.9001 88.088Z" fill="#263238"/>
<path d="M71.4432 88.5091C70.9931 88.2187 72.6871 89.2302 73.5874 89.2205C73.4293 89.4455 73.1999 89.6104 72.9363 89.6886C72.6728 89.7668 72.3905 89.7536 72.1354 89.6513C71.1819 89.2641 71.4432 88.5091 71.4432 88.5091Z" fill="white"/>
<path d="M72.9582 93.5039C71.476 93.475 70.0357 93.0067 68.82 92.1584C68.82 92.1584 69.725 94.501 72.934 94.3316L72.9582 93.5039Z" fill="#D88876"/>
<path d="M65.0786 84.216C65.006 84.216 62.6925 83.9449 62.9781 86.665C63.2636 89.3851 65.9111 88.1993 65.9111 88.117C65.9111 88.0347 65.0786 84.216 65.0786 84.216Z" fill="#E6BBAC"/>
<path d="M64.977 87.27C64.977 87.27 64.9334 87.3087 64.856 87.3571C64.748 87.416 64.6217 87.4316 64.5027 87.4007C64.3158 87.3066 64.1569 87.1649 64.0422 86.9898C63.9275 86.8148 63.861 86.6126 63.8493 86.4036C63.82 86.1711 63.8415 85.935 63.9122 85.7115C63.9297 85.624 63.9678 85.5419 64.0233 85.472C64.0789 85.4022 64.1503 85.3465 64.2316 85.3098C64.2842 85.2895 64.3423 85.2885 64.3956 85.3071C64.4488 85.3258 64.4936 85.3627 64.522 85.4114C64.5704 85.484 64.5559 85.5421 64.5704 85.5421C64.585 85.5421 64.6237 85.4937 64.5704 85.3824C64.5496 85.3169 64.5069 85.2605 64.4494 85.2227C64.3674 85.1756 64.271 85.1601 64.1784 85.1791C64.0681 85.2142 63.9687 85.2772 63.8898 85.362C63.8109 85.4468 63.7553 85.5505 63.7283 85.6631C63.6371 85.9104 63.6072 86.1761 63.6412 86.4375C63.6537 86.6809 63.7374 86.9152 63.882 87.1114C64.0266 87.3076 64.2256 87.457 64.4543 87.541C64.5294 87.555 64.6068 87.5517 64.6805 87.5316C64.7543 87.5115 64.8225 87.475 64.8802 87.4249C64.977 87.3378 64.9867 87.2748 64.977 87.27Z" fill="#D88876"/>
<path d="M75.7654 79.5696C76.1548 79.4447 76.4917 79.1938 76.7231 78.8565C76.9544 78.5192 77.067 78.1145 77.0431 77.7062C77.0042 77.299 76.8553 76.91 76.6124 76.5809C76.3694 76.2518 76.0415 75.995 75.6637 75.838C75.2842 75.6854 74.8768 75.6147 74.4681 75.6306C74.0594 75.6464 73.6587 75.7484 73.2921 75.9299C73.1636 75.3354 72.8276 74.8061 72.3444 74.4367C71.8611 74.0673 71.2622 73.8821 70.6548 73.9141C70.0474 73.9461 69.4712 74.1934 69.0295 74.6115C68.5877 75.0296 68.3093 75.5914 68.244 76.1961C68.152 75.5814 67.4406 75.2281 66.821 75.2281C66.5099 75.2044 66.1974 75.2517 65.9073 75.3666C65.6172 75.4815 65.357 75.6609 65.1464 75.8912C64.9454 76.1288 64.8396 76.4325 64.8495 76.7436C64.8593 77.0546 64.9841 77.351 65.1997 77.5755C64.4995 77.5003 63.7962 77.6865 63.2249 78.0982C62.9449 78.3079 62.7216 78.5841 62.5754 78.9019C62.4291 79.2197 62.3646 79.569 62.3876 79.9181C62.4235 80.2643 62.567 80.5906 62.7979 80.851C63.0288 81.1115 63.3356 81.293 63.675 81.3701C63.9074 81.4136 64.1929 81.4185 64.3236 81.6169C64.384 81.7365 64.4092 81.8708 64.3962 82.0041V84.308C64.6104 84.2286 64.8469 84.2346 65.0567 84.3247C65.2666 84.4148 65.4339 84.5821 65.5239 84.792C65.6958 85.2149 65.7509 85.6762 65.6837 86.1278C65.8869 86.423 66.3854 86.3214 66.5936 86.031C66.7695 85.7195 66.8424 85.3603 66.8017 85.0049L66.7581 81.2975C66.9426 81.3948 67.149 81.4434 67.3576 81.4387C67.5661 81.4339 67.77 81.3759 67.9499 81.2702C68.1298 81.1645 68.2797 81.0146 68.3854 80.8347C68.491 80.6548 68.549 80.4509 68.5538 80.2423C68.8219 80.4877 69.1413 80.6702 69.4888 80.7767C69.8363 80.8833 70.2031 80.9112 70.5627 80.8583C70.9223 80.8055 71.2656 80.6733 71.5678 80.4713C71.8699 80.2694 72.1233 80.0027 72.3096 79.6906C72.6883 79.9988 73.1027 80.2605 73.5438 80.4698C73.9927 80.674 74.5012 80.705 74.9716 80.557C75.2031 80.4763 75.4044 80.327 75.5488 80.129C75.6932 79.931 75.7738 79.6936 75.7799 79.4486L75.6153 79.3131" fill="#263238"/>
<path d="M101.379 106.727C100.855 106.727 100.343 106.882 99.9078 107.173C99.4724 107.464 99.1331 107.877 98.9327 108.361C98.7323 108.845 98.6799 109.377 98.782 109.891C98.8842 110.404 99.1363 110.876 99.5066 111.246C99.8769 111.617 100.349 111.869 100.862 111.971C101.376 112.073 101.908 112.021 102.392 111.82C102.876 111.62 103.289 111.281 103.58 110.845C103.871 110.41 104.026 109.898 104.026 109.374C104.027 109.026 103.959 108.682 103.826 108.36C103.693 108.039 103.498 107.747 103.252 107.501C103.006 107.255 102.714 107.06 102.393 106.927C102.071 106.794 101.727 106.726 101.379 106.727ZM101.379 108.895C101.228 108.895 101.081 108.851 100.956 108.767C100.832 108.684 100.734 108.565 100.677 108.426C100.619 108.287 100.604 108.134 100.633 107.987C100.663 107.84 100.735 107.704 100.841 107.598C100.948 107.492 101.083 107.419 101.23 107.39C101.378 107.361 101.531 107.376 101.669 107.433C101.808 107.491 101.927 107.588 102.01 107.713C102.094 107.838 102.139 107.985 102.139 108.135C102.14 108.236 102.121 108.335 102.083 108.428C102.046 108.521 101.99 108.606 101.919 108.677C101.848 108.748 101.764 108.805 101.671 108.843C101.579 108.881 101.479 108.901 101.379 108.9V108.895Z" fill="#4070FF"/>
<path d="M100.503 111.828V116.586C100.503 116.586 101.558 117.07 101.5 117.133C101.442 117.196 102.26 116.586 102.26 116.586V116.015L101.776 115.531L102.26 115.09L101.776 114.485L102.26 113.948L101.717 113.338L102.26 112.791V111.823L100.503 111.828Z" fill="#4070FF"/>
<path d="M104.326 102.492L101.301 99.7863L98.252 102.531L99.1522 102.671L99.2297 105.444L103.349 105.517L103.228 102.613L104.326 102.492ZM101.277 104.999C101.183 104.991 101.094 104.957 101.019 104.899C100.945 104.842 100.889 104.764 100.858 104.675C100.828 104.586 100.823 104.49 100.846 104.399C100.869 104.308 100.918 104.225 100.987 104.161C101.056 104.097 101.142 104.055 101.235 104.039C101.327 104.024 101.423 104.035 101.509 104.073C101.595 104.11 101.668 104.172 101.72 104.251C101.772 104.329 101.799 104.421 101.8 104.515C101.8 104.582 101.786 104.648 101.76 104.71C101.733 104.771 101.694 104.826 101.645 104.872C101.595 104.917 101.537 104.952 101.474 104.974C101.411 104.996 101.344 105.004 101.277 104.999Z" fill="#263238"/>
<path d="M101.684 104.82C101.684 104.82 101.592 104.844 101.446 104.844C101.244 104.828 101.04 104.86 100.851 104.936C100.576 105.039 100.337 105.221 100.164 105.459C99.9537 105.75 99.8588 106.109 99.8976 106.465C99.94 106.821 100.112 107.149 100.382 107.385C100.602 107.581 100.874 107.709 101.166 107.753C101.447 107.77 101.729 107.747 102.003 107.685C101.887 107.784 101.752 107.857 101.606 107.899C101.46 107.942 101.307 107.953 101.156 107.932C100.818 107.91 100.496 107.781 100.236 107.564C99.9116 107.295 99.7048 106.909 99.6604 106.49C99.6169 106.071 99.7365 105.651 99.9944 105.318C100.2 105.05 100.487 104.856 100.812 104.767C101.026 104.699 101.253 104.691 101.471 104.742C101.606 104.776 101.688 104.805 101.684 104.82Z" fill="#455A64"/>
<path d="M102.647 107.051C102.584 107.017 102.734 106.674 102.71 106.248C102.685 105.822 102.526 105.497 102.574 105.454C102.623 105.41 102.947 105.72 102.961 106.233C102.976 106.746 102.7 107.095 102.647 107.051Z" fill="#455A64"/>
<path d="M93.7314 103.184C94.0313 102.294 94.4154 101.435 94.8785 100.619C95.2978 99.9704 95.9036 99.4642 96.6161 99.1668C97.5454 98.8134 98.5811 98.9538 99.5685 99.099L101.95 99.4523C102.274 99.5007 102.685 99.6508 102.676 99.975C102.66 100.069 102.617 100.157 102.551 100.227C102.486 100.297 102.401 100.345 102.308 100.367C102.118 100.403 101.922 100.403 101.732 100.367C101.206 100.3 100.674 100.284 100.144 100.319C99.7669 100.343 99.2974 100.478 99.2345 100.851C99.1716 101.224 99.5346 101.471 99.8686 101.48C100.208 101.457 100.533 101.338 100.808 101.137L101.742 100.585C101.906 100.455 102.114 100.395 102.322 100.415C102.666 100.493 102.748 100.987 102.564 101.287C102.346 101.566 102.07 101.795 101.756 101.959C100.556 102.773 99.9992 104.089 99.4475 105.831" fill="#E6BBAC"/>
<path d="M93.7556 102.816L88.4316 116.542L82.8947 103.731C81.162 97.5308 73.5051 97.1242 73.5051 97.1242L65.9305 96.1562C63.2056 95.0479 58.7915 95.9723 57.0636 96.9258C54.8614 98.1358 52.906 101.858 52.4704 104.602C52.4704 104.602 44.8426 124.325 46.1446 126.382C47.4465 128.439 55.5922 136.488 55.5922 136.488L54.4548 140.641L67.4164 141.459L68.728 136.343L68.8829 141.817L81.07 142.673C80.5376 137.858 79.6761 133.018 79.4438 131.638L78.4758 117.51L78.6016 114.606L78.7178 114.306C79.86 116.218 81.2975 118.662 83.0738 121.799C86.636 128.091 90.2321 126.484 92.3424 123.957C93.2421 122.801 93.9199 121.488 94.3413 120.085L99.583 105.352L93.7556 102.816ZM56.628 126.368C56.628 126.445 55.3212 124.039 55.3212 124.039L57.2282 117.747C57.2282 117.747 56.628 126.295 56.628 126.368Z" fill="#4070FF"/>
<path d="M64.9383 96.316L69.0281 112.022L73.2679 97.2743L72.7984 97.2356L72.9098 95.2947L64.9383 94.3412V96.316Z" fill="white"/>
<path d="M64.7205 96.466C64.7312 96.5366 64.7312 96.6084 64.7205 96.679C64.6914 96.8387 64.6576 97.042 64.614 97.284C64.5124 97.8406 64.3672 98.6005 64.1881 99.5346C64.009 100.469 63.7718 101.655 63.5153 102.952C63.3943 103.586 63.2104 104.317 63.5686 104.917C63.9267 105.517 64.6721 105.807 65.4078 106.054L65.5481 106.102L65.4707 106.228C64.885 107.25 64.9334 108.648 65.3642 109.853C65.6472 110.62 65.9803 111.367 66.3612 112.09C66.7194 112.812 67.0663 113.511 67.4018 114.185C68.0601 115.531 68.6748 116.775 69.2217 117.878L69.0281 117.927C69.0281 116.15 69.0281 114.684 69.0281 113.624C69.0281 113.14 69.0281 112.738 69.0281 112.438C69.0167 112.3 69.0167 112.16 69.0281 112.022C69.0572 112.159 69.0702 112.298 69.0668 112.438C69.0668 112.738 69.091 113.13 69.1104 113.624C69.1346 114.679 69.1733 116.145 69.2168 117.922V118.367L69.0136 117.97C68.4618 116.867 67.8374 115.628 67.1598 114.292C66.8259 113.619 66.4774 112.917 66.1144 112.201C65.7273 111.467 65.3893 110.709 65.1028 109.931C64.6576 108.663 64.6188 107.216 65.2384 106.107L65.3061 106.286C64.9269 106.166 64.5592 106.012 64.2074 105.827C63.8536 105.645 63.5558 105.371 63.3459 105.033C63.159 104.699 63.0796 104.315 63.1184 103.934C63.1505 103.589 63.2071 103.246 63.2878 102.908C63.5637 101.616 63.8057 100.488 64.0138 99.5201C64.222 98.5521 64.3865 97.8357 64.4978 97.284C64.5511 97.042 64.5995 96.8435 64.6382 96.6838C64.6565 96.6081 64.6841 96.5349 64.7205 96.466Z" fill="#263238"/>
<path d="M74.0084 97.3711C74.0821 97.6101 74.1371 97.8544 74.173 98.1019C74.2601 98.5859 74.3811 99.2684 74.5118 100.14C74.6425 101.011 74.7974 102.042 74.8893 103.223C74.8893 103.518 74.928 103.818 74.9184 104.137C74.921 104.483 74.8162 104.822 74.6183 105.105C74.1957 105.657 73.6438 106.096 73.0114 106.383V106.17C73.2322 106.353 73.4204 106.573 73.568 106.819C73.6067 106.877 73.6406 106.94 73.6745 107.003C73.6954 107.057 73.7053 107.114 73.7035 107.172V107.288C73.6745 107.438 73.6358 107.574 73.597 107.714C73.113 109.229 72.5129 110.618 71.9853 111.872C71.4578 113.125 70.9544 114.258 70.5333 115.197C70.1122 116.136 69.7589 116.9 69.5121 117.423L69.2168 118.023C69.1491 118.159 69.1104 118.227 69.1007 118.222C69.1122 118.144 69.1368 118.069 69.1733 117.999C69.241 117.835 69.3233 117.631 69.4201 117.384L70.3881 115.129C70.7947 114.161 71.269 113.033 71.7917 111.78C72.3144 110.526 72.8952 109.127 73.3744 107.642C73.4152 107.513 73.4475 107.382 73.4712 107.25V107.162C73.4685 107.15 73.4685 107.136 73.4712 107.124L73.3696 106.949C73.2397 106.733 73.0763 106.539 72.8856 106.373L72.7307 106.243L72.9049 106.156C73.4986 105.891 74.0186 105.486 74.4198 104.975C74.7974 104.491 74.6764 103.832 74.6667 103.257C74.5941 102.09 74.4537 101.049 74.3472 100.178C74.2408 99.3071 74.1488 98.6537 74.081 98.1358C74.0326 97.8838 74.0083 97.6277 74.0084 97.3711Z" fill="#263238"/>
<path d="M68.728 136.943C68.6554 136.943 68.728 132.5 68.878 127.031C69.0281 121.561 69.212 117.128 69.2991 117.128C69.3862 117.128 69.2991 121.566 69.1491 127.04C68.999 132.514 68.8151 136.943 68.728 136.943Z" fill="#263238"/>
<path d="M70.7172 121.092C70.6882 121.092 70.8479 120.913 71.1093 121.034C71.1982 121.071 71.2728 121.136 71.3221 121.219C71.3714 121.302 71.3927 121.398 71.3829 121.494C71.3732 121.59 71.3328 121.681 71.2679 121.752C71.2029 121.823 71.1168 121.872 71.0222 121.891C70.9301 121.924 70.8295 121.927 70.7357 121.899C70.6418 121.87 70.5599 121.811 70.5024 121.732C70.4449 121.653 70.4149 121.556 70.4169 121.458C70.419 121.36 70.4531 121.266 70.514 121.189C70.6785 120.956 70.8963 121.01 70.8818 121.039C70.8673 121.068 70.7414 121.102 70.6688 121.276C70.6485 121.32 70.6379 121.368 70.6379 121.416C70.6379 121.465 70.6485 121.513 70.6688 121.557C70.699 121.601 70.7431 121.633 70.7941 121.649C70.845 121.665 70.8998 121.663 70.9496 121.644C71.0021 121.635 71.0506 121.61 71.0873 121.572C71.1241 121.533 71.1471 121.484 71.1528 121.431C71.151 121.383 71.1377 121.335 71.1142 121.293C71.0906 121.251 71.0574 121.215 71.0173 121.189C70.8721 121.073 70.7366 121.121 70.7172 121.092Z" fill="#263238"/>
<path d="M70.7705 126.121C70.7366 126.121 70.8963 125.946 71.1625 126.063C71.2386 126.098 71.304 126.153 71.3524 126.222C71.4008 126.291 71.4304 126.371 71.4384 126.455C71.4416 126.565 71.4069 126.674 71.3399 126.762C71.273 126.85 71.1779 126.912 71.0706 126.939C70.9669 126.968 70.8564 126.962 70.7564 126.922C70.6565 126.882 70.5728 126.809 70.5188 126.716C70.4827 126.639 70.4678 126.553 70.4754 126.468C70.4831 126.383 70.5131 126.302 70.5624 126.232C70.7318 125.995 70.9447 126.048 70.9302 126.082C70.9157 126.116 70.7898 126.145 70.7172 126.319C70.6969 126.363 70.6863 126.411 70.6863 126.459C70.6863 126.508 70.6969 126.556 70.7172 126.6C70.751 126.64 70.7957 126.67 70.846 126.686C70.8963 126.702 70.9502 126.703 71.0011 126.69C71.0521 126.676 71.098 126.648 71.1335 126.609C71.1689 126.57 71.1925 126.521 71.2012 126.469C71.1986 126.421 71.1851 126.374 71.1616 126.332C71.1381 126.29 71.1053 126.254 71.0657 126.227C70.9205 126.101 70.785 126.155 70.7705 126.121Z" fill="#263238"/>
<path d="M70.5527 131.813C70.5236 131.813 70.6785 131.638 70.9447 131.754C71.021 131.789 71.087 131.843 71.1362 131.911C71.1855 131.979 71.2162 132.058 71.2254 132.142C71.2284 132.253 71.193 132.362 71.1251 132.45C71.0572 132.538 70.9611 132.6 70.8528 132.626C70.7491 132.655 70.6386 132.649 70.5386 132.609C70.4387 132.569 70.3551 132.496 70.301 132.403C70.265 132.326 70.25 132.24 70.2576 132.155C70.2653 132.07 70.2953 131.989 70.3446 131.919C70.514 131.682 70.7318 131.735 70.7124 131.769C70.693 131.803 70.572 131.827 70.4994 132.006C70.4791 132.05 70.4685 132.098 70.4685 132.147C70.4685 132.195 70.4791 132.243 70.4994 132.287C70.5325 132.329 70.5775 132.36 70.6286 132.375C70.6796 132.391 70.7342 132.39 70.785 132.374C70.8377 132.364 70.8858 132.338 70.9223 132.298C70.9589 132.259 70.982 132.209 70.9883 132.156C70.9838 132.108 70.9689 132.062 70.9447 132.02C70.9204 131.978 70.8874 131.942 70.8479 131.914C70.7027 131.793 70.5672 131.846 70.5527 131.813Z" fill="#263238"/>
<path d="M73.2679 112.578H76.8302V112.022H73.0792L73.2679 112.578Z" fill="#263238"/>
<path d="M98.5618 108.072C97.5748 107.741 96.6165 107.33 95.6965 106.843C94.7397 106.433 93.8172 105.948 92.9377 105.391C93.9244 105.725 94.8826 106.137 95.803 106.625C96.7601 107.032 97.6827 107.516 98.5618 108.072Z" fill="#455A64"/>
<path d="M93.7314 104.321C93.7314 104.321 93.7605 104.162 93.9734 104.084C94.1006 104.032 94.2432 104.032 94.3703 104.084C94.4525 104.124 94.5206 104.188 94.5656 104.268C94.6105 104.347 94.6302 104.438 94.622 104.529C94.6228 104.625 94.5904 104.718 94.5304 104.792C94.4703 104.866 94.3864 104.917 94.2929 104.936C94.2167 104.945 94.1397 104.93 94.0727 104.893C94.0058 104.855 93.9524 104.798 93.9202 104.728C93.8965 104.686 93.884 104.638 93.884 104.59C93.884 104.542 93.8965 104.494 93.9202 104.452C93.9589 104.394 93.9976 104.389 94.0073 104.399C94.017 104.408 93.9783 104.52 94.0799 104.631C94.1816 104.742 94.3655 104.742 94.38 104.515C94.3945 104.287 94.1864 104.215 94.0267 104.239C93.867 104.263 93.7605 104.346 93.7314 104.321Z" fill="#455A64"/>
<path d="M88.1558 119.422C88.0896 118.901 88.1092 118.373 88.2138 117.859C88.2352 117.334 88.3415 116.816 88.5284 116.325C88.5695 117.37 88.4437 118.416 88.1558 119.422Z" fill="#263238"/>
<path d="M89.39 119.272C89.1213 118.852 88.9219 118.391 88.7995 117.907C88.6024 117.446 88.4846 116.955 88.451 116.455C88.9233 117.332 89.241 118.283 89.39 119.267V119.272Z" fill="#263238"/>
<path d="M70.0155 95.9675C69.8399 96.6497 69.5324 97.291 69.1104 97.8551L69.8218 99.7911H70.4268L70.9399 97.9325C70.9399 97.9325 70.5817 97.647 70.3204 95.9094L70.0155 95.9675Z" fill="#455A64"/>
<path d="M72.7742 97.192C72.7742 97.192 72.7162 97.3227 72.5613 97.526C72.3469 97.8404 72.0279 98.0685 71.661 98.1697C71.5242 98.2027 71.3816 98.2041 71.2441 98.1739C71.1066 98.1437 70.9777 98.0827 70.8673 97.9954C70.6543 97.7642 70.5117 97.4771 70.4559 97.1678C70.2681 96.5006 70.1608 95.8132 70.1364 95.1205L70.3784 95.1495C70.2623 95.5464 70.1606 95.9675 70.0154 96.3886C69.8782 96.8107 69.6981 97.2178 69.4782 97.6034C69.3611 97.8036 69.1944 97.9703 68.9942 98.0874C68.8022 98.1984 68.5813 98.249 68.3602 98.2326C67.9837 98.1922 67.617 98.0874 67.276 97.9228C66.9805 97.7828 66.6957 97.6211 66.4242 97.4388C66.0353 97.1851 65.6604 96.9104 65.3013 96.616C65.1594 96.5205 65.0309 96.4066 64.9189 96.2772C64.948 96.2385 65.5288 96.679 66.5161 97.284C66.7861 97.4462 67.0676 97.5885 67.3583 97.7099C67.6784 97.8548 68.0201 97.9463 68.3698 97.9809C68.552 97.9872 68.7322 97.9419 68.8897 97.8503C69.0473 97.7587 69.1758 97.6244 69.2604 97.463C69.4579 97.0919 69.62 96.703 69.7444 96.3014C69.8799 95.89 69.9864 95.4738 70.1074 95.0721C70.1113 95.0564 70.1184 95.0416 70.1281 95.0287C70.1378 95.0158 70.15 95.005 70.164 94.9968C70.178 94.9887 70.1935 94.9835 70.2095 94.9814C70.2256 94.9794 70.2419 94.9806 70.2574 94.985C70.2827 94.9927 70.3051 95.008 70.3215 95.0288C70.3379 95.0495 70.3476 95.0747 70.3494 95.1011C70.3671 95.7775 70.4613 96.4497 70.6301 97.1049C70.6724 97.3774 70.7878 97.6333 70.9641 97.8454C71.0516 97.9167 71.154 97.9676 71.2636 97.9944C71.3733 98.0212 71.4876 98.0232 71.5981 98.0003C71.9382 97.9187 72.2424 97.7284 72.4645 97.4582C72.5562 97.3569 72.6603 97.2674 72.7742 97.192Z" fill="#E0E0E0"/>
<path d="M69.8218 99.7862C69.7202 100.038 67.8181 107.375 67.8181 107.375L69.0232 112.022L71.2545 104.278C71.2545 104.278 70.4994 99.5394 70.4656 99.6652C70.4317 99.7911 69.8218 99.7862 69.8218 99.7862Z" fill="#455A64"/>
<path d="M62.8522 134.15C61.8686 134.343 60.8601 134.376 59.866 134.247C58.8701 134.197 57.8892 133.985 56.962 133.618C56.962 133.545 58.2784 133.85 59.9047 133.995C61.5309 134.141 62.8474 134.068 62.8522 134.15Z" fill="#263238"/>
<path d="M79.6616 135.152C78.9768 135.236 78.2845 135.236 77.5997 135.152C76.9115 135.157 76.2253 135.076 75.5572 134.91C76.2405 134.828 76.931 134.828 77.6142 134.91C78.3039 134.909 78.9911 134.991 79.6616 135.152Z" fill="#263238"/>
<path d="M57.3056 110.836C57.3189 110.924 57.3189 111.014 57.3056 111.102C57.3056 111.305 57.3153 111.562 57.3346 111.872C57.3346 112.54 57.3685 113.503 57.3734 114.698C57.3734 117.084 57.3104 120.38 57.1168 124.015C56.9232 127.65 56.6328 130.936 56.3618 133.308C56.2311 134.494 56.1101 135.452 56.0182 136.115C55.9746 136.42 55.9359 136.672 55.9068 136.875C55.8963 136.964 55.8785 137.051 55.8536 137.137C55.8397 137.048 55.8397 136.959 55.8536 136.87C55.8536 136.667 55.8923 136.411 55.9165 136.101C55.9794 135.404 56.0714 134.45 56.1779 133.294C56.3957 130.917 56.6619 127.636 56.8603 124.001C57.0588 120.366 57.1459 117.08 57.1894 114.693C57.1894 113.527 57.2233 112.574 57.233 111.872C57.233 111.562 57.233 111.305 57.233 111.102C57.2432 111.01 57.2677 110.92 57.3056 110.836Z" fill="#263238"/>
<path d="M55.3164 124.277C55.575 122.919 55.9144 121.577 56.3328 120.259C56.6725 118.917 57.0944 117.596 57.596 116.305C57.3403 117.665 57.0025 119.008 56.5844 120.327C56.2424 121.668 55.8189 122.987 55.3164 124.277Z" fill="#263238"/>
<path d="M56.8168 126.832C56.21 125.996 55.6711 125.112 55.205 124.19C54.6645 123.307 54.1983 122.381 53.8111 121.421C54.4198 122.256 54.9589 123.14 55.4228 124.064C55.9634 124.946 56.4296 125.872 56.8168 126.832Z" fill="#263238"/>
</svg>
