<svg width="70" height="40" viewBox="0 0 70 40" fill="none" xmlns="http://www.w3.org/2000/svg">
<path d="M0.530811 15.1493L7.05782 7.38378H0.825706V4.04164H11.4812V6.89229L5.34743 14.6579H11.5992V18H0.530811V15.1493ZM16.1649 18.1966C15.1163 18.1966 14.3168 17.882 13.7664 17.2529C13.2159 16.6107 12.9407 15.6802 12.9407 14.4613V7.65902H16.676V13.6159C16.676 14.0746 16.7743 14.4285 16.9709 14.6775C17.1806 14.9265 17.4624 15.0511 17.8163 15.0511C18.1046 15.0511 18.3995 14.9855 18.7009 14.8545C19.0024 14.7234 19.3038 14.435 19.6053 13.9894V7.65902H23.3406V13.8715C23.3406 14.2253 23.3931 14.4744 23.4979 14.6185C23.6028 14.7496 23.7862 14.8282 24.0484 14.8545V18C23.4062 18.1311 22.8819 18.1966 22.4756 18.1966C21.2043 18.1966 20.4703 17.7182 20.2737 16.7614L20.1951 16.3879C19.7101 17.0301 19.1335 17.4954 18.465 17.7837C17.7966 18.059 17.0299 18.1966 16.1649 18.1966ZM32.5943 10.8439C31.8735 10.8439 31.2182 10.9225 30.6284 11.0798C30.0386 11.2371 29.5995 11.4992 29.3112 11.8662V18H25.5758V7.65902H28.9966V9.62498C29.3636 8.93034 29.8158 8.39953 30.3531 8.03255C30.9036 7.65246 31.4934 7.46242 32.1225 7.46242C32.3715 7.46242 32.5288 7.46897 32.5943 7.48208V10.8439ZM33.7546 18V7.65902H37.4899V18H33.7546ZM33.7546 6.79399V3.64844H37.4899V6.79399H33.7546Z" fill="#4070FF"/>
<path d="M13.5457 20.2072V34.1655H9.71203V28.7001H5.03303V34.1655H1.19939V20.2072H5.03303V25.358H9.71203V20.2072H13.5457ZM20.6076 34.3621C19.6771 34.3621 18.8579 34.218 18.1502 33.9296C17.4555 33.6282 16.8657 33.235 16.3808 32.75C15.909 32.252 15.5485 31.6819 15.2995 31.0396C15.0636 30.3843 14.9456 29.7028 14.9456 28.995C14.9456 28.2873 15.0636 27.6123 15.2995 26.9701C15.5485 26.3148 15.909 25.7446 16.3808 25.2597C16.8657 24.7617 17.4555 24.3685 18.1502 24.0801C18.8579 23.7787 19.6771 23.6279 20.6076 23.6279C21.5251 23.6279 22.3377 23.7787 23.0454 24.0801C23.7532 24.3685 24.343 24.7617 24.8148 25.2597C25.2997 25.7446 25.6602 26.3148 25.8961 26.9701C26.1451 27.6123 26.2696 28.2873 26.2696 28.995C26.2696 29.7028 26.1451 30.3843 25.8961 31.0396C25.6602 31.6819 25.2997 32.252 24.8148 32.75C24.343 33.235 23.7532 33.6282 23.0454 33.9296C22.3377 34.218 21.5251 34.3621 20.6076 34.3621ZM18.7793 28.995C18.7793 29.6897 18.9497 30.2336 19.2904 30.6268C19.6312 31.02 20.0703 31.2166 20.6076 31.2166C21.145 31.2166 21.5841 31.02 21.9248 30.6268C22.2656 30.2336 22.436 29.6897 22.436 28.995C22.436 28.3004 22.2656 27.7565 21.9248 27.3633C21.5841 26.9701 21.145 26.7735 20.6076 26.7735C20.0703 26.7735 19.6312 26.9701 19.2904 27.3633C18.9497 27.7565 18.7793 28.3004 18.7793 28.995ZM44.2633 34.1655H40.5279V28.3463C40.5279 27.8351 40.4231 27.4681 40.2134 27.2453C40.0168 27.0094 39.7743 26.8915 39.486 26.8915C39.1845 26.8915 38.8634 27.0291 38.5227 27.3043C38.195 27.5795 37.9525 27.9334 37.7952 28.3659V34.1655H34.0599V28.3463C34.0599 27.8351 33.9551 27.4681 33.7454 27.2453C33.5488 27.0094 33.3063 26.8915 33.0179 26.8915C32.7165 26.8915 32.3954 27.0291 32.0546 27.3043C31.727 27.5795 31.4845 27.9334 31.3272 28.3659V34.1655H27.5919V23.8245H30.9537V25.358C31.3207 24.7944 31.8253 24.3685 32.4675 24.0801C33.1097 23.7787 33.8699 23.6279 34.748 23.6279C35.1674 23.6279 35.5344 23.6804 35.8489 23.7852C36.1635 23.877 36.4322 24.008 36.655 24.1784C36.8909 24.3488 37.0744 24.5388 37.2055 24.7485C37.3496 24.9583 37.461 25.1811 37.5397 25.417C37.9066 24.8534 38.4047 24.4143 39.0338 24.0998C39.676 23.7852 40.4034 23.6279 41.216 23.6279C41.8976 23.6279 42.4349 23.759 42.8281 24.0211C43.2344 24.2702 43.5424 24.5847 43.7521 24.9648C43.9618 25.3449 44.0994 25.7512 44.165 26.1837C44.2305 26.6162 44.2633 27.0094 44.2633 27.3633V34.1655ZM51.1723 34.3621C50.2679 34.3621 49.4619 34.2245 48.7541 33.9493C48.0464 33.6609 47.45 33.2743 46.9651 32.7894C46.4933 32.3044 46.1328 31.7474 45.8838 31.1183C45.6348 30.4892 45.5103 29.8273 45.5103 29.1327C45.5103 28.3856 45.6282 27.6778 45.8642 27.0094C46.1132 26.341 46.4736 25.7577 46.9454 25.2597C47.4304 24.7617 48.0202 24.3685 48.7148 24.0801C49.4226 23.7787 50.2417 23.6279 51.1723 23.6279C52.0897 23.6279 52.9023 23.7787 53.6101 24.0801C54.3178 24.3685 54.9076 24.7617 55.3794 25.2597C55.8644 25.7446 56.2248 26.3148 56.4607 26.9701C56.7097 27.6123 56.8342 28.2873 56.8342 28.995C56.8342 29.1916 56.8211 29.3948 56.7949 29.6045C56.7818 29.8011 56.7622 29.978 56.7359 30.1353H49.4815C49.5209 30.6858 49.724 31.0855 50.091 31.3345C50.458 31.5705 50.8577 31.6884 51.2902 31.6884C51.6965 31.6884 52.0766 31.5967 52.4305 31.4132C52.7975 31.2297 53.0399 30.9741 53.1579 30.6464L56.3231 31.5508C55.9037 32.3765 55.2549 33.0515 54.3768 33.5757C53.5118 34.1 52.4436 34.3621 51.1723 34.3621ZM52.8237 27.8941C52.7581 27.396 52.5747 27.0029 52.2732 26.7145C51.9718 26.4262 51.5851 26.282 51.1133 26.282C50.6415 26.282 50.2548 26.4262 49.9534 26.7145C49.6519 27.0029 49.4684 27.396 49.4029 27.8941H52.8237ZM62.3267 34.3621C61.4223 34.3621 60.5376 34.218 59.6726 33.9296C58.8076 33.6282 58.0736 33.1957 57.4707 32.6321L58.7486 30.3909C59.3908 30.8234 60.0068 31.1576 60.5966 31.3935C61.1995 31.6294 61.75 31.7474 62.248 31.7474C62.7723 31.7474 63.0344 31.5836 63.0344 31.2559C63.0344 31.0724 62.9296 30.9151 62.7199 30.7841C62.5233 30.653 62.1301 30.5023 61.5403 30.3319C60.8063 30.1222 60.1903 29.919 59.6923 29.7224C59.2073 29.5127 58.8076 29.2899 58.493 29.054C58.1916 28.8181 57.9753 28.556 57.8443 28.2676C57.7132 27.9793 57.6477 27.6385 57.6477 27.2453C57.6477 26.7211 57.7525 26.2361 57.9622 25.7905C58.1719 25.3449 58.4603 24.9583 58.8272 24.6306C59.2073 24.3029 59.6529 24.0539 60.1641 23.8835C60.6884 23.7 61.2585 23.6083 61.8745 23.6083C62.6347 23.6083 63.3555 23.7066 64.0371 23.9032C64.7317 24.0998 65.4263 24.4995 66.121 25.1024L64.7055 27.3436C64.0633 26.9242 63.5259 26.6293 63.0934 26.4589C62.6609 26.2754 62.2546 26.1837 61.8745 26.1837C61.6517 26.1837 61.4682 26.2296 61.324 26.3213C61.1798 26.4 61.1078 26.531 61.1078 26.7145C61.1078 26.9111 61.2126 27.0749 61.4223 27.206C61.632 27.324 62.0449 27.4616 62.6609 27.6189C63.4079 27.8155 64.0371 28.0252 64.5482 28.248C65.0594 28.4577 65.4657 28.6936 65.7671 28.9557C66.0817 29.2047 66.3045 29.4931 66.4355 29.8207C66.5666 30.1353 66.6321 30.5023 66.6321 30.9217C66.6321 31.459 66.5338 31.9374 66.3372 32.3568C66.1406 32.7762 65.8523 33.1367 65.4722 33.4381C65.1052 33.7396 64.6531 33.9689 64.1157 34.1262C63.5914 34.2835 62.9951 34.3621 62.3267 34.3621Z" fill="#4070FF"/>
<path d="M66.9374 20.1724H47.6712C45.986 20.1724 44.6087 19.2974 44.6087 18.2279V6.01036C44.6087 4.94092 45.986 4.06592 47.6712 4.06592H66.9374C68.6225 4.06592 69.9999 4.94092 69.9999 6.01036V18.2279C70.0161 19.2974 68.6387 20.1724 66.9374 20.1724ZM47.6712 5.15156C46.9258 5.15156 46.3263 5.54045 46.3263 6.01036V18.2279C46.3263 18.6978 46.9258 19.0867 47.6712 19.0867H66.9374C67.6827 19.0867 68.2823 18.6978 68.2823 18.2279V6.01036C68.2823 5.54045 67.6827 5.15156 66.9374 5.15156H47.6712Z" fill="#4070FF"/>
<path d="M52.8134 10.4353H56.7995V8.76633H52.8134V10.4353Z" fill="#4070FF"/>
<path d="M48.4774 10.4353H52.4635V8.76633H48.4774V10.4353Z" fill="#4070FF"/>
<path d="M55.1134 12.9463H59.0995V11.2773H55.1134V12.9463Z" fill="#4070FF"/>
<path d="M50.169 12.9463H54.1552V11.2773H50.169V12.9463Z" fill="#4070FF"/>
<path d="M45.2248 12.9463H49.2109V11.2773H45.2248V12.9463Z" fill="#4070FF"/>
<path d="M48.4774 15.4573H52.4635V13.7883H48.4774V15.4573Z" fill="#4070FF"/>
<path d="M53.1337 15.4573H57.1198V13.7883H53.1337V15.4573Z" fill="#4070FF"/>
<path d="M62.7181 10.4353H66.7042V8.76633H62.7181V10.4353Z" fill="#4070FF"/>
<path d="M58.3821 10.4353H62.3682V8.76633H58.3821V10.4353Z" fill="#4070FF"/>
<path d="M60.0738 12.9463H64.0599V11.2773H60.0738V12.9463Z" fill="#4070FF"/>
<path d="M55.1133 12.9463H59.0994V11.2773H55.1133V12.9463Z" fill="#4070FF"/>
<path d="M58.3821 15.4573H62.3682V13.7883H58.3821V15.4573Z" fill="#4070FF"/>
<path d="M63.0222 15.4573H67.0083V13.7883H63.0222V15.4573Z" fill="#4070FF"/>
<path d="M65.018 12.9463H69.0041V11.2773H65.018V12.9463Z" fill="#4070FF"/>
</svg>
