<svg width="14" height="11" viewBox="0 0 14 11" fill="none" xmlns="http://www.w3.org/2000/svg">
<path d="M7.41243 10.3292L13.8291 3.91252C13.9387 3.80345 14 3.65527 14 3.5001L14 0.583448C14 0.347772 13.8583 0.134272 13.6401 0.0444481C13.4219 -0.0459777 13.1711 0.00419804 13.0043 0.171022L7 6.17527L0.995753 0.171022C0.828929 0.00419751 0.578077 -0.0459782 0.359929 0.0444475C0.141753 0.134272 3.79934e-06 0.347772 3.78893e-06 0.583448L3.66013e-06 3.50012C3.65327e-06 3.6553 0.0612534 3.80345 0.17093 3.91255L6.5876 10.3292C6.81568 10.5573 7.18433 10.5573 7.41243 10.3292Z" fill="white"/>
</svg>
