<svg width="17" height="17" viewBox="0 0 17 17" fill="none" xmlns="http://www.w3.org/2000/svg">
<path d="M16.6003 10.4325C16.461 9.98175 16.0557 9.66555 15.5846 9.64016V2.42482C15.5842 1.86974 15.3916 1.33191 15.0395 0.902763L15.0179 0.874713C14.1772 -0.147832 12.6667 -0.2952 11.6441 0.545552C11.5841 0.594923 11.5264 0.647198 11.4715 0.702164C11.0687 1.10251 10.8225 1.63376 10.7773 2.19986C10.7716 2.22171 10.7684 2.24413 10.768 2.26672H10.2013C9.73184 2.26672 9.35129 2.64727 9.35129 3.11672C9.35129 3.58617 9.73184 3.96672 10.2013 3.96672H11.9013C12.3707 3.96672 12.7513 3.58617 12.7513 3.11672C12.7513 2.64727 12.3707 2.26672 11.9013 2.26672H11.3408C11.3705 1.82735 11.5588 1.41368 11.8707 1.1028C12.5855 0.388055 13.7444 0.388161 14.4592 1.10301C14.5011 1.14491 14.5409 1.18879 14.5785 1.23455L14.6014 1.26288C14.8705 1.59023 15.0177 2.00078 15.0179 2.42454V9.63336H1.98466V8.50003H3.96798V8.78336C3.96798 8.93983 4.09484 9.0667 4.25131 9.0667C4.40778 9.0667 4.53465 8.93983 4.53465 8.78336V8.2167C4.53465 8.06023 4.40778 7.93337 4.25131 7.93337H2.55132V7.08337C2.55132 6.9269 2.42446 6.80004 2.26799 6.80004H1.13466C0.978189 6.80004 0.851327 6.9269 0.851327 7.08337V8.2167C0.851327 8.37317 0.978189 8.50003 1.13466 8.50003H1.41799V9.64016C1.14242 9.6562 0.882034 9.7718 0.685295 9.96543C0.242766 10.4001 0.236391 11.1112 0.671057 11.5537C0.802807 11.6878 0.966112 11.7868 1.14599 11.8414C1.26747 14.7215 3.63528 16.9953 6.51797 17H10.4846C13.3673 16.9953 15.7351 14.7215 15.8566 11.8414C16.451 11.6577 16.784 11.0269 16.6003 10.4325ZM11.9013 2.83339C12.0578 2.83339 12.1846 2.96025 12.1846 3.11672C12.1846 3.27319 12.0578 3.40005 11.9013 3.40005H10.2013C10.0449 3.40005 9.91799 3.27319 9.91799 3.11672C9.91799 2.96025 10.0449 2.83339 10.2013 2.83339H11.9013ZM1.41803 7.3667H1.98469V7.93337H1.41803V7.3667ZM10.4847 16.4333H6.518C3.96915 16.4301 1.86275 14.4443 1.70958 11.9H15.2931C15.1399 14.4443 13.0335 16.4301 10.4847 16.4333ZM15.5161 11.3334H1.48656C1.17358 11.3334 0.919894 11.0797 0.919894 10.7667C0.919894 10.4537 1.17358 10.2 1.48656 10.2H15.516C15.829 10.2 16.0827 10.4537 16.0827 10.7667C16.0827 11.0797 15.829 11.3334 15.5161 11.3334Z" fill="black"/>
</svg>
