<svg width="18" height="14" viewBox="0 0 18 14" fill="none" xmlns="http://www.w3.org/2000/svg">
<path d="M17.4375 10.0938H17.1562V7.84375C17.1559 7.5455 17.0372 7.25958 16.8263 7.04869C16.6154 6.83779 16.3295 6.71914 16.0312 6.71875V1.9375C16.0309 1.63925 15.9122 1.35333 15.7013 1.14244C15.4904 0.931543 15.2045 0.812891 14.9062 0.8125H3.09375C2.7955 0.812891 2.50958 0.931543 2.29869 1.14244C2.08779 1.35333 1.96914 1.63925 1.96875 1.9375V6.71875C1.6705 6.71914 1.38458 6.83779 1.17369 7.04869C0.962793 7.25958 0.844141 7.5455 0.84375 7.84375V10.0938H0.5625C0.487908 10.0938 0.416371 10.1234 0.363626 10.1761C0.310882 10.2289 0.28125 10.3004 0.28125 10.375V11.5C0.28125 11.5746 0.310882 11.6461 0.363626 11.6989C0.416371 11.7516 0.487908 11.7812 0.5625 11.7812H0.84375V12.9062C0.84375 12.9808 0.873382 13.0524 0.926126 13.1051C0.978871 13.1579 1.05041 13.1875 1.125 13.1875H1.96875C2.03375 13.1875 2.09675 13.165 2.14701 13.1238C2.19728 13.0826 2.23168 13.0252 2.24437 12.9614L2.48062 11.7812H15.5194L15.7556 12.9614C15.7683 13.0252 15.8027 13.0826 15.853 13.1238C15.9032 13.165 15.9662 13.1875 16.0312 13.1875H16.875C16.9496 13.1875 17.0211 13.1579 17.0739 13.1051C17.1266 13.0524 17.1562 12.9808 17.1562 12.9062V11.7812H17.4375C17.5121 11.7812 17.5836 11.7516 17.6364 11.6989C17.6891 11.6461 17.7188 11.5746 17.7188 11.5V10.375C17.7188 10.3004 17.6891 10.2289 17.6364 10.1761C17.5836 10.1234 17.5121 10.0938 17.4375 10.0938ZM2.53125 1.9375C2.53145 1.78838 2.59077 1.64542 2.69622 1.53997C2.80167 1.43452 2.94463 1.3752 3.09375 1.375H14.9062C15.0554 1.3752 15.1983 1.43452 15.3038 1.53997C15.4092 1.64542 15.4686 1.78838 15.4688 1.9375V6.71875H14.9062V5.59375C14.9059 5.2955 14.7872 5.00958 14.5763 4.79869C14.3654 4.58779 14.0795 4.46914 13.7812 4.46875H10.4062C10.108 4.46914 9.82208 4.58779 9.61119 4.79869C9.40029 5.00958 9.28164 5.2955 9.28125 5.59375V6.71875H8.71875V5.59375C8.71836 5.2955 8.59971 5.00958 8.38881 4.79869C8.17792 4.58779 7.892 4.46914 7.59375 4.46875H4.21875C3.9205 4.46914 3.63458 4.58779 3.42369 4.79869C3.21279 5.00958 3.09414 5.2955 3.09375 5.59375V6.71875H2.53125V1.9375ZM14.3438 5.59375V6.71875H9.84375V5.59375C9.84395 5.44463 9.90327 5.30167 10.0087 5.19622C10.1142 5.09077 10.2571 5.03145 10.4062 5.03125H13.7812C13.9304 5.03145 14.0733 5.09077 14.1788 5.19622C14.2842 5.30167 14.3436 5.44463 14.3438 5.59375ZM8.15625 5.59375V6.71875H3.65625V5.59375C3.65645 5.44463 3.71577 5.30167 3.82122 5.19622C3.92667 5.09077 4.06963 5.03145 4.21875 5.03125H7.59375C7.74287 5.03145 7.88583 5.09077 7.99128 5.19622C8.09673 5.30167 8.15605 5.44463 8.15625 5.59375ZM1.40625 7.84375C1.40645 7.69463 1.46577 7.55166 1.57122 7.44622C1.67667 7.34077 1.81963 7.28145 1.96875 7.28125H16.0312C16.1804 7.28145 16.3233 7.34077 16.4288 7.44622C16.5342 7.55166 16.5936 7.69463 16.5938 7.84375V10.0938H1.40625V7.84375ZM1.73812 12.625H1.40625V11.7812H1.90688L1.73812 12.625ZM16.5938 12.625H16.2619L16.0931 11.7812H16.5938V12.625ZM17.1562 11.2188H0.84375V10.6562H17.1562V11.2188Z" fill="black"/>
</svg>
