<svg width="40" height="41" viewBox="0 0 40 41" fill="none" xmlns="http://www.w3.org/2000/svg">
<path d="M40 20.0608C40 8.98483 31.044 0.00292969 20 0.00292969C8.95599 0.00292969 0 8.98483 0 20.0608C0 31.1367 8.95599 40.1187 20 40.1187C20.1175 40.1187 20.2344 40.1162 20.3516 40.1141V24.4999H16.0547V19.4777H20.3516V15.7821C20.3516 11.496 22.9605 9.16327 26.7728 9.16327C28.5983 9.16327 30.1675 9.29977 30.625 9.36067V13.8401H27.9962C25.9222 13.8401 25.5206 14.8287 25.5206 16.2791V19.4777H30.4797L29.8334 24.4999H25.5206V39.3437C33.8803 36.9402 40 29.2162 40 20.0608Z" fill="white"/>
</svg>
