<svg width="40" height="41" viewBox="0 0 40 41" fill="none" xmlns="http://www.w3.org/2000/svg">
<path d="M23.8281 20.0605C23.8281 17.9401 22.1143 16.2212 20 16.2212C17.8857 16.2212 16.1719 17.9401 16.1719 20.0605C16.1719 22.181 17.8857 23.8999 20 23.8999C22.1143 23.8999 23.8281 22.181 23.8281 20.0605Z" fill="white"/>
<path d="M28.9526 26.8533C28.7686 27.3534 28.475 27.8061 28.0935 28.1777C27.723 28.5602 27.272 28.8547 26.773 29.0392C26.3684 29.1969 25.7604 29.3845 24.6408 29.4356C23.4295 29.491 23.0664 29.5029 20 29.5029C16.9333 29.5029 16.5701 29.4913 15.3592 29.4359C14.2395 29.3845 13.6313 29.1969 13.2269 29.0392C12.728 28.8547 12.2766 28.5602 11.9064 28.1777C11.525 27.8061 11.2314 27.3537 11.0471 26.8533C10.8899 26.4475 10.7028 25.8375 10.6519 24.7145C10.5966 23.5 10.5847 23.1358 10.5847 20.0602C10.5847 16.9848 10.5966 16.6206 10.6519 15.4058C10.7028 14.2828 10.8899 13.6731 11.0471 13.2673C11.2314 12.7669 11.5247 12.3145 11.9061 11.9429C12.2766 11.5604 12.7277 11.2659 13.2266 11.0814C13.6313 10.9234 14.2395 10.7358 15.3592 10.6847C16.5701 10.6293 16.933 10.6177 19.9997 10.6177C23.0667 10.6177 23.4298 10.6293 24.6405 10.6847C25.7601 10.7358 26.3684 10.9234 26.773 11.0814C27.7746 11.4688 28.5662 12.2628 28.9526 13.2673C29.1097 13.6731 29.2968 14.2828 29.3481 15.4058C29.4033 16.6206 29.4149 16.9848 29.4149 20.0602C29.4149 23.1358 29.4033 23.5 29.3481 24.7145C29.2971 25.8375 29.11 26.4475 28.9526 26.8533ZM20 14.146C16.7428 14.146 14.1025 16.7938 14.1025 20.0605C14.1025 23.3271 16.7428 25.9749 20 25.9749C23.2568 25.9749 25.8972 23.3271 25.8972 20.0605C25.8972 16.7938 23.2568 14.146 20 14.146ZM26.1303 24.8265C25.3692 24.8265 24.7522 25.4454 24.7522 26.2087C24.7522 26.9721 25.3692 27.5909 26.1303 27.5909C26.8914 27.5909 27.5085 26.9721 27.5085 26.2087C27.5082 25.4454 26.8914 24.8265 26.1303 24.8265Z" fill="white"/>
<path d="M20 40.1187C8.95599 40.1187 0 31.1367 0 20.0608C0 8.98483 8.95599 0.00292969 20 0.00292969C31.044 0.00292969 40 8.98483 40 20.0608C40 31.1367 31.044 40.1187 20 40.1187ZM31.4151 15.3123C31.3596 14.0862 31.1652 13.2491 30.8813 12.5164C30.2847 10.9693 29.0652 9.74631 27.5226 9.14796C26.7923 8.86333 25.9573 8.66867 24.7351 8.61267C23.5104 8.55666 23.1192 8.54319 20.0003 8.54319C16.8811 8.54319 16.4902 8.55666 15.2652 8.61267C14.043 8.66867 13.208 8.86333 12.4777 9.14796C11.7111 9.43719 11.0172 9.89046 10.4434 10.4766C9.85931 11.0516 9.40735 11.7479 9.11896 12.5164C8.83514 13.2488 8.64075 14.0862 8.58521 15.312C8.52875 16.5405 8.51562 16.9329 8.51562 20.0608C8.51562 23.1887 8.52875 23.5811 8.5849 24.8093C8.64044 26.0354 8.83453 26.8724 9.11835 27.6051C9.40674 28.3737 9.85901 29.0699 10.4434 29.645C11.0168 30.2311 11.7111 30.6844 12.4774 30.9736C13.208 31.2583 14.0427 31.4529 15.2652 31.5089C16.4899 31.5649 16.8811 31.5784 20 31.5784C23.1189 31.5784 23.5101 31.5649 24.7348 31.5086C25.9573 31.4529 26.792 31.2583 27.5226 30.9739C28.2889 30.6847 28.9832 30.2311 29.5569 29.645C30.141 29.0696 30.5933 28.3737 30.8813 27.6051C31.1655 26.8724 31.3596 26.0354 31.4154 24.8093C31.4713 23.5811 31.4844 23.1887 31.4844 20.0608C31.4844 16.9329 31.4713 16.5405 31.4151 15.3123Z" fill="white"/>
</svg>
