<svg width="17" height="18" viewBox="0 0 17 18" fill="none" xmlns="http://www.w3.org/2000/svg">
<g clip-path="url(#clip0)">
<path d="M8.5 0.5C5.20452 0.5 2.52344 3.18109 2.52344 6.47656C2.52344 7.59 2.83186 8.6766 3.41557 9.6193L8.1598 17.2646C8.25068 17.411 8.41078 17.5 8.58297 17.5C8.5843 17.5 8.5856 17.5 8.58693 17.5C8.76061 17.4986 8.92105 17.4069 9.01027 17.2579L13.6336 9.53856C14.1851 8.61577 14.4766 7.55696 14.4766 6.47656C14.4766 3.18109 11.7955 0.5 8.5 0.5ZM12.7788 9.02716L8.57544 16.0452L4.26219 9.0945C3.77632 8.30984 3.51289 7.40459 3.51289 6.47656C3.51289 3.73033 5.75377 1.48945 8.5 1.48945C11.2462 1.48945 13.4838 3.73033 13.4838 6.47656C13.4838 7.37706 13.2377 8.25917 12.7788 9.02716Z" fill="black"/>
<path d="M8.5 3.48828C6.85226 3.48828 5.51172 4.82882 5.51172 6.47656C5.51172 8.11378 6.83045 9.46484 8.5 9.46484C10.1901 9.46484 11.4883 8.09578 11.4883 6.47656C11.4883 4.82882 10.1477 3.48828 8.5 3.48828ZM8.5 8.47539C7.39576 8.47539 6.50117 7.57781 6.50117 6.47656C6.50117 5.37807 7.40151 4.47773 8.5 4.47773C9.59849 4.47773 10.4955 5.37807 10.4955 6.47656C10.4955 7.56174 9.62173 8.47539 8.5 8.47539Z" fill="black"/>
</g>
<defs>
<clipPath id="clip0">
<rect width="17" height="17" fill="white" transform="translate(0 0.5)"/>
</clipPath>
</defs>
</svg>
