<svg width="64" height="64" viewBox="0 0 64 64" fill="none" xmlns="http://www.w3.org/2000/svg">
<path d="M42.3962 33.3543L29.1045 46.6459C28.8786 46.8731 28.5716 47 28.2502 47H22.2086C21.7204 47 21.2781 46.7064 21.0921 46.2544C20.9048 45.8025 21.0087 45.2829 21.3543 44.9374L33.7916 32.5L21.3543 20.0626C21.0087 19.7171 20.9048 19.1974 21.0921 18.7456C21.2781 18.2936 21.7204 18 22.2086 18H28.2503C28.5717 18 28.8786 18.1269 29.1046 18.3541L42.3963 31.6457C42.8686 32.1182 42.8686 32.8818 42.3962 33.3543Z" fill="#333333"/>
<path fill-rule="evenodd" clip-rule="evenodd" d="M32 58.566C46.672 58.566 58.566 46.672 58.566 32C58.566 17.328 46.672 5.43396 32 5.43396C17.328 5.43396 5.43396 17.328 5.43396 32C5.43396 46.672 17.328 58.566 32 58.566ZM32 64C49.6731 64 64 49.6731 64 32C64 14.3269 49.6731 0 32 0C14.3269 0 0 14.3269 0 32C0 49.6731 14.3269 64 32 64Z" fill="#333333"/>
</svg>
