<svg width="40" height="41" viewBox="0 0 40 41" fill="none" xmlns="http://www.w3.org/2000/svg">
<path d="M34.14 5.87259C26.3284 -1.95919 13.665 -1.95731 5.85573 5.8769C-1.95356 13.7111 -1.95169 26.4109 5.86003 34.2426C13.6717 42.0744 26.335 42.0725 34.1443 34.2383C37.8948 30.4759 40.0012 25.3734 40 20.0533C39.9989 14.7341 37.891 9.63323 34.14 5.87259ZM30.2893 27.94C30.2884 27.9409 30.2876 27.9418 30.2866 27.9427V27.936L29.2733 28.9456C27.9627 30.2765 26.0541 30.8241 24.2399 30.3897C22.4122 29.8991 20.6747 29.1181 19.0933 28.0764C17.6241 27.1347 16.2625 26.0339 15.0333 24.7936C13.9023 23.6677 12.8862 22.4313 11.9999 21.103C11.0306 19.6738 10.2633 18.1168 9.71994 16.4764C9.09705 14.5493 9.61323 12.4347 11.0533 11.0141L12.2399 9.82402C12.5699 9.49166 13.106 9.49048 13.4373 9.82135C13.4381 9.82221 13.4391 9.82308 13.4399 9.82402L17.1866 13.5814C17.518 13.9123 17.5192 14.45 17.1892 14.7822C17.1884 14.7831 17.1875 14.784 17.1866 14.7849L14.9866 16.9912C14.3553 17.6174 14.276 18.6125 14.7999 19.3313C15.5956 20.4265 16.4762 21.457 17.4333 22.4135C18.5004 23.4883 19.6605 24.4661 20.8999 25.3353C21.6161 25.8362 22.587 25.7518 23.2066 25.1347L25.3332 22.9685C25.6631 22.6361 26.1992 22.6349 26.5306 22.9658C26.5314 22.9667 26.5323 22.9675 26.5332 22.9685L30.2866 26.7393C30.6181 27.0701 30.6192 27.6077 30.2893 27.94Z" fill="white"/>
</svg>
