<svg width="64" height="64" viewBox="0 0 64 64" fill="none" xmlns="http://www.w3.org/2000/svg">
<path d="M21.6038 33.3543L34.8955 46.6459C35.1214 46.8731 35.4284 47 35.7498 47H41.7914C42.2796 47 42.7219 46.7064 42.9079 46.2544C43.0952 45.8025 42.9913 45.2829 42.6457 44.9374L30.2084 32.5L42.6457 20.0626C42.9913 19.7171 43.0952 19.1974 42.9079 18.7456C42.7219 18.2936 42.2796 18 41.7914 18H35.7497C35.4283 18 35.1214 18.1269 34.8954 18.3541L21.6037 31.6457C21.1314 32.1182 21.1314 32.8818 21.6038 33.3543Z" fill="#333333"/>
<path fill-rule="evenodd" clip-rule="evenodd" d="M32 58.566C17.328 58.566 5.43396 46.672 5.43396 32C5.43396 17.328 17.328 5.43396 32 5.43396C46.672 5.43396 58.566 17.328 58.566 32C58.566 46.672 46.672 58.566 32 58.566ZM32 64C14.3269 64 0 49.6731 0 32C0 14.3269 14.3269 0 32 0C49.6731 0 64 14.3269 64 32C64 49.6731 49.6731 64 32 64Z" fill="#333333"/>
</svg>
