<svg width="15" height="17" viewBox="0 0 15 17" fill="none" xmlns="http://www.w3.org/2000/svg">
<path d="M13.9329 0.664062H1.06705C1.01421 0.664062 0.963539 0.685052 0.926178 0.722412C0.888817 0.759773 0.867828 0.810445 0.867828 0.863281V16.1367C0.867828 16.1896 0.888817 16.2402 0.926178 16.2776C0.963539 16.3149 1.01421 16.3359 1.06705 16.3359H4.2417C4.29453 16.3359 4.34521 16.3149 4.38257 16.2776C4.41993 16.2402 4.44092 16.1896 4.44092 16.1367V4.23718H13.9329C13.9858 4.23718 14.0364 4.21619 14.0738 4.17883C14.1112 4.14147 14.1321 4.0908 14.1321 4.03796V0.863281C14.1321 0.810445 14.1112 0.759773 14.0738 0.722412C14.0364 0.685052 13.9858 0.664062 13.9329 0.664062ZM4.04248 2.07666H2.95959C2.90676 2.07666 2.85608 2.09765 2.81872 2.13501C2.78136 2.17237 2.76037 2.22304 2.76037 2.27587C2.76037 2.32871 2.78136 2.37938 2.81872 2.41674C2.85608 2.4541 2.90676 2.47509 2.95959 2.47509H4.04248V3.17027H3.52404C3.47121 3.17027 3.42054 3.19126 3.38318 3.22862C3.34582 3.26598 3.32483 3.31665 3.32483 3.36949C3.32483 3.42232 3.34582 3.47299 3.38318 3.51036C3.42054 3.54772 3.47121 3.56871 3.52404 3.56871H4.04248V4.22862H2.95959C2.90676 4.22862 2.85608 4.24961 2.81872 4.28697C2.78136 4.32433 2.76037 4.375 2.76037 4.42784C2.76037 4.48067 2.78136 4.53134 2.81872 4.56871C2.85608 4.60607 2.90676 4.62705 2.95959 4.62705H4.04248V5.32223H3.52404C3.47121 5.32223 3.42054 5.34322 3.38318 5.38058C3.34582 5.41794 3.32483 5.46861 3.32483 5.52145C3.32483 5.57428 3.34582 5.62496 3.38318 5.66232C3.42054 5.69968 3.47121 5.72067 3.52404 5.72067H4.04248V6.38055H2.95959C2.90676 6.38055 2.85608 6.40153 2.81872 6.43889C2.78136 6.47626 2.76037 6.52693 2.76037 6.57976C2.76037 6.6326 2.78136 6.68327 2.81872 6.72063C2.85608 6.75799 2.90676 6.77898 2.95959 6.77898H4.04248V7.47402H3.52404C3.47121 7.47402 3.42054 7.49501 3.38318 7.53237C3.34582 7.56973 3.32483 7.62041 3.32483 7.67324C3.32483 7.72608 3.34582 7.77675 3.38318 7.81411C3.42054 7.85147 3.47121 7.87246 3.52404 7.87246H4.04248V8.49711H2.95959C2.90676 8.49711 2.85608 8.5181 2.81872 8.55546C2.78136 8.59282 2.76037 8.64349 2.76037 8.69633C2.76037 8.74917 2.78136 8.79984 2.81872 8.8372C2.85608 8.87456 2.90676 8.89555 2.95959 8.89555H4.04248V9.59069H3.52404C3.47121 9.59069 3.42054 9.61168 3.38318 9.64904C3.34582 9.6864 3.32483 9.73707 3.32483 9.78991C3.32483 9.84274 3.34582 9.89342 3.38318 9.93078C3.42054 9.96814 3.47121 9.98913 3.52404 9.98913H4.04248V10.649H2.95959C2.90676 10.649 2.85608 10.67 2.81872 10.7074C2.78136 10.7447 2.76037 10.7954 2.76037 10.8483C2.76037 10.9011 2.78136 10.9518 2.81872 10.9891C2.85608 11.0265 2.90676 11.0475 2.95959 11.0475H4.04248V11.7427H3.52404C3.47121 11.7427 3.42054 11.7636 3.38318 11.801C3.34582 11.8384 3.32483 11.889 3.32483 11.9419C3.32483 11.9478 3.32519 11.9537 3.32572 11.9595C3.32519 11.9653 3.32483 11.9712 3.32483 11.9771C3.32483 12.03 3.34582 12.0806 3.38318 12.118C3.42054 12.1554 3.47121 12.1763 3.52404 12.1763H4.04248V12.801H2.95959C2.90676 12.801 2.85608 12.822 2.81872 12.8593C2.78136 12.8967 2.76037 12.9473 2.76037 13.0002C2.76037 13.053 2.78136 13.1037 2.81872 13.1411C2.85608 13.1784 2.90676 13.1994 2.95959 13.1994H4.04248V13.9299H3.52404C3.47121 13.9299 3.42054 13.9509 3.38318 13.9882C3.34582 14.0256 3.32483 14.0763 3.32483 14.1291C3.32483 14.1819 3.34582 14.2326 3.38318 14.27C3.42054 14.3073 3.47121 14.3283 3.52404 14.3283H4.04248V14.9529H2.95959C2.90676 14.9529 2.85608 14.9739 2.81872 15.0113C2.78136 15.0486 2.76037 15.0993 2.76037 15.1521C2.76037 15.205 2.78136 15.2557 2.81872 15.293C2.85608 15.3304 2.90676 15.3514 2.95959 15.3514H4.04248V15.9375H1.26627V1.0625H4.04248V2.07666ZM13.7337 3.83875H12.9748V2.75586C12.9748 2.70302 12.9538 2.65235 12.9165 2.61499C12.8791 2.57763 12.8284 2.55664 12.7756 2.55664C12.7228 2.55664 12.6721 2.57763 12.6347 2.61499C12.5974 2.65235 12.5764 2.70302 12.5764 2.75586V3.83875H11.8812V3.32031C11.8812 3.26748 11.8602 3.2168 11.8229 3.17944C11.7855 3.14208 11.7348 3.12109 11.682 3.12109C11.6292 3.12109 11.5785 3.14208 11.5411 3.17944C11.5038 3.2168 11.4828 3.26748 11.4828 3.32031V3.83875H10.8229V2.75586C10.8229 2.70302 10.8019 2.65235 10.7645 2.61499C10.7271 2.57763 10.6765 2.55664 10.6236 2.55664C10.5708 2.55664 10.5201 2.57763 10.4828 2.61499C10.4454 2.65235 10.4244 2.70302 10.4244 2.75586V3.83875H9.72928V3.32031C9.72928 3.26748 9.70829 3.2168 9.67093 3.17944C9.63357 3.14208 9.58289 3.12109 9.53006 3.12109C9.47722 3.12109 9.42655 3.14208 9.38919 3.17944C9.35183 3.2168 9.33084 3.26748 9.33084 3.32031V3.83875H8.70619V2.75586C8.70619 2.70302 8.6852 2.65235 8.64784 2.61499C8.61048 2.57763 8.55981 2.55664 8.50697 2.55664C8.45413 2.55664 8.40346 2.57763 8.3661 2.61499C8.32874 2.65235 8.30775 2.70302 8.30775 2.75586V3.83875H7.61261V3.32031C7.61261 3.26748 7.59162 3.2168 7.55426 3.17944C7.5169 3.14208 7.46623 3.12109 7.41339 3.12109C7.36056 3.12109 7.30988 3.14208 7.27252 3.17944C7.23516 3.2168 7.21417 3.26748 7.21417 3.32031V3.83875H6.5543V2.75586C6.5543 2.70302 6.53331 2.65235 6.49594 2.61499C6.45858 2.57763 6.40791 2.55664 6.35508 2.55664C6.30224 2.55664 6.25157 2.57763 6.21421 2.61499C6.17685 2.65235 6.15586 2.70302 6.15586 2.75586V3.83875H5.46065V3.32031C5.46065 3.26748 5.43966 3.2168 5.4023 3.17944C5.36494 3.14208 5.31427 3.12109 5.26143 3.12109C5.25549 3.12109 5.24961 3.12146 5.2438 3.12196C5.23799 3.12146 5.23211 3.12109 5.22617 3.12109C5.17333 3.12109 5.12266 3.14208 5.0853 3.17944C5.04794 3.2168 5.02695 3.26748 5.02695 3.32031V3.83875H4.44092V1.0625H13.7337V3.83875Z" fill="black"/>
</svg>
