<svg width="16" height="14" viewBox="0 0 16 14" fill="none" xmlns="http://www.w3.org/2000/svg">
<path d="M15.3337 7.81398L9.70624 13.4416C9.5456 13.6023 9.3315 13.6904 9.10321 13.6904C8.87466 13.6904 8.66068 13.6021 8.50004 13.4416L7.98911 12.9306C7.82859 12.7702 7.74016 12.5559 7.74016 12.3275C7.74016 12.0992 7.82859 11.8778 7.98911 11.7174L11.2721 8.42715H0.841845C0.371578 8.42715 0 8.059 0 7.5886V6.8661C0 6.3957 0.371578 5.99043 0.841845 5.99043H11.3094L7.98923 2.68183C7.82872 2.52119 7.74029 2.31278 7.74029 2.08436C7.74029 1.8562 7.82872 1.64475 7.98923 1.48424L8.50017 0.974825C8.66081 0.814184 8.87479 0.726643 9.10333 0.726643C9.33163 0.726643 9.54573 0.815324 9.70637 0.975965L15.3339 6.60347C15.4949 6.76462 15.5835 6.97974 15.5828 7.20841C15.5833 7.43784 15.4949 7.65309 15.3337 7.81398Z" fill="#4070FF"/>
</svg>
