<svg width="40" height="41" viewBox="0 0 40 41" fill="none" xmlns="http://www.w3.org/2000/svg">
<path d="M20 0.00292969C8.95599 0.00292969 0 8.98483 0 20.0608C0 31.1367 8.95599 40.1187 20 40.1187C31.044 40.1187 40 31.1367 40 20.0608C40 8.98483 31.044 0.00292969 20 0.00292969ZM29.1318 15.6419C29.1406 15.8393 29.1449 16.0377 29.1449 16.2369C29.1449 22.3204 24.5276 29.3356 16.0837 29.3359C13.4912 29.3359 11.0788 28.5738 9.04724 27.2679C9.40643 27.3104 9.77203 27.3315 10.1422 27.3315C12.2931 27.3315 14.2725 26.5958 15.8438 25.3608C13.8342 25.3235 12.1399 23.9924 11.5552 22.1631C11.835 22.217 12.1228 22.2464 12.4179 22.2464C12.8369 22.2464 13.2428 22.1897 13.6285 22.0841C11.528 21.6624 9.94568 19.8006 9.94568 17.5713C9.94568 17.5505 9.94568 17.5318 9.94629 17.5125C10.5649 17.8575 11.2723 18.065 12.0255 18.0882C10.7928 17.2634 9.9826 15.8534 9.9826 14.2561C9.9826 13.4126 10.21 12.6223 10.6042 11.942C12.868 14.7277 16.2512 16.5598 20.0665 16.7523C19.9878 16.415 19.9472 16.0637 19.9472 15.7025C19.9472 13.161 22.0032 11.0991 24.5383 11.0991C25.8588 11.0991 27.0514 11.6589 27.8891 12.5538C28.9349 12.3469 29.917 11.9637 30.8041 11.4364C30.4608 12.5109 29.7333 13.4126 28.7854 13.9828C29.7141 13.8714 30.5991 13.6244 31.4215 13.2577C30.8072 14.1811 30.0281 14.9922 29.1318 15.6419Z" fill="white"/>
</svg>
